<svg width="34" height="34" viewBox="0 0 34 34" fill="none" xmlns="http://www.w3.org/2000/svg">
<path d="M31.5716 25.3266V31.5714H2.42871V25.3266C2.91659 25.3266 3.37737 25.2505 3.81104 25.0983C4.24472 24.9461 4.56455 24.7971 4.77055 24.6512C4.97654 24.5055 5.23133 24.3022 5.5349 24.0414C5.86015 23.7487 6.13933 23.5427 6.37243 23.4233C6.60553 23.3035 6.91181 23.2436 7.29127 23.2436C7.67074 23.2436 7.9716 23.3035 8.19386 23.4233C8.41611 23.5432 8.70071 23.7492 9.04765 24.0414C9.36207 24.3124 9.61685 24.5184 9.812 24.6592C10.0072 24.8001 10.3216 24.9465 10.7552 25.0983C11.1889 25.2505 11.6551 25.3266 12.1538 25.3266C12.6417 25.3266 13.1025 25.2481 13.5362 25.091C13.9698 24.934 14.2843 24.7876 14.4794 24.652C14.6746 24.516 14.9348 24.3127 15.26 24.0421C15.4877 23.836 15.6639 23.6897 15.7886 23.6031C15.9132 23.5156 16.0813 23.4343 16.2927 23.359C16.5041 23.2829 16.7399 23.2448 17.0001 23.2448C17.3796 23.2448 17.6859 23.3047 17.919 23.4246C18.1521 23.5444 18.4313 23.7504 18.7565 24.0426C19.0601 24.3028 19.3149 24.5061 19.5209 24.6524C19.7269 24.7982 20.0467 24.9472 20.4804 25.0995C20.914 25.2517 21.3748 25.3278 21.8627 25.3278C22.3506 25.3278 22.8114 25.2517 23.245 25.0995C23.6787 24.9474 23.9985 24.7983 24.2045 24.6524C24.4105 24.5067 24.6653 24.3035 24.9689 24.0426C25.2941 23.7499 25.5733 23.5439 25.8064 23.4246C26.0395 23.3047 26.3458 23.2448 26.7253 23.2448C27.0939 23.2448 27.3947 23.3047 27.6278 23.4246C27.8609 23.5444 28.1401 23.7504 28.4654 24.0426C28.7689 24.3028 29.0237 24.5061 29.2297 24.6524C29.4357 24.7982 29.7556 24.9472 30.1892 25.0995C30.6229 25.2517 31.0837 25.3278 31.5716 25.3278V25.3266ZM31.5716 20.1224V23.2448C31.1921 23.2448 30.8912 23.1849 30.669 23.0651C30.4467 22.9453 30.1621 22.7393 29.8152 22.4471C29.5008 22.176 29.246 21.97 29.0508 21.829C28.8557 21.6881 28.5413 21.5418 28.1076 21.3899C27.6739 21.2377 27.2131 21.1616 26.7253 21.1616C26.2265 21.1616 25.7603 21.2377 25.3267 21.3899C24.893 21.5421 24.5786 21.6885 24.3834 21.829C24.1883 21.9698 23.9335 22.1759 23.6191 22.4471C23.3806 22.653 23.2017 22.7994 23.0824 22.8861C22.9631 22.9736 22.7951 23.0549 22.5783 23.1302C22.3614 23.2063 22.1229 23.2444 21.8627 23.2444C21.4832 23.2444 21.177 23.1845 20.9439 23.0646C20.7108 22.9448 20.4316 22.7388 20.1063 22.4466C19.7919 22.1755 19.5371 21.9695 19.342 21.8285C19.1468 21.6876 18.8324 21.5413 18.3987 21.3894C17.9651 21.2372 17.4989 21.1611 17.0001 21.1611C16.5123 21.1611 16.0515 21.2397 15.6178 21.3967C15.1841 21.5537 14.8697 21.7001 14.6746 21.8358C14.4794 21.9718 14.2192 22.1751 13.894 22.4456C13.6663 22.6515 13.4901 22.7979 13.3654 22.8847C13.2407 22.9721 13.0727 23.0535 12.8613 23.1288C12.6499 23.2049 12.414 23.2429 12.1538 23.2429C11.7744 23.2429 11.4681 23.183 11.235 23.0632C11.0019 22.9434 10.7227 22.7374 10.3975 22.4451C10.0939 22.1849 9.83911 21.9817 9.63311 21.8353C9.42712 21.6896 9.10728 21.5405 8.67361 21.388C8.23993 21.2358 7.77916 21.1597 7.29127 21.1597C6.79255 21.1597 6.32635 21.2358 5.89268 21.388C5.459 21.5401 5.14459 21.6865 4.94944 21.827C4.75428 21.9679 4.4995 22.1739 4.18509 22.4451C3.85983 22.7378 3.58066 22.9439 3.34756 23.0632C3.11446 23.1843 2.80818 23.2448 2.42871 23.2448V20.1224C2.42871 19.2551 2.73228 18.5179 3.33943 17.9107C3.94657 17.3036 4.68381 17 5.55116 17H6.59198V9.7143H10.7552V17H14.9185V9.7143H19.0818V17H23.245V9.7143H27.4083V17H28.4491C29.3165 17 30.0537 17.3036 30.6609 17.9107C31.268 18.5179 31.5716 19.2551 31.5716 20.1224ZM10.7552 6.07145C10.7552 6.90623 10.5601 7.54858 10.1698 7.99852C9.77948 8.44845 9.28075 8.67342 8.67361 8.67342C8.09899 8.67342 7.6084 8.47015 7.20183 8.0636C6.79526 7.65706 6.59198 7.16649 6.59198 6.59189C6.59198 6.27747 6.64347 6.00102 6.74647 5.76253C6.84947 5.52388 6.97686 5.33956 7.12865 5.20955C7.28043 5.08002 7.44848 4.92824 7.63279 4.75419C7.8171 4.58063 7.98515 4.4099 8.13694 4.242C8.28872 4.07395 8.41611 3.83271 8.51911 3.51829C8.62211 3.20387 8.67361 2.84064 8.67361 2.42859C9.0856 2.42859 9.53553 2.82971 10.0234 3.63195C10.5113 4.43435 10.7552 5.24751 10.7552 6.07145ZM19.0818 6.07145C19.0818 6.90623 18.8866 7.54858 18.4963 7.99852C18.106 8.44845 17.6073 8.67342 17.0001 8.67342C16.4255 8.67342 15.9349 8.47015 15.5284 8.0636C15.1218 7.65706 14.9185 7.16649 14.9185 6.59189C14.9185 6.27747 14.97 6.00102 15.073 5.76253C15.176 5.52388 15.3034 5.33956 15.4552 5.20955C15.607 5.08002 15.775 4.92824 15.9593 4.75419C16.1436 4.58063 16.3117 4.4099 16.4635 4.242C16.6153 4.07395 16.7426 3.83271 16.8456 3.51829C16.9486 3.20387 17.0001 2.84064 17.0001 2.42859C17.4121 2.42859 17.8621 2.82971 18.3499 3.63195C18.8378 4.43435 19.0818 5.24751 19.0818 6.07145ZM27.4083 6.07145C27.4083 6.90623 27.2131 7.54858 26.8228 7.99852C26.4325 8.44845 25.9338 8.67342 25.3267 8.67342C24.7521 8.67342 24.2615 8.47015 23.8549 8.0636C23.4483 7.65706 23.245 7.16649 23.245 6.59189C23.245 6.27747 23.2965 6.00102 23.3995 5.76253C23.5025 5.52388 23.6299 5.33956 23.7817 5.20955C23.9335 5.08002 24.1015 4.92824 24.2859 4.75419C24.4702 4.58063 24.6382 4.4099 24.79 4.242C24.9418 4.07395 25.0692 3.83271 25.1722 3.51829C25.2752 3.20387 25.3267 2.84064 25.3267 2.42859C25.7387 2.42859 26.1886 2.82971 26.6765 3.63195C27.1644 4.43435 27.4083 5.24751 27.4083 6.07145Z" fill="#00B8B0"/>
</svg>
