<svg width="34" height="34" viewBox="0 0 34 34" fill="none" xmlns="http://www.w3.org/2000/svg">
<path d="M32.9037 8.04104L28.9909 4.09711C28.9609 4.06636 28.9252 4.04193 28.8857 4.02526C28.8463 4.00859 28.8039 4 28.7612 4C28.7184 4 28.676 4.00859 28.6366 4.02526C28.5972 4.04193 28.5614 4.06636 28.5314 4.09711L11.6757 21.0882C11.6457 21.119 11.61 21.1434 11.5705 21.1601C11.5311 21.1767 11.4887 21.1853 11.446 21.1853C11.4032 21.1853 11.3609 21.1767 11.3214 21.1601C11.282 21.1434 11.2462 21.119 11.2162 21.0882L4.46827 14.2858C4.43828 14.255 4.40252 14.2306 4.36307 14.2139C4.32363 14.1973 4.28128 14.1887 4.23851 14.1887C4.19574 14.1887 4.15339 14.1973 4.11394 14.2139C4.0745 14.2306 4.03873 14.255 4.00874 14.2858L0.095973 18.2304C0.065574 18.2606 0.0414355 18.2966 0.0249599 18.3363C0.00848426 18.3761 0 18.4187 0 18.4617C0 18.5048 0.00848426 18.5474 0.0249599 18.5871C0.0414355 18.6269 0.065574 18.6629 0.095973 18.6931L11.2149 29.9029C11.2449 29.9336 11.2807 29.9581 11.3201 29.9747C11.3596 29.9914 11.4019 30 11.4447 30C11.4875 30 11.5298 29.9914 11.5693 29.9747C11.6087 29.9581 11.6445 29.9336 11.6745 29.9029L32.9037 8.50445C32.9342 8.47421 32.9584 8.43814 32.975 8.39836C32.9915 8.35858 33 8.31588 33 8.27274C33 8.22961 32.9915 8.18691 32.975 8.14712C32.9584 8.10734 32.9342 8.07128 32.9037 8.04104Z" fill="#05BEAB"/>
</svg>
