<svg width="28" height="28" viewBox="0 0 28 28" fill="none" xmlns="http://www.w3.org/2000/svg">
<path d="M11.3313 15.4614C9.03004 16.5245 7.58192 18.887 7.19254 21.127C7.13928 21.5072 7.00946 21.8727 6.81094 22.2013C6.61242 22.5299 6.34932 22.8148 6.03754 23.0389C5.7754 23.2102 5.56405 23.4488 5.42553 23.7297C5.28701 24.0105 5.22641 24.3235 5.25004 24.6357C5.2971 25.085 5.51116 25.5003 5.84984 25.7993C6.18852 26.0983 6.62712 26.2592 7.07879 26.2501H20.9213C21.373 26.2592 21.8116 26.0983 22.1502 25.7993C22.4889 25.5003 22.703 25.085 22.75 24.6357C22.7746 24.3243 22.7153 24.0119 22.5784 23.7311C22.4414 23.4503 22.2318 23.2113 21.9713 23.0389C21.656 22.8087 21.3904 22.5172 21.1904 22.1819C20.9905 21.8466 20.8602 21.4744 20.8075 21.0876C20.4138 18.9001 18.9919 16.5726 16.7475 15.4964C16.4124 15.3525 16.133 15.1038 15.9513 14.7876C15.845 14.5935 15.7794 14.3798 15.7583 14.1595C15.7372 13.9392 15.7611 13.7169 15.8287 13.5061C15.8962 13.2954 16.0059 13.1006 16.1511 12.9335C16.2962 12.7665 16.4739 12.6307 16.6732 12.5345C18.9744 11.4714 20.4225 9.10887 20.8119 6.86887C20.8652 6.48866 20.995 6.1232 21.1935 5.79458C21.392 5.46597 21.6551 5.18103 21.9669 4.95699C22.2276 4.78547 22.4376 4.54737 22.5753 4.26737C22.713 3.98737 22.7733 3.67565 22.75 3.36449C22.703 2.91519 22.4889 2.49993 22.1502 2.20096C21.8116 1.90198 21.373 1.74108 20.9213 1.75012H7.07879C6.62712 1.74108 6.18852 1.90198 5.84984 2.20096C5.51116 2.49993 5.2971 2.91519 5.25004 3.36449C5.22549 3.67595 5.28476 3.98829 5.4217 4.2691C5.55864 4.54991 5.76826 4.78894 6.02879 4.96137C6.3441 5.19156 6.60969 5.48303 6.80966 5.81831C7.00962 6.1536 7.13985 6.5258 7.19254 6.91262C7.58629 9.10012 9.00817 11.4276 11.2525 12.5039C11.5877 12.6477 11.8671 12.8964 12.0488 13.2126C12.1545 13.4063 12.2198 13.6194 12.2408 13.839C12.2619 14.0587 12.2381 14.2803 12.171 14.4905C12.104 14.7007 11.995 14.8951 11.8506 15.062C11.7063 15.2288 11.5296 15.3647 11.3313 15.4614ZM11.2175 7.87512C10.9162 7.8775 10.6223 7.78133 10.3806 7.60126C10.1389 7.42119 9.96271 7.16708 9.87879 6.87762C9.83504 6.72449 9.80442 6.57574 9.77817 6.44012C9.69827 5.98934 9.56764 5.54904 9.38879 5.12762C9.34731 5.04723 9.32768 4.95735 9.33186 4.86699C9.33605 4.77662 9.36391 4.68894 9.41265 4.61273C9.46139 4.53653 9.52929 4.47446 9.60957 4.43276C9.68984 4.39105 9.77967 4.37118 9.87004 4.37512H18.13C18.2158 4.37414 18.3004 4.39454 18.3763 4.43446C18.4521 4.47438 18.5169 4.53256 18.5646 4.60376C18.6124 4.67497 18.6417 4.75694 18.6498 4.84229C18.658 4.92764 18.6447 5.01367 18.6113 5.09262C18.4325 5.51405 18.3019 5.95435 18.2219 6.40512C18.1957 6.55387 18.1607 6.70262 18.1213 6.84262C18.0438 7.13859 17.8704 7.40051 17.6281 7.58736C17.3859 7.7742 17.0885 7.8754 16.7825 7.87512H11.2175ZM12.4338 17.8457C13.0353 17.5665 13.5617 17.1481 13.9694 16.6251H14.0307C14.4384 17.1481 14.9648 17.5665 15.5663 17.8457C16.542 18.3462 17.3148 19.1684 17.7538 20.1732C17.7966 20.2598 17.8168 20.3558 17.8125 20.4522C17.8083 20.5487 17.7798 20.6425 17.7296 20.725C17.6794 20.8075 17.6092 20.876 17.5254 20.9241C17.4417 20.9721 17.3472 20.9983 17.2507 21.0001H10.7494C10.6518 21.0005 10.5556 20.976 10.4701 20.9288C10.3846 20.8816 10.3126 20.8134 10.2609 20.7305C10.2092 20.6477 10.1795 20.553 10.1746 20.4555C10.1698 20.358 10.1899 20.2608 10.2332 20.1732C10.6755 19.1663 11.4532 18.3438 12.4338 17.8457Z" fill="#00B8B0"/>
</svg>
