<svg width="29" height="29" viewBox="0 0 29 29" fill="none" xmlns="http://www.w3.org/2000/svg">
<g clip-path="url(#clip0_117_1796)">
<path d="M14.6666 7.5H12.9166V16.25H19.9166V14.5H14.6666V7.5Z" fill="#00B8B0"/>
<path d="M28.6666 12.75V5.75L26.7416 7.675C24.4666 3.3 19.9166 0.5 14.6666 0.5C6.96663 0.5 0.666626 6.8 0.666626 14.5C0.666626 22.2 6.96663 28.5 14.6666 28.5C18.8666 28.5 22.7166 26.575 25.1666 23.6L22.5416 21.325C20.6166 23.6 17.8166 25 14.6666 25C8.89163 25 4.16663 20.275 4.16663 14.5C4.16663 8.725 8.89163 4 14.6666 4C18.8666 4 22.5416 6.625 24.2916 10.125L21.6666 12.75H28.6666Z" fill="#00B8B0"/>
</g>
<defs>
<clipPath id="clip0_117_1796">
<rect width="28" height="28" fill="white" transform="translate(0.666626 0.5)"/>
</clipPath>
</defs>
</svg>
