<svg width="28" height="28" viewBox="0 0 28 28" fill="none" xmlns="http://www.w3.org/2000/svg">
<path d="M13.9818 15.0024C8.41262 15.0129 3.80557 19.4222 3.52734 24.9943C3.51993 25.1524 3.54478 25.3104 3.60037 25.4586C3.65597 25.6069 3.74114 25.7422 3.8507 25.8565C3.96027 25.9707 4.09194 26.0615 4.2377 26.1232C4.38346 26.185 4.54026 26.2164 4.69856 26.2157H23.3105C23.4681 26.2152 23.6239 26.1828 23.7686 26.1205C23.9133 26.0582 24.0438 25.9673 24.1524 25.8532C24.261 25.739 24.3454 25.6041 24.4004 25.4565C24.4554 25.3089 24.48 25.1517 24.4727 24.9943C24.1941 19.4151 19.5762 15.0031 14 15.0024H13.9818Z" fill="#00B8B0"/>
<path d="M14.0005 2.24707C11.0483 2.24707 8.64156 4.66517 8.64154 7.6206C8.64153 10.576 11.0483 13.0025 14.0005 13.0025C16.9527 13.0025 19.3678 10.576 19.3677 7.6206C19.3677 4.66517 16.9526 2.24707 14.0005 2.24707Z" fill="#00B8B0"/>
</svg>
