<svg width="34" height="34" viewBox="0 0 34 34" fill="none" xmlns="http://www.w3.org/2000/svg">
<path d="M17.0599 7.91562C20.2239 7.91562 23.2371 9.07224 25.4971 11.2409C30.1676 15.7228 30.1676 23.0962 25.4971 27.5781C22.7851 30.3251 19.0185 31.3371 15.4026 30.9034L16.1559 28.0118C18.7172 28.301 21.4292 27.4335 23.3878 25.554C26.853 22.2287 26.853 16.7348 23.3878 13.265C21.7305 11.6746 19.3199 10.8072 17.0599 10.8072V17.4577L9.52675 10.2289L17.0599 3V7.91562ZM8.47211 27.5781C4.55486 23.8191 3.9522 18.036 6.66415 13.5541L8.9241 15.7228C7.2668 18.9035 7.86945 22.9516 10.7321 25.554C11.4854 26.2769 12.3894 26.8552 13.444 27.2889L12.54 30.1805C11.0334 29.6022 9.67741 28.7347 8.47211 27.5781Z" fill="#F99E17"/>
</svg>
