<?xml version="1.0" standalone="no"?>
<!DOCTYPE svg PUBLIC "-//W3C//DTD SVG 1.1//EN" "http://www.w3.org/Graphics/SVG/1.1/DTD/svg11.dtd" >
<svg xmlns="http://www.w3.org/2000/svg" xmlns:xlink="http://www.w3.org/1999/xlink" version="1.1">
<metadata>
Created by FontForge 20190801 at Tue Dec 21 14:54:57 2021
 By root
Copyright 2019-2021 The Manrope Project Authors \(https://github.com/sharanda/manrope\)
</metadata>
<defs>
<font id="Manrope-Light" horiz-adv-x="1167" >
  <font-face 
    font-family="Manrope Light"
    font-weight="300"
    font-stretch="normal"
    units-per-em="2000"
    panose-1="0 0 0 0 0 0 0 0 0 0"
    ascent="1600"
    descent="-400"
    x-height="1080"
    cap-height="1440"
    bbox="-381 -530 2520 2179.38"
    underline-thickness="100"
    underline-position="-250"
    unicode-range="U+000D-FB02"
  />
<missing-glyph horiz-adv-x="1480" 
d="M200 0v114h1080v-114h-1080zM200 144v80h1080v-80h-1080zM200 260v74h1080v-74h-1080zM200 374v70h1080v-70h-1080zM200 490v66h1080v-66h-1080zM200 606v60h1080v-60h-1080zM200 720v56h1080v-56h-1080zM200 838v48h1080v-48h-1080zM200 952v44h1080v-44h-1080z
M200 1066v42h1080v-42h-1080zM200 1184v36h1080v-36h-1080zM200 1298v32h1080v-32h-1080zM200 1414v26h1080v-26h-1080z" />
    <glyph glyph-name="fi" unicode="fi" horiz-adv-x="1159" 
d="M252 1181c0 84 10 156 65 216c57 60 133 73 218 73h139v-100h-129c-120 0 -178 -53 -178 -185v-105h307v-105h-307v-975h-115v975h-192v105h192v101zM884 0v1080h115v-1080h-115zM884 1298v147h115v-147h-115z" />
    <glyph glyph-name="fl" unicode="fl" horiz-adv-x="1205" 
d="M367 975v-975h-115v975h-192v105h192v101c0 84 10 156 65 216c57 60 133 73 218 73h139v-100h-129c-120 0 -178 -53 -178 -185v-105h563v360h115v-1440h-115v975h-563z" />
    <glyph glyph-name="hyphen_hyphen.liga" unicode="&#x2d;&#x2d;" horiz-adv-x="1080" 
d="M120 578v105h840v-105h-840z" />
    <glyph glyph-name="hyphen_greater.liga" unicode="&#x2d;&#x3e;" horiz-adv-x="1995" 
d="M280 577v105h1248l-346 347l67 66l466 -465l-466 -466l-67 66l347 347h-1249z" />
    <glyph glyph-name="less_hyphen.liga" unicode="&#x3c;&#x2d;" horiz-adv-x="1995" 
d="M1715 577h-1249l347 -347l-67 -66l-466 466l466 465l67 -66l-346 -347h1248v-105z" />
    <glyph glyph-name="uniE001" unicode="&#x28;c&#x29;" horiz-adv-x="1751" 
d="M876 -32c-396 0 -716 321 -716 716s320 716 716 716c395 0 715 -321 715 -716s-320 -716 -715 -716zM274 686c0 -334 268 -602 602 -602c330 0 598 268 598 602c0 330 -268 598 -598 598c-334 0 -602 -268 -602 -598zM508 687c2 103 22 207 88 291c71 88 168 129 291 129
c71 0 134 -14 195 -51s112 -96 134 -169l-102 -32c-18 42 -51 84 -92 112c-40 28 -89 40 -139 40c-81 0 -152 -34 -200 -95c-47 -61 -62 -146 -62 -223c0 -87 20 -172 62 -230c46 -62 117 -94 199 -94c53 0 102 13 143 39c39 26 66 63 87 109l104 -32
c-32 -76 -81 -128 -125 -158c-60 -40 -126 -59 -209 -59c-118 0 -215 40 -286 129c-70 88 -88 194 -88 294z" />
    <glyph glyph-name="uniE002" unicode="&#x20;&#x3c;&#x33;&#x20;" horiz-adv-x="2338" 
d="M1170 -30c-30 0 -59 11 -79 33l-427 450c-225 244 -60 657 252 657c84 0 168 -33 254 -100c80 68 168 100 250 100c318 0 477 -419 252 -657l-427 -450c-20 -22 -47 -33 -75 -33zM742 525l428 -450l427 450c163 174 43 480 -177 480c-80 0 -168 -44 -250 -136
c-91 92 -174 136 -254 136c-222 0 -334 -310 -174 -480z" />
    <glyph glyph-name="uniE003" unicode="&#x28;&#x3e;&#x29;" horiz-adv-x="2300" 
d="M1024 1030l372 -310l-372 -310v620zM160 720c0 -546 444 -990 990 -990s990 444 990 990s-444 990 -990 990s-990 -444 -990 -990zM276 723c0 482 389 871 877 871c482 0 871 -389 871 -871c0 -488 -389 -877 -871 -877c-488 0 -877 389 -877 877z" />
    <glyph glyph-name="uniE007" unicode="ff" horiz-adv-x="1291" 
d="M252 1181c0 84 10 156 65 216c57 60 133 73 218 73h139v-100h-129c-120 0 -178 -53 -178 -185v-105h482v101c0 84 10 156 65 216c57 60 133 73 218 73h139v-100h-129c-120 0 -178 -53 -178 -185v-105h307v-105h-307v-975h-115v975h-482v-975h-115v975h-192v105h192v101z
" />
    <glyph glyph-name="uniE008" unicode="ffl" horiz-adv-x="1802" 
d="M964 975v-975h-115v975h-482v-975h-115v975h-192v105h192v101c0 84 10 156 65 216c57 60 133 73 218 73h139v-100h-129c-120 0 -178 -53 -178 -185v-105h482v101c0 84 10 156 65 216c57 60 133 73 218 73h139v-100h-129c-120 0 -178 -53 -178 -185v-105h563v360h115
v-1440h-115v975h-563z" />
    <glyph glyph-name="uniE009" unicode="tt" horiz-adv-x="1439" 
d="M713 0c-172 -37 -352 -12 -418 127c-36 75 -33 148 -33 248v600h-242v105h242v300h116v-300h544v300h116v-300h335v-105h-335v-598c0 -92 -4 -145 22 -194c48 -92 152 -105 313 -79v-104c-172 -37 -352 -12 -418 127c-36 75 -33 148 -33 248v600h-544v-598
c0 -92 -4 -145 22 -194c48 -92 152 -105 313 -79v-104z" />
    <glyph glyph-name=".notdef" horiz-adv-x="1480" 
d="M200 0v114h1080v-114h-1080zM200 144v80h1080v-80h-1080zM200 260v74h1080v-74h-1080zM200 374v70h1080v-70h-1080zM200 490v66h1080v-66h-1080zM200 606v60h1080v-60h-1080zM200 720v56h1080v-56h-1080zM200 838v48h1080v-48h-1080zM200 952v44h1080v-44h-1080z
M200 1066v42h1080v-42h-1080zM200 1184v36h1080v-36h-1080zM200 1298v32h1080v-32h-1080zM200 1414v26h1080v-26h-1080z" />
    <glyph glyph-name=".null" horiz-adv-x="1200" 
 />
    <glyph glyph-name="CR" unicode="&#xd;" horiz-adv-x="1200" 
 />
    <glyph glyph-name="space" unicode=" " horiz-adv-x="400" 
 />
    <glyph glyph-name="A" unicode="A" horiz-adv-x="1243" 
d="M40 0l510 1440h143l510 -1440h-122l-129 362h-662l-128 -362h-122zM328 471h586l-294 827z" />
    <glyph glyph-name="Aacute" unicode="&#xc1;" horiz-adv-x="1243" 
d="M40 0l510 1440h143l510 -1440h-122l-129 362h-662l-128 -362h-122zM328 471h586l-294 827zM578 1615l108 290h107l-108 -290h-107z" />
    <glyph glyph-name="Abreve" unicode="&#x102;" horiz-adv-x="1243" 
d="M40 0l510 1440h143l510 -1440h-122l-129 362h-662l-128 -362h-122zM328 471h586l-294 827zM379 1813h100c0 -78 65 -143 143 -143c80 0 143 65 143 143h100c0 -134 -109 -243 -243 -243s-243 109 -243 243z" />
    <glyph glyph-name="uni1EAE" unicode="&#x1eae;" horiz-adv-x="1243" 
d="M40 0l510 1440h143l510 -1440h-122l-129 362h-662l-128 -362h-122zM328 471h586l-294 827zM378 1813h100c0 -78 65 -143 143 -143c80 0 143 65 143 143h100c0 -134 -109 -243 -243 -243s-243 109 -243 243zM564 1855l108 290h107l-108 -290h-107z" />
    <glyph glyph-name="uni1EB6" unicode="&#x1eb6;" horiz-adv-x="1243" 
d="M40 0l510 1440h143l510 -1440h-122l-129 362h-662l-128 -362h-122zM328 471h586l-294 827zM379 1813h100c0 -78 65 -143 143 -143c80 0 143 65 143 143h100c0 -134 -109 -243 -243 -243s-243 109 -243 243zM549 -382v147h145v-147h-145z" />
    <glyph glyph-name="uni1EB0" unicode="&#x1eb0;" horiz-adv-x="1243" 
d="M40 0l510 1440h143l510 -1440h-122l-129 362h-662l-128 -362h-122zM328 471h586l-294 827zM378 1813h100c0 -78 63 -143 143 -143c78 0 143 65 143 143h100c0 -134 -109 -243 -243 -243s-243 109 -243 243zM464 2145h107l108 -290h-107z" />
    <glyph glyph-name="uni1EB2" unicode="&#x1eb2;" horiz-adv-x="1243" 
d="M40 0l510 1440h143l510 -1440h-122l-129 362h-662l-128 -362h-122zM328 471h586l-294 827zM378 1813h100c0 -78 65 -143 143 -143c80 0 143 65 143 143h100c0 -134 -109 -243 -243 -243s-243 109 -243 243zM446 2114c70 77 197 99 267 -6c68 -106 -1 -228 -104 -274
l-51 59c83 41 114 108 81 163c-34 57 -102 40 -150 -5z" />
    <glyph glyph-name="uni1EB4" unicode="&#x1eb4;" horiz-adv-x="1243" 
d="M40 0l510 1440h143l510 -1440h-122l-129 362h-662l-128 -362h-122zM325 1880c-27 106 33 191 137 191c110 0 210 -105 290 -105c48 0 68 45 52 95h88c27 -104 -31 -194 -139 -194s-208 105 -288 105c-55 0 -66 -50 -52 -92h-88zM328 471h586l-294 827zM364 1813h100
c0 -78 65 -143 143 -143c80 0 143 65 143 143h100c0 -134 -109 -243 -243 -243s-243 109 -243 243z" />
    <glyph glyph-name="Acircumflex" unicode="&#xc2;" horiz-adv-x="1243" 
d="M40 0l510 1440h143l510 -1440h-122l-129 362h-662l-128 -362h-122zM328 471h586l-294 827zM350 1615l214 255h114l215 -255h-125l-147 172l-146 -172h-125z" />
    <glyph glyph-name="uni1EA4" unicode="&#x1ea4;" horiz-adv-x="1243" 
d="M40 0l510 1440h143l510 -1440h-122l-129 362h-662l-128 -362h-122zM328 471h586l-294 827zM349 1615l214 255h114l215 -255h-125l-147 172l-146 -172h-125zM862 1825l108 290h107l-108 -290h-107z" />
    <glyph glyph-name="uni1EAC" unicode="&#x1eac;" horiz-adv-x="1243" 
d="M40 0l510 1440h143l510 -1440h-122l-129 362h-662l-128 -362h-122zM328 471h586l-294 827zM350 1615l214 255h114l215 -255h-125l-147 172l-146 -172h-125zM549 -382v147h145v-147h-145z" />
    <glyph glyph-name="uni1EA6" unicode="&#x1ea6;" horiz-adv-x="1243" 
d="M40 0l510 1440h143l510 -1440h-122l-129 362h-662l-128 -362h-122zM328 471h586l-294 827zM349 1615l214 255h114l215 -255h-125l-147 172l-146 -172h-125zM746 2115h107l108 -290h-107z" />
    <glyph glyph-name="uni1EA8" unicode="&#x1ea8;" horiz-adv-x="1243" 
d="M40 0l510 1440h143l510 -1440h-122l-129 362h-662l-128 -362h-122zM328 471h586l-294 827zM350 1615l214 255h114l215 -255h-125l-147 172l-146 -172h-125zM858 1887c70 77 197 99 267 -6c68 -106 -1 -228 -104 -274l-51 59c83 41 114 108 81 163c-34 57 -102 40 -150 -5
z" />
    <glyph glyph-name="uni1EAA" unicode="&#x1eaa;" horiz-adv-x="1243" 
d="M40 0l510 1440h143l510 -1440h-122l-129 362h-662l-128 -362h-122zM328 471h586l-294 827zM341 1933c-27 106 33 191 137 191c110 0 210 -105 290 -105c48 0 68 45 52 95h88c27 -104 -31 -194 -139 -194s-208 105 -288 105c-55 0 -66 -50 -52 -92h-88zM347 1615l214 255
h114l215 -255h-125l-147 172l-146 -172h-125z" />
    <glyph glyph-name="Adieresis" unicode="&#xc4;" horiz-adv-x="1243" 
d="M40 0l510 1440h143l510 -1440h-122l-129 362h-662l-128 -362h-122zM328 471h586l-294 827zM367 1665v140h140v-140h-140zM738 1665v140h140v-140h-140z" />
    <glyph glyph-name="uni1EA0" unicode="&#x1ea0;" horiz-adv-x="1243" 
d="M40 0l510 1440h143l510 -1440h-122l-129 362h-662l-128 -362h-122zM328 471h586l-294 827zM549 -382v147h145v-147h-145z" />
    <glyph glyph-name="Agrave" unicode="&#xc0;" horiz-adv-x="1243" 
d="M1203 0h-122l-128 362h-662l-129 -362h-122l510 1440h143zM329 471h586l-292 827zM450 1905h107l108 -290h-107z" />
    <glyph glyph-name="uni1EA2" unicode="&#x1ea2;" horiz-adv-x="1243" 
d="M40 0l510 1440h143l510 -1440h-122l-129 362h-662l-128 -362h-122zM328 471h586l-294 827zM472 1887c70 77 197 99 267 -6c68 -106 -1 -228 -104 -274l-51 59c83 41 114 108 81 163c-34 57 -102 40 -150 -5z" />
    <glyph glyph-name="Amacron" unicode="&#x100;" horiz-adv-x="1243" 
d="M40 0l510 1440h143l510 -1440h-122l-129 362h-662l-128 -362h-122zM328 471h586l-294 827zM377 1680v105h491v-105h-491z" />
    <glyph glyph-name="Aogonek" unicode="&#x104;" horiz-adv-x="1243" 
d="M40 0l510 1440h143l510 -1440c-122 -77 -228 -200 -228 -292c0 -54 38 -91 82 -91c33 0 69 21 98 53l57 -67c-45 -58 -104 -86 -162 -86c-100 0 -183 88 -183 188c0 106 87 227 204 324l-119 333h-662l-128 -362h-122zM328 471h586l-294 827z" />
    <glyph glyph-name="Aring" unicode="&#xc5;" horiz-adv-x="1243" 
d="M40 0l510 1440h143l510 -1440h-122l-129 362h-662l-128 -362h-122zM328 471h586l-294 827zM415 1765c0 113 94 207 207 207c115 0 207 -94 207 -207c0 -115 -92 -207 -207 -207c-113 0 -207 92 -207 207zM512 1765c0 -60 50 -110 110 -110c62 0 110 50 110 110
c0 61 -48 110 -110 110c-60 0 -110 -49 -110 -110z" />
    <glyph glyph-name="Atilde" unicode="&#xc3;" horiz-adv-x="1243" 
d="M40 0l510 1440h143l510 -1440h-122l-129 362h-662l-128 -362h-122zM328 471h586l-294 827zM338 1679c-27 106 33 191 137 191c110 0 210 -105 290 -105c48 0 68 45 52 95h88c27 -104 -31 -194 -139 -194s-208 105 -288 105c-55 0 -66 -50 -52 -92h-88z" />
    <glyph glyph-name="AE" unicode="&#xc6;" horiz-adv-x="1823" 
d="M40 0l510 1440h1173v-112h-775v-547h655v-112h-655v-557h775v-112h-890v362h-543l-128 -362h-122zM328 471h505v857h-202z" />
    <glyph glyph-name="B" unicode="B" horiz-adv-x="1214" 
d="M140 0v1440h551c225 0 394 -156 394 -362c0 -132 -69 -251 -177 -312c153 -67 248 -195 248 -370c0 -248 -179 -396 -423 -396h-593zM256 113h439c192 0 338 102 338 278c0 174 -134 311 -305 311h-472v-589zM256 813h434c151 0 274 114 274 269c0 148 -118 247 -274 247
h-434v-516z" />
    <glyph glyph-name="C" unicode="C" horiz-adv-x="1415" 
d="M715 -30c-431 0 -655 309 -655 750s224 750 655 750c335 0 545 -188 620 -478l-119 -29c-62 241 -230 394 -501 394c-354 0 -529 -262 -532 -637c-4 -375 178 -637 532 -637c271 0 439 153 501 394l119 -29c-75 -290 -285 -478 -620 -478z" />
    <glyph glyph-name="Cacute" unicode="&#x106;" horiz-adv-x="1415" 
d="M715 -30c-431 0 -655 309 -655 750s224 750 655 750c335 0 545 -188 620 -478l-119 -29c-62 241 -230 394 -501 394c-354 0 -529 -262 -532 -637c-4 -375 178 -637 532 -637c271 0 439 153 501 394l119 -29c-75 -290 -285 -478 -620 -478zM671 1615l108 290h107
l-108 -290h-107z" />
    <glyph glyph-name="Ccaron" unicode="&#x10c;" horiz-adv-x="1415" 
d="M715 -30c-431 0 -655 309 -655 750s224 750 655 750c335 0 545 -188 620 -478l-119 -29c-62 241 -230 394 -501 394c-354 0 -529 -262 -532 -637c-4 -375 178 -637 532 -637c271 0 439 153 501 394l119 -29c-75 -290 -285 -478 -620 -478zM493 1870h125l146 -172l147 172
h125l-215 -255h-114z" />
    <glyph glyph-name="Ccedilla" unicode="&#xc7;" horiz-adv-x="1415" 
d="M703 -479c-46 0 -87 13 -124 30l33 87c29 -11 59 -18 82 -18c56 0 87 42 87 86c0 64 -66 84 -133 106l58 158c-425 4 -646 312 -646 750c0 441 224 750 655 750c335 0 545 -188 620 -478l-119 -29c-62 241 -230 394 -501 394c-354 0 -529 -262 -532 -637
c-4 -375 178 -637 532 -637c271 0 439 153 501 394l119 -29c-68 -264 -248 -443 -532 -473l-38 -105c70 -30 120 -83 120 -169c0 -102 -83 -180 -182 -180z" />
    <glyph glyph-name="Ccircumflex" unicode="&#x108;" horiz-adv-x="1415" 
d="M715 -30c-431 0 -655 309 -655 750s224 750 655 750c335 0 545 -188 620 -478l-119 -29c-62 241 -230 394 -501 394c-354 0 -529 -262 -532 -637c-4 -375 178 -637 532 -637c271 0 439 153 501 394l119 -29c-75 -290 -285 -478 -620 -478zM444 1615l214 255h114l215 -255
h-125l-147 172l-146 -172h-125z" />
    <glyph glyph-name="Cdotaccent" unicode="&#x10a;" horiz-adv-x="1415" 
d="M715 -30c-431 0 -655 309 -655 750s224 750 655 750c335 0 545 -188 620 -478l-119 -29c-62 241 -230 394 -501 394c-354 0 -529 -262 -532 -637c-4 -375 178 -637 532 -637c271 0 439 153 501 394l119 -29c-75 -290 -285 -478 -620 -478zM660 1675v145h145v-145h-145z
" />
    <glyph glyph-name="D" unicode="D" horiz-adv-x="1323" 
d="M140 0v1440h429c32 0 120 0 189 -10c323 -45 482 -342 482 -710c0 -369 -159 -665 -482 -710c-68 -10 -158 -10 -189 -10h-429zM261 113h308c60 0 130 3 175 11c268 47 373 288 373 596c0 309 -106 550 -373 596c-45 8 -119 11 -175 11h-308v-1214z" />
    <glyph glyph-name="Eth" unicode="&#xd0;" horiz-adv-x="1306" 
d="M20 668v105h103v667h429c32 0 120 0 189 -10c323 -45 482 -342 482 -710c0 -369 -159 -665 -482 -710c-68 -10 -158 -10 -189 -10h-429v668h-103zM244 113h308c60 0 130 3 175 11c268 47 373 288 373 596c0 309 -106 550 -373 596c-45 8 -119 11 -175 11h-308v-554h391
v-105h-391v-555z" />
    <glyph glyph-name="Dcaron" unicode="&#x10e;" horiz-adv-x="1323" 
d="M140 0v1440h429c32 0 120 0 189 -10c323 -45 482 -342 482 -710c0 -369 -159 -665 -482 -710c-68 -10 -158 -10 -189 -10h-429zM261 113h308c60 0 130 3 175 11c268 47 373 288 373 596c0 309 -106 550 -373 596c-45 8 -119 11 -175 11h-308v-1214zM307 1870h125
l146 -172l147 172h125l-215 -255h-114z" />
    <glyph glyph-name="Dcroat" unicode="&#x110;" horiz-adv-x="1306" 
d="M20 668v105h103v667h429c32 0 120 0 189 -10c323 -45 482 -342 482 -710c0 -369 -159 -665 -482 -710c-68 -10 -158 -10 -189 -10h-429v668h-103zM244 113h308c60 0 130 3 175 11c268 47 373 288 373 596c0 309 -106 550 -373 596c-45 8 -119 11 -175 11h-308v-554h391
v-105h-391v-555z" />
    <glyph glyph-name="E" unicode="E" horiz-adv-x="1130" 
d="M140 0v1440h890v-112h-775v-547h655v-112h-655v-557h775v-112h-890z" />
    <glyph glyph-name="Eacute" unicode="&#xc9;" horiz-adv-x="1130" 
d="M140 0v1440h890v-112h-775v-547h655v-112h-655v-557h775v-112h-890zM554 1615l108 290h107l-108 -290h-107z" />
    <glyph glyph-name="Ecaron" unicode="&#x11a;" horiz-adv-x="1130" 
d="M140 0v1440h890v-112h-775v-547h655v-112h-655v-557h775v-112h-890zM320 1870h125l146 -172l147 172h125l-215 -255h-114z" />
    <glyph glyph-name="Ecircumflex" unicode="&#xca;" horiz-adv-x="1130" 
d="M140 0v1440h890v-112h-775v-547h655v-112h-655v-557h775v-112h-890zM303 1615l214 255h114l215 -255h-125l-147 172l-146 -172h-125z" />
    <glyph glyph-name="uni1EBE" unicode="&#x1ebe;" horiz-adv-x="1130" 
d="M140 0v1440h890v-112h-775v-547h655v-112h-655v-557h775v-112h-890zM302 1615l214 255h114l215 -255h-125l-147 172l-146 -172h-125zM815 1825l108 290h107l-108 -290h-107z" />
    <glyph glyph-name="uni1EC6" unicode="&#x1ec6;" horiz-adv-x="1130" 
d="M140 0v1440h890v-112h-775v-547h655v-112h-655v-557h775v-112h-890zM303 1615l214 255h114l215 -255h-125l-147 172l-146 -172h-125zM512 -382v147h145v-147h-145z" />
    <glyph glyph-name="uni1EC0" unicode="&#x1ec0;" horiz-adv-x="1130" 
d="M140 0v1440h890v-112h-775v-547h655v-112h-655v-557h775v-112h-890zM348 1615l214 255h114l215 -255h-125l-147 172l-146 -172h-125zM745 2115h107l108 -290h-107z" />
    <glyph glyph-name="uni1EC2" unicode="&#x1ec2;" horiz-adv-x="1200" 
d="M321 1615l214 255h114l215 -255h-125l-147 172l-146 -172h-125zM140 0v1440h890v-112h-775v-547h655v-112h-655v-557h775v-112h-890zM828 1887c70 77 197 99 267 -6c68 -106 -1 -228 -104 -274l-51 59c83 41 114 108 81 163c-34 57 -102 40 -150 -5z" />
    <glyph glyph-name="uni1EC4" unicode="&#x1ec4;" horiz-adv-x="1130" 
d="M140 0v1440h890v-112h-775v-547h655v-112h-655v-557h775v-112h-890zM303 1933c-27 106 33 191 137 191c110 0 210 -105 290 -105c48 0 68 45 52 95h88c27 -104 -31 -194 -139 -194s-208 105 -288 105c-55 0 -66 -50 -52 -92h-88zM309 1615l214 255h114l215 -255h-125
l-147 172l-146 -172h-125z" />
    <glyph glyph-name="Edieresis" unicode="&#xcb;" horiz-adv-x="1130" 
d="M140 0v1440h890v-112h-775v-547h655v-112h-655v-557h775v-112h-890zM304 1665v140h140v-140h-140zM675 1665v140h140v-140h-140z" />
    <glyph glyph-name="Edotaccent" unicode="&#x116;" horiz-adv-x="1130" 
d="M140 0v1440h890v-112h-775v-547h655v-112h-655v-557h775v-112h-890zM520 1675v145h145v-145h-145z" />
    <glyph glyph-name="uni1EB8" unicode="&#x1eb8;" horiz-adv-x="1200" 
d="M512 -382v147h145v-147h-145zM140 0v1440h890v-112h-775v-547h655v-112h-655v-557h775v-112h-890z" />
    <glyph glyph-name="Egrave" unicode="&#xc8;" horiz-adv-x="1130" 
d="M140 0v1440h890v-112h-775v-547h655v-112h-655v-557h775v-112h-890zM458 1905h107l108 -290h-107z" />
    <glyph glyph-name="uni1EBA" unicode="&#x1eba;" horiz-adv-x="1130" 
d="M140 0v1440h890v-112h-775v-547h655v-112h-655v-557h775v-112h-890zM441 1887c70 77 197 99 267 -6c68 -106 -1 -228 -104 -274l-51 59c83 41 114 108 81 163c-34 57 -102 40 -150 -5z" />
    <glyph glyph-name="Emacron" unicode="&#x112;" horiz-adv-x="1130" 
d="M140 0v1440h890v-112h-775v-547h655v-112h-655v-557h775v-112h-890zM341 1680v105h491v-105h-491z" />
    <glyph glyph-name="Eogonek" unicode="&#x118;" horiz-adv-x="1130" 
d="M140 0v1440h890v-112h-775v-547h655v-112h-655v-557h775v-112c-122 -77 -228 -200 -228 -292c0 -54 38 -91 82 -91c33 0 69 21 98 53l57 -67c-45 -58 -104 -86 -162 -86c-100 0 -183 88 -183 188c0 96 71 203 170 295h-724z" />
    <glyph glyph-name="uni1EBC" unicode="&#x1ebc;" horiz-adv-x="1130" 
d="M140 0v1440h890v-112h-775v-547h655v-112h-655v-557h775v-112h-890zM298 1629c-27 106 33 191 137 191c110 0 210 -105 290 -105c48 0 68 45 52 95h88c27 -104 -31 -194 -139 -194s-208 105 -288 105c-55 0 -66 -50 -52 -92h-88z" />
    <glyph glyph-name="F" unicode="F" horiz-adv-x="993" 
d="M140 0v1440h813v-115h-698v-547h578v-116h-578v-662h-115z" />
    <glyph glyph-name="G" unicode="G" horiz-adv-x="1392" 
d="M712 -30c-419 0 -652 302 -652 750c0 446 231 748 652 748c290 0 479 -148 556 -370l-114 -35c-67 178 -220 292 -439 293c-354 0 -529 -261 -532 -636s178 -637 532 -637c339 -1 486 213 493 539h-358v105h478c4 -35 4 -70 4 -86c0 -382 -196 -671 -620 -671z" />
    <glyph glyph-name="Gbreve" unicode="&#x11e;" horiz-adv-x="1392" 
d="M712 -30c-419 0 -652 302 -652 750c0 446 231 748 652 748c290 0 479 -148 556 -370l-114 -35c-67 178 -220 292 -439 293c-354 0 -529 -261 -532 -636s178 -637 532 -637c339 -1 486 213 493 539h-358v105h478c4 -35 4 -70 4 -86c0 -382 -196 -671 -620 -671zM474 1813
h100c0 -78 65 -143 143 -143c80 0 143 65 143 143h100c0 -134 -109 -243 -243 -243s-243 109 -243 243z" />
    <glyph glyph-name="Gcircumflex" unicode="&#x11c;" horiz-adv-x="1392" 
d="M712 -30c-419 0 -652 302 -652 750c0 446 231 748 652 748c290 0 479 -148 556 -370l-114 -35c-67 178 -220 292 -439 293c-354 0 -529 -261 -532 -636s178 -637 532 -637c339 -1 486 213 493 539h-358v105h478c4 -35 4 -70 4 -86c0 -382 -196 -671 -620 -671zM423 1615
l214 255h114l215 -255h-125l-147 172l-146 -172h-125z" />
    <glyph glyph-name="uni0122" unicode="&#x122;" horiz-adv-x="1392" 
d="M712 -30c-419 0 -652 302 -652 750c0 446 231 748 652 748c290 0 479 -148 556 -370l-114 -35c-67 178 -220 292 -439 293c-354 0 -529 -261 -532 -636s178 -637 532 -637c339 -1 486 213 493 539h-358v105h478c4 -35 4 -70 4 -86c0 -382 -196 -671 -620 -671zM649 -530
v69c22 0 80 18 75 83h-75v143h143v-143c0 -107 -78 -152 -143 -152z" />
    <glyph glyph-name="Gdotaccent" unicode="&#x120;" horiz-adv-x="1392" 
d="M712 -30c-419 0 -652 302 -652 750c0 446 231 748 652 748c290 0 479 -148 556 -370l-114 -35c-67 178 -220 292 -439 293c-354 0 -529 -261 -532 -636s178 -637 532 -637c339 -1 486 213 493 539h-358v105h478c4 -35 4 -70 4 -86c0 -382 -196 -671 -620 -671zM659 1675
v145h145v-145h-145z" />
    <glyph glyph-name="H" unicode="H" horiz-adv-x="1345" 
d="M140 0v1440h115v-664h834v664h116v-1440h-116v664h-834v-664h-115z" />
    <glyph glyph-name="Hbar" unicode="&#x126;" horiz-adv-x="1385" 
d="M160 0v995h-140v112h140v333h115v-333h834v333h116v-333h140v-112h-140v-995h-116v664h-834v-664h-115zM275 776h834v219h-834v-219z" />
    <glyph glyph-name="Hcircumflex" unicode="&#x124;" horiz-adv-x="1345" 
d="M140 0v1440h115v-664h834v664h116v-1440h-116v664h-834v-664h-115zM400 1615l214 255h114l215 -255h-125l-147 172l-146 -172h-125z" />
    <glyph glyph-name="I" unicode="I" horiz-adv-x="435" 
d="M160 0v1440h115v-1440h-115z" />
    <glyph glyph-name="Iacute" unicode="&#xcd;" horiz-adv-x="435" 
d="M160 0v1440h115v-1440h-115zM166 1615l108 290h107l-108 -290h-107z" />
    <glyph glyph-name="Icircumflex" unicode="&#xce;" horiz-adv-x="435" 
d="M160 0v1440h115v-1440h-115zM-54 1615l214 255h114l215 -255h-125l-147 172l-146 -172h-125z" />
    <glyph glyph-name="Idieresis" unicode="&#xcf;" horiz-adv-x="435" 
d="M160 0v1440h115v-1440h-115zM-38 1665v140h140v-140h-140zM333 1665v140h140v-140h-140z" />
    <glyph glyph-name="Idotaccent" unicode="&#x130;" horiz-adv-x="435" 
d="M160 0v1440h115v-1440h-115zM145 1675v145h145v-145h-145z" />
    <glyph glyph-name="uni1ECA" unicode="&#x1eca;" horiz-adv-x="435" 
d="M160 0v1440h115v-1440h-115zM145 -382v147h145v-147h-145z" />
    <glyph glyph-name="Igrave" unicode="&#xcc;" horiz-adv-x="435" 
d="M160 0v1440h115v-1440h-115zM54 1905h107l108 -290h-107z" />
    <glyph glyph-name="uni1EC8" unicode="&#x1ec8;" horiz-adv-x="435" 
d="M160 0v1440h115v-1440h-115zM59 1887c70 77 197 99 267 -6c68 -106 -1 -228 -104 -274l-51 59c83 41 114 108 81 163c-34 57 -102 40 -150 -5z" />
    <glyph glyph-name="Imacron" unicode="&#x12a;" horiz-adv-x="435" 
d="M160 0v1440h115v-1440h-115zM-28 1680v105h491v-105h-491z" />
    <glyph glyph-name="Iogonek" unicode="&#x12e;" horiz-adv-x="435" 
d="M122 -483c-100 0 -183 88 -183 188c0 111 96 239 221 339v1396h115v-1440c-122 -77 -228 -200 -228 -292c0 -54 38 -91 82 -91c33 0 69 21 98 53l57 -67c-45 -58 -104 -86 -162 -86z" />
    <glyph glyph-name="Itilde" unicode="&#x128;" horiz-adv-x="435" 
d="M160 0v1440h115v-1440h-115zM-66 1629c-27 106 33 191 137 191c110 0 210 -105 290 -105c48 0 68 45 52 95h88c27 -104 -31 -194 -139 -194s-208 105 -288 105c-55 0 -66 -50 -52 -92h-88z" />
    <glyph glyph-name="J" unicode="J" horiz-adv-x="903" 
d="M372 -28c-183 0 -328 112 -372 286l116 27c27 -114 128 -201 257 -201c80 0 172 34 219 123c33 61 33 127 33 226v1007h116v-1007c0 -114 5 -197 -46 -286c-67 -117 -187 -175 -323 -175z" />
    <glyph glyph-name="Jcircumflex" unicode="&#x134;" horiz-adv-x="903" 
d="M372 -28c-183 0 -328 112 -372 286l116 27c27 -114 128 -201 257 -201c80 0 172 34 219 123c33 61 33 127 33 226v1007h116v-1007c0 -114 5 -197 -46 -286c-67 -117 -187 -175 -323 -175zM411 1615l214 255h114l215 -255h-125l-147 172l-146 -172h-125z" />
    <glyph glyph-name="K" unicode="K" horiz-adv-x="1152" 
d="M140 0v1440h115v-684l685 684h152l-689 -692l749 -748h-154l-743 736v-736h-115z" />
    <glyph glyph-name="uni0136" unicode="&#x136;" horiz-adv-x="1152" 
d="M140 0v1440h115v-684l685 684h152l-689 -692l749 -748h-154l-743 736v-736h-115zM534 -530v69c22 0 80 18 75 83h-75v143h143v-143c0 -107 -78 -152 -143 -152z" />
    <glyph glyph-name="L" unicode="L" horiz-adv-x="1005" 
d="M160 0v1440h115v-1328h700v-112h-815z" />
    <glyph glyph-name="Lacute" unicode="&#x139;" horiz-adv-x="1005" 
d="M160 0v1440h115v-1328h700v-112h-815zM166 1615l108 290h107l-108 -290h-107z" />
    <glyph glyph-name="Lcaron" unicode="&#x13d;" horiz-adv-x="1005" 
d="M160 0v1440h115v-1328h700v-112h-815zM614 1255l108 290h107l-108 -290h-107z" />
    <glyph glyph-name="uni013B" unicode="&#x13b;" horiz-adv-x="1005" 
d="M160 0v1440h115v-1328h700v-112h-815zM496 -530v69c22 0 80 18 75 83h-75v143h143v-143c0 -107 -78 -152 -143 -152z" />
    <glyph glyph-name="Lslash" unicode="&#x141;" horiz-adv-x="1012" 
d="M167 0v473l-76 -44v132l76 44v835h115v-770l368 211v-130l-368 -212v-427h700v-112h-815z" />
    <glyph glyph-name="M" unicode="M" horiz-adv-x="1672" 
d="M140 0v1440h107l590 -1274l584 1274h111v-1438h-113v1173l-536 -1175h-94l-537 1175v-1175h-112z" />
    <glyph glyph-name="N" unicode="N" horiz-adv-x="1346" 
d="M140 0v1440h116l834 -1235v1235h116v-1440h-116l-834 1237v-1237h-116z" />
    <glyph glyph-name="Nacute" unicode="&#x143;" horiz-adv-x="1346" 
d="M140 0v1440h116l834 -1235v1235h116v-1440h-116l-834 1237v-1237h-116zM640 1615l108 290h107l-108 -290h-107z" />
    <glyph glyph-name="Ncaron" unicode="&#x147;" horiz-adv-x="1346" 
d="M140 0v1440h116l834 -1235v1235h116v-1440h-116l-834 1237v-1237h-116zM428 1870h125l146 -172l147 172h125l-215 -255h-114z" />
    <glyph glyph-name="uni0145" unicode="&#x145;" horiz-adv-x="1346" 
d="M140 0v1440h116l834 -1235v1235h116v-1440h-116l-834 1237v-1237h-116zM622 -530v69c22 0 80 18 75 83h-75v143h143v-143c0 -107 -78 -152 -143 -152z" />
    <glyph glyph-name="Ntilde" unicode="&#xd1;" horiz-adv-x="1346" 
d="M140 0v1440h116l834 -1235v1235h116v-1440h-116l-834 1237v-1237h-116zM417 1629c-27 106 33 191 137 191c110 0 210 -105 290 -105c48 0 68 45 52 95h88c27 -104 -31 -194 -139 -194s-208 105 -288 105c-55 0 -66 -50 -52 -92h-88z" />
    <glyph glyph-name="Eng" unicode="&#x14a;" horiz-adv-x="1346" 
d="M1090 1440h116v-1628c0 -130 -54 -190 -176 -190c-31 0 -59 3 -95 12v101c26 -4 45 -6 62 -6c77 0 102 35 102 153c0 70 -16 127 -55 187l-788 1168v-1237h-116v1440h116l834 -1235v1235z" />
    <glyph glyph-name="O" unicode="O" horiz-adv-x="1429" 
d="M715 -30c-431 0 -655 309 -655 750s224 750 655 750c430 0 654 -309 654 -750s-224 -750 -654 -750zM183 720c-3 -375 178 -637 532 -637c354 -1 531 262 531 637s-177 637 -531 637c-354 1 -529 -262 -532 -637z" />
    <glyph glyph-name="Oacute" unicode="&#xd3;" horiz-adv-x="1429" 
d="M715 -30c-431 0 -655 309 -655 750s224 750 655 750c430 0 654 -309 654 -750s-224 -750 -654 -750zM183 720c-3 -375 178 -637 532 -637c354 -1 531 262 531 637s-177 637 -531 637c-354 1 -529 -262 -532 -637zM681 1615l108 290h107l-108 -290h-107z" />
    <glyph glyph-name="Ocircumflex" unicode="&#xd4;" horiz-adv-x="1429" 
d="M715 -30c-431 0 -655 309 -655 750s224 750 655 750c430 0 654 -309 654 -750s-224 -750 -654 -750zM183 720c-3 -375 178 -637 532 -637c354 -1 531 262 531 637s-177 637 -531 637c-354 1 -529 -262 -532 -637zM443 1615l214 255h114l215 -255h-125l-147 172l-146 -172
h-125z" />
    <glyph glyph-name="uni1ED0" unicode="&#x1ed0;" horiz-adv-x="1429" 
d="M715 -30c-431 0 -655 309 -655 750s224 750 655 750c430 0 654 -309 654 -750s-224 -750 -654 -750zM183 720c-3 -375 178 -637 532 -637c354 -1 531 262 531 637s-177 637 -531 637c-354 1 -529 -262 -532 -637zM454 1615l214 255h114l215 -255h-125l-147 172l-146 -172
h-125zM967 1825l108 290h107l-108 -290h-107z" />
    <glyph glyph-name="uni1ED8" unicode="&#x1ed8;" horiz-adv-x="1429" 
d="M715 -30c-431 0 -655 309 -655 750s224 750 655 750c430 0 654 -309 654 -750s-224 -750 -654 -750zM183 720c-3 -375 178 -637 532 -637c354 -1 531 262 531 637s-177 637 -531 637c-354 1 -529 -262 -532 -637zM443 1615l214 255h114l215 -255h-125l-147 172l-146 -172
h-125zM642 -382v147h145v-147h-145z" />
    <glyph glyph-name="uni1ED2" unicode="&#x1ed2;" horiz-adv-x="1429" 
d="M715 -30c-431 0 -655 309 -655 750s224 750 655 750c430 0 654 -309 654 -750s-224 -750 -654 -750zM183 720c-3 -375 178 -637 532 -637c354 -1 531 262 531 637s-177 637 -531 637c-354 1 -529 -262 -532 -637zM444 1615l214 255h114l215 -255h-125l-147 172l-146 -172
h-125zM840 2115h107l108 -290h-107z" />
    <glyph glyph-name="uni1ED4" unicode="&#x1ed4;" horiz-adv-x="1429" 
d="M715 -30c-431 0 -655 309 -655 750s224 750 655 750c430 0 654 -309 654 -750s-224 -750 -654 -750zM183 720c-3 -375 178 -637 532 -637c354 -1 531 262 531 637s-177 637 -531 637c-354 1 -529 -262 -532 -637zM473 1615l214 255h114l215 -255h-125l-147 172l-146 -172
h-125zM981 1887c70 77 197 99 267 -6c68 -106 -1 -228 -104 -274l-51 59c83 41 114 108 81 163c-34 57 -102 40 -150 -5z" />
    <glyph glyph-name="uni1ED6" unicode="&#x1ed6;" horiz-adv-x="1429" 
d="M715 -30c-431 0 -655 309 -655 750s224 750 655 750c430 0 654 -309 654 -750s-224 -750 -654 -750zM183 720c-3 -375 178 -637 532 -637c354 -1 531 262 531 637s-177 637 -531 637c-354 1 -529 -262 -532 -637zM431 1933c-27 106 33 191 137 191
c110 0 210 -105 290 -105c48 0 68 45 52 95h88c27 -104 -31 -194 -139 -194s-208 105 -288 105c-55 0 -66 -50 -52 -92h-88zM437 1615l214 255h114l215 -255h-125l-147 172l-146 -172h-125z" />
    <glyph glyph-name="Odieresis" unicode="&#xd6;" horiz-adv-x="1429" 
d="M715 -30c-431 0 -655 309 -655 750s224 750 655 750c430 0 654 -309 654 -750s-224 -750 -654 -750zM183 720c-3 -375 178 -637 532 -637c354 -1 531 262 531 637s-177 637 -531 637c-354 1 -529 -262 -532 -637zM459 1665v140h140v-140h-140zM830 1665v140h140v-140
h-140z" />
    <glyph glyph-name="uni1ECC" unicode="&#x1ecc;" horiz-adv-x="1429" 
d="M715 -30c-431 0 -655 309 -655 750s224 750 655 750c430 0 654 -309 654 -750s-224 -750 -654 -750zM183 720c-3 -375 178 -637 532 -637c354 -1 531 262 531 637s-177 637 -531 637c-354 1 -529 -262 -532 -637zM622 -382v147h145v-147h-145z" />
    <glyph glyph-name="Ograve" unicode="&#xd2;" horiz-adv-x="1429" 
d="M715 -30c-431 0 -655 309 -655 750s224 750 655 750c430 0 654 -309 654 -750s-224 -750 -654 -750zM183 720c-3 -375 178 -637 532 -637c354 -1 531 262 531 637s-177 637 -531 637c-354 1 -529 -262 -532 -637zM555 1905h107l108 -290h-107z" />
    <glyph glyph-name="uni1ECE" unicode="&#x1ece;" horiz-adv-x="1429" 
d="M715 -30c-431 0 -655 309 -655 750s224 750 655 750c430 0 654 -309 654 -750s-224 -750 -654 -750zM183 720c-3 -375 178 -637 532 -637c354 -1 531 262 531 637s-177 637 -531 637c-354 1 -529 -262 -532 -637zM594 1887c70 77 197 99 267 -6
c68 -106 -1 -228 -104 -274l-51 59c83 41 114 108 81 163c-34 57 -102 40 -150 -5z" />
    <glyph glyph-name="Ohorn" unicode="&#x1a0;" horiz-adv-x="1429" 
d="M715 -30c-431 0 -655 309 -655 750s224 750 655 750c67 0 128 -7 185 -22v1c69 -20 110 -20 151 0c73 36 77 103 69 176h104c15 -97 6 -184 -69 -236c-17 -11 -38 -21 -61 -28c182 -127 275 -356 275 -641c0 -441 -224 -750 -654 -750zM183 720
c-3 -375 178 -637 532 -637c354 -1 531 262 531 637s-177 637 -531 637c-354 1 -529 -262 -532 -637z" />
    <glyph glyph-name="uni1EDA" unicode="&#x1eda;" horiz-adv-x="1429" 
d="M1224 1625c15 -97 6 -184 -69 -236c-17 -11 -38 -21 -61 -28c182 -127 275 -356 275 -641c0 -441 -224 -750 -654 -750c-431 0 -655 309 -655 750s224 750 655 750c67 0 128 -7 185 -22v1c69 -20 110 -20 151 0c73 36 77 103 69 176h104zM183 720
c-3 -375 178 -637 532 -637c354 -1 531 262 531 637s-177 637 -531 637c-354 1 -529 -262 -532 -637zM681 1615l108 290h107l-108 -290h-107z" />
    <glyph glyph-name="uni1EE2" unicode="&#x1ee2;" horiz-adv-x="1429" 
d="M715 -30c-431 0 -655 309 -655 750s224 750 655 750c67 0 128 -7 185 -22v1c69 -20 110 -20 151 0c73 36 77 103 69 176h104c15 -97 6 -184 -69 -236c-17 -11 -38 -21 -61 -28c182 -127 275 -356 275 -641c0 -441 -224 -750 -654 -750zM183 720
c-3 -375 178 -637 532 -637c354 -1 531 262 531 637s-177 637 -531 637c-354 1 -529 -262 -532 -637zM646 -382v147h145v-147h-145z" />
    <glyph glyph-name="uni1EDC" unicode="&#x1edc;" horiz-adv-x="1429" 
d="M1224 1625c15 -97 6 -184 -69 -236c-17 -11 -38 -21 -61 -28c182 -127 275 -356 275 -641c0 -441 -224 -750 -654 -750c-431 0 -655 309 -655 750s224 750 655 750c67 0 128 -7 185 -22v1c69 -20 110 -20 151 0c73 36 77 103 69 176h104zM183 720
c-3 -375 178 -637 532 -637c354 -1 531 262 531 637s-177 637 -531 637c-354 1 -529 -262 -532 -637zM555 1905h107l108 -290h-107z" />
    <glyph glyph-name="uni1EDE" unicode="&#x1ede;" horiz-adv-x="1429" 
d="M715 -30c-431 0 -655 309 -655 750s224 750 655 750c67 0 128 -7 185 -22v1c69 -20 110 -20 151 0c73 36 77 103 69 176h104c15 -97 6 -184 -69 -236c-17 -11 -38 -21 -61 -28c182 -127 275 -356 275 -641c0 -441 -224 -750 -654 -750zM183 720
c-3 -375 178 -637 532 -637c354 -1 531 262 531 637s-177 637 -531 637c-354 1 -529 -262 -532 -637zM594 1887c70 77 197 99 267 -6c68 -106 -1 -228 -104 -274l-51 59c83 41 114 108 81 163c-34 57 -102 40 -150 -5z" />
    <glyph glyph-name="uni1EE0" unicode="&#x1ee0;" horiz-adv-x="1429" 
d="M715 -30c-431 0 -655 309 -655 750s224 750 655 750c67 0 128 -7 185 -22v1c69 -20 110 -20 151 0c73 36 77 103 69 176h104c15 -97 6 -184 -69 -236c-17 -11 -38 -21 -61 -28c182 -127 275 -356 275 -641c0 -441 -224 -750 -654 -750zM183 720
c-3 -375 178 -637 532 -637c354 -1 531 262 531 637s-177 637 -531 637c-354 1 -529 -262 -532 -637zM431 1629c-27 106 33 191 137 191c110 0 210 -105 290 -105c48 0 68 45 52 95h88c27 -104 -31 -194 -139 -194s-208 105 -288 105c-55 0 -66 -50 -52 -92h-88z" />
    <glyph glyph-name="Ohungarumlaut" unicode="&#x150;" horiz-adv-x="1429" 
d="M715 -30c-431 0 -655 309 -655 750s224 750 655 750c430 0 654 -309 654 -750s-224 -750 -654 -750zM183 720c-3 -375 178 -637 532 -637c354 -1 531 262 531 637s-177 637 -531 637c-354 1 -529 -262 -532 -637zM478 1615l108 290h107l-108 -290h-107zM841 1615l108 290
h107l-108 -290h-107z" />
    <glyph glyph-name="Omacron" unicode="&#x14c;" horiz-adv-x="1429" 
d="M715 -30c-431 0 -655 309 -655 750s224 750 655 750c430 0 654 -309 654 -750s-224 -750 -654 -750zM183 720c-3 -375 178 -637 532 -637c354 -1 531 262 531 637s-177 637 -531 637c-354 1 -529 -262 -532 -637zM469 1680v105h491v-105h-491z" />
    <glyph glyph-name="Oslash" unicode="&#xd8;" horiz-adv-x="1429" 
d="M108 -26l-84 77l165 178c-85 128 -129 297 -129 491c0 441 224 750 655 750c198 0 352 -65 461 -179l156 169l83 -74l-169 -185c82 -126 123 -292 123 -481c0 -441 -224 -750 -654 -750c-193 0 -345 62 -453 170zM183 720c-1 -157 30 -293 92 -400l819 882
c-88 98 -214 155 -379 155c-354 1 -529 -262 -532 -637zM343 229c88 -93 213 -146 372 -146c354 -1 531 262 531 637c0 151 -29 284 -87 389z" />
    <glyph glyph-name="Otilde" unicode="&#xd5;" horiz-adv-x="1429" 
d="M715 -30c-431 0 -655 309 -655 750s224 750 655 750c430 0 654 -309 654 -750s-224 -750 -654 -750zM183 720c-3 -375 178 -637 532 -637c354 -1 531 262 531 637s-177 637 -531 637c-354 1 -529 -262 -532 -637zM447 1629c-27 106 33 191 137 191
c110 0 210 -105 290 -105c48 0 68 45 52 95h88c27 -104 -31 -194 -139 -194s-208 105 -288 105c-55 0 -66 -50 -52 -92h-88z" />
    <glyph glyph-name="OE" unicode="&#x152;" horiz-adv-x="2244" 
d="M715 -30c-431 0 -655 309 -655 750s224 750 655 750c251 0 432 -105 539 -281v251h890v-112h-775v-547h655v-112h-655v-557h775v-112h-890v251c-107 -176 -288 -281 -539 -281zM183 720c-3 -375 178 -637 532 -637c354 -1 531 262 531 637s-177 637 -531 637
c-354 1 -529 -262 -532 -637z" />
    <glyph glyph-name="P" unicode="P" horiz-adv-x="1185" 
d="M140 0v1440h543c28 0 60 -2 97 -8c216 -33 345 -211 345 -431c0 -221 -129 -398 -345 -432c-37 -6 -69 -8 -97 -8h-428v-561h-115zM255 674h426c23 0 57 2 89 8c156 32 234 171 234 319s-78 287 -234 318c-32 7 -66 9 -89 9h-426v-654z" />
    <glyph glyph-name="Thorn" unicode="&#xde;" horiz-adv-x="1166" 
d="M140 0v1440h116v-281h409c52 0 104 -9 153 -28c59 -22 115 -59 158 -104c82 -80 129 -194 130 -307c0 -107 -43 -210 -111 -289c-79 -92 -205 -150 -330 -150h-409v-281h-116zM256 393h409c91 0 184 46 244 118c48 58 78 133 76 209c-2 87 -37 171 -97 232
c-57 57 -142 95 -223 95h-409v-654z" />
    <glyph glyph-name="Q" unicode="Q" horiz-adv-x="1429" 
d="M1273 -28l-139 138c-105 -89 -245 -140 -419 -140c-431 0 -655 309 -655 750s224 750 655 750c430 0 654 -309 654 -750c0 -213 -52 -394 -154 -526l139 -139zM183 720c-3 -375 178 -637 532 -637c139 0 250 40 335 111l-152 151l83 83l147 -147c79 111 118 262 118 439
c0 375 -177 637 -531 637c-354 1 -529 -262 -532 -637z" />
    <glyph glyph-name="R" unicode="R" horiz-adv-x="1242" 
d="M140 0v1440h543c28 0 60 -2 97 -8c216 -33 345 -211 345 -431c0 -187 -92 -343 -253 -406l290 -595h-135l-272 561h-500v-561h-115zM255 674h426c23 0 57 2 89 8c156 32 234 171 234 319s-78 287 -234 318c-32 7 -66 9 -89 9h-426v-654z" />
    <glyph glyph-name="Racute" unicode="&#x154;" horiz-adv-x="1242" 
d="M140 0v1440h543c28 0 60 -2 97 -8c216 -33 345 -211 345 -431c0 -187 -92 -343 -253 -406l290 -595h-135l-272 561h-500v-561h-115zM255 674h426c23 0 57 2 89 8c156 32 234 171 234 319s-78 287 -234 318c-32 7 -66 9 -89 9h-426v-654zM511 1615l108 290h107l-108 -290
h-107z" />
    <glyph glyph-name="Rcaron" unicode="&#x158;" horiz-adv-x="1242" 
d="M140 0v1440h543c28 0 60 -2 97 -8c216 -33 345 -211 345 -431c0 -187 -92 -343 -253 -406l290 -595h-135l-272 561h-500v-561h-115zM255 674h426c23 0 57 2 89 8c156 32 234 171 234 319s-78 287 -234 318c-32 7 -66 9 -89 9h-426v-654zM292 1870h125l146 -172l147 172
h125l-215 -255h-114z" />
    <glyph glyph-name="uni0156" unicode="&#x156;" horiz-adv-x="1242" 
d="M140 0v1440h543c28 0 60 -2 97 -8c216 -33 345 -211 345 -431c0 -187 -92 -343 -253 -406l290 -595h-135l-272 561h-500v-561h-115zM255 674h426c23 0 57 2 89 8c156 32 234 171 234 319s-78 287 -234 318c-32 7 -66 9 -89 9h-426v-654zM532 -530v69c22 0 80 18 75 83
h-75v143h143v-143c0 -107 -78 -152 -143 -152z" />
    <glyph glyph-name="S" unicode="S" horiz-adv-x="1205" 
d="M629 -30c-297 0 -515 155 -566 402l118 20c50 -193 223 -310 451 -310c232 0 394 118 394 299c0 172 -145 227 -242 256l-362 108c-192 57 -303 166 -303 338c0 232 201 387 482 387c284 -1 492 -164 534 -421l-119 -21c-29 198 -198 329 -416 329
c-210 1 -358 -116 -358 -270c0 -159 155 -212 272 -246l290 -86c110 -32 338 -102 338 -370c0 -259 -211 -415 -513 -415z" />
    <glyph glyph-name="Sacute" unicode="&#x15a;" horiz-adv-x="1205" 
d="M629 -30c-297 0 -515 155 -566 402l118 20c50 -193 223 -310 451 -310c232 0 394 118 394 299c0 172 -145 227 -242 256l-362 108c-192 57 -303 166 -303 338c0 232 201 387 482 387c284 -1 492 -164 534 -421l-119 -21c-29 198 -198 329 -416 329
c-210 1 -358 -116 -358 -270c0 -159 155 -212 272 -246l290 -86c110 -32 338 -102 338 -370c0 -259 -211 -415 -513 -415zM557 1615l108 290h107l-108 -290h-107z" />
    <glyph glyph-name="Scaron" unicode="&#x160;" horiz-adv-x="1205" 
d="M629 -30c-297 0 -515 155 -566 402l118 20c50 -193 223 -310 451 -310c232 0 394 118 394 299c0 172 -145 227 -242 256l-362 108c-192 57 -303 166 -303 338c0 232 201 387 482 387c284 -1 492 -164 534 -421l-119 -21c-29 198 -198 329 -416 329
c-210 1 -358 -116 -358 -270c0 -159 155 -212 272 -246l290 -86c110 -32 338 -102 338 -370c0 -259 -211 -415 -513 -415zM358 1870h125l146 -172l147 172h125l-215 -255h-114z" />
    <glyph glyph-name="Scedilla" unicode="&#x15e;" horiz-adv-x="1205" 
d="M591 -479c-46 0 -87 13 -124 30l33 87c29 -11 59 -18 82 -18c56 0 87 42 87 86c0 64 -66 84 -133 106l58 159c-279 11 -482 164 -531 401l118 20c50 -193 223 -310 451 -310c232 0 394 118 394 299c0 172 -145 227 -242 256l-362 108c-192 57 -303 166 -303 338
c0 232 201 387 482 387c284 -1 492 -164 534 -421l-119 -21c-29 198 -198 329 -416 329c-210 1 -358 -116 -358 -270c0 -159 155 -212 272 -246l290 -86c110 -32 338 -102 338 -370c0 -241 -183 -393 -452 -413l-37 -102c70 -30 120 -83 120 -169c0 -102 -83 -180 -182 -180
z" />
    <glyph glyph-name="Scircumflex" unicode="&#x15c;" horiz-adv-x="1205" 
d="M629 -30c-297 0 -515 155 -566 402l118 20c50 -193 223 -310 451 -310c232 0 394 118 394 299c0 172 -145 227 -242 256l-362 108c-192 57 -303 166 -303 338c0 232 201 387 482 387c284 -1 492 -164 534 -421l-119 -21c-29 198 -198 329 -416 329
c-210 1 -358 -116 -358 -270c0 -159 155 -212 272 -246l290 -86c110 -32 338 -102 338 -370c0 -259 -211 -415 -513 -415zM347 1615l214 255h114l215 -255h-125l-147 172l-146 -172h-125z" />
    <glyph glyph-name="uni0218" unicode="&#x218;" horiz-adv-x="1205" 
d="M629 -30c-297 0 -515 155 -566 402l118 20c50 -193 223 -310 451 -310c232 0 394 118 394 299c0 172 -145 227 -242 256l-362 108c-192 57 -303 166 -303 338c0 232 201 387 482 387c284 -1 492 -164 534 -421l-119 -21c-29 198 -198 329 -416 329
c-210 1 -358 -116 -358 -270c0 -159 155 -212 272 -246l290 -86c110 -32 338 -102 338 -370c0 -259 -211 -415 -513 -415zM583 -530v69c22 0 80 18 75 83h-75v143h143v-143c0 -107 -78 -152 -143 -152z" />
    <glyph glyph-name="uni1E9E" unicode="&#x1e9e;" horiz-adv-x="1387" 
d="M812 -30c-80 0 -128 12 -185 30v114c66 -20 116 -26 181 -26c192 0 341 110 341 316c0 185 -145 305 -402 313l-8 93l260 452c-65 42 -159 92 -310 92c-233 0 -368 -124 -405 -291c-19 -86 -22 -175 -22 -262v-801h-122v878c0 99 8 170 23 229c71 283 307 363 531 363
c208 0 365 -95 460 -162l-276 -493c187 -20 389 -153 389 -412c0 -271 -171 -433 -455 -433z" />
    <glyph glyph-name="T" unicode="T" horiz-adv-x="1187" 
d="M536 0v1328h-516v112h1147v-112h-516v-1328h-115z" />
    <glyph glyph-name="Tbar" unicode="&#x166;" horiz-adv-x="1187" 
d="M163 662v116h373v550h-516v112h1147v-112h-516v-550h372v-116h-372v-662h-115v662h-373z" />
    <glyph glyph-name="Tcaron" unicode="&#x164;" horiz-adv-x="1187" 
d="M536 0v1328h-516v112h1147v-112h-516v-1328h-115zM321 1870h125l146 -172l147 172h125l-215 -255h-114z" />
    <glyph glyph-name="uni0162" unicode="&#x162;" horiz-adv-x="1187" 
d="M536 0v1328h-516v112h1147v-112h-516v-1328h-11l-52 -142c70 -30 120 -83 120 -169c0 -102 -83 -180 -182 -180c-46 0 -87 13 -124 30l33 87c29 -11 59 -18 82 -18c56 0 87 42 87 86c0 64 -66 84 -133 106l73 200h-8z" />
    <glyph glyph-name="uni021A" unicode="&#x21a;" horiz-adv-x="1187" 
d="M536 0v1328h-516v112h1147v-112h-516v-1328h-115zM522 -530v69c22 0 80 18 75 83h-75v143h143v-143c0 -107 -78 -152 -143 -152z" />
    <glyph glyph-name="U" unicode="U" horiz-adv-x="1392" 
d="M696 -30c-325 0 -556 216 -556 545v925h116v-901c0 -329 251 -460 440 -460s440 132 440 460v901h116v-925c0 -328 -231 -545 -556 -545z" />
    <glyph glyph-name="Uacute" unicode="&#xda;" horiz-adv-x="1392" 
d="M696 -30c-325 0 -556 216 -556 545v925h116v-901c0 -329 251 -460 440 -460s440 132 440 460v901h116v-925c0 -328 -231 -545 -556 -545zM623 1615l108 290h107l-108 -290h-107z" />
    <glyph glyph-name="Ubreve" unicode="&#x16c;" horiz-adv-x="1392" 
d="M696 -30c-325 0 -556 216 -556 545v925h116v-901c0 -329 251 -460 440 -460s440 132 440 460v901h116v-925c0 -328 -231 -545 -556 -545zM453 1813h100c0 -78 65 -143 143 -143c80 0 143 65 143 143h100c0 -134 -109 -243 -243 -243s-243 109 -243 243z" />
    <glyph glyph-name="Ucircumflex" unicode="&#xdb;" horiz-adv-x="1392" 
d="M696 -30c-325 0 -556 216 -556 545v925h116v-901c0 -329 251 -460 440 -460s440 132 440 460v901h116v-925c0 -328 -231 -545 -556 -545zM424 1615l214 255h114l215 -255h-125l-147 172l-146 -172h-125z" />
    <glyph glyph-name="Udieresis" unicode="&#xdc;" horiz-adv-x="1392" 
d="M696 -30c-325 0 -556 216 -556 545v925h116v-901c0 -329 251 -460 440 -460s440 132 440 460v901h116v-925c0 -328 -231 -545 -556 -545zM441 1665v140h140v-140h-140zM812 1665v140h140v-140h-140z" />
    <glyph glyph-name="uni1EE4" unicode="&#x1ee4;" horiz-adv-x="1392" 
d="M696 -30c-325 0 -556 216 -556 545v925h116v-901c0 -329 251 -460 440 -460s440 132 440 460v901h116v-925c0 -328 -231 -545 -556 -545zM630 -382v147h145v-147h-145z" />
    <glyph glyph-name="Ugrave" unicode="&#xd9;" horiz-adv-x="1392" 
d="M696 -30c-325 0 -556 216 -556 545v925h116v-901c0 -329 251 -460 440 -460s440 132 440 460v901h116v-925c0 -328 -231 -545 -556 -545zM557 1905h107l108 -290h-107z" />
    <glyph glyph-name="uni1EE6" unicode="&#x1ee6;" horiz-adv-x="1392" 
d="M696 -30c-325 0 -556 216 -556 545v925h116v-901c0 -329 251 -460 440 -460s440 132 440 460v901h116v-925c0 -328 -231 -545 -556 -545zM560 1887c70 77 197 99 267 -6c68 -106 -1 -228 -104 -274l-51 59c83 41 114 108 81 163c-34 57 -102 40 -150 -5z" />
    <glyph glyph-name="Uhorn" unicode="&#x1af;" horiz-adv-x="1392" 
d="M696 -30c-325 0 -556 216 -556 545v925h116v-901c0 -329 251 -460 440 -460s440 132 440 460v901h23c29 1 61 -1 93 7c87 19 85 99 77 173h104c15 -97 5 -184 -68 -236c-33 -23 -71 -32 -113 -33v-836c0 -328 -231 -545 -556 -545z" />
    <glyph glyph-name="uni1EE8" unicode="&#x1ee8;" horiz-adv-x="1392" 
d="M696 -30c-325 0 -556 216 -556 545v925h116v-901c0 -329 251 -460 440 -460s440 132 440 460v901h23c29 1 61 -1 93 7c87 19 85 99 77 173h104c15 -97 5 -184 -68 -236c-33 -23 -71 -32 -113 -33v-836c0 -328 -231 -545 -556 -545zM623 1615l108 290h107l-108 -290h-107z
" />
    <glyph glyph-name="uni1EF0" unicode="&#x1ef0;" horiz-adv-x="1392" 
d="M696 -30c-325 0 -556 216 -556 545v925h116v-901c0 -329 251 -460 440 -460s440 132 440 460v901h23c29 1 61 -1 93 7c87 19 85 99 77 173h104c15 -97 5 -184 -68 -236c-33 -23 -71 -32 -113 -33v-836c0 -328 -231 -545 -556 -545zM637 -382v147h145v-147h-145z" />
    <glyph glyph-name="uni1EEA" unicode="&#x1eea;" horiz-adv-x="1392" 
d="M696 -30c-325 0 -556 216 -556 545v925h116v-901c0 -329 251 -460 440 -460s440 132 440 460v901h23c29 1 61 -1 93 7c87 19 85 99 77 173h104c15 -97 5 -184 -68 -236c-33 -23 -71 -32 -113 -33v-836c0 -328 -231 -545 -556 -545zM557 1905h107l108 -290h-107z" />
    <glyph glyph-name="uni1EEC" unicode="&#x1eec;" horiz-adv-x="1392" 
d="M696 -30c-325 0 -556 216 -556 545v925h116v-901c0 -329 251 -460 440 -460s440 132 440 460v901h23c29 1 61 -1 93 7c87 19 85 99 77 173h104c15 -97 5 -184 -68 -236c-33 -23 -71 -32 -113 -33v-836c0 -328 -231 -545 -556 -545zM560 1887c70 77 197 99 267 -6
c68 -106 -1 -228 -104 -274l-51 59c83 41 114 108 81 163c-34 57 -102 40 -150 -5z" />
    <glyph glyph-name="uni1EEE" unicode="&#x1eee;" horiz-adv-x="1392" 
d="M696 -30c-325 0 -556 216 -556 545v925h116v-901c0 -329 251 -460 440 -460s440 132 440 460v901h23c29 1 61 -1 93 7c87 19 85 99 77 173h104c15 -97 5 -184 -68 -236c-33 -23 -71 -32 -113 -33v-836c0 -328 -231 -545 -556 -545zM418 1629c-27 106 33 191 137 191
c110 0 210 -105 290 -105c48 0 68 45 52 95h88c27 -104 -31 -194 -139 -194s-208 105 -288 105c-55 0 -66 -50 -52 -92h-88z" />
    <glyph glyph-name="Uhungarumlaut" unicode="&#x170;" horiz-adv-x="1392" 
d="M696 -30c-325 0 -556 216 -556 545v925h116v-901c0 -329 251 -460 440 -460s440 132 440 460v901h116v-925c0 -328 -231 -545 -556 -545zM446 1615l108 290h107l-108 -290h-107zM809 1615l108 290h107l-108 -290h-107z" />
    <glyph glyph-name="Umacron" unicode="&#x16a;" horiz-adv-x="1392" 
d="M696 -30c-325 0 -556 216 -556 545v925h116v-901c0 -329 251 -460 440 -460s440 132 440 460v901h116v-925c0 -328 -231 -545 -556 -545zM451 1680v105h491v-105h-491z" />
    <glyph glyph-name="Uogonek" unicode="&#x172;" horiz-adv-x="1392" 
d="M696 -30c-325 0 -556 216 -556 545v925h116v-901c0 -329 251 -460 440 -460s440 132 440 460v901h116v-925c0 -211 -95 -376 -250 -467c-108 -77 -197 -187 -197 -271c0 -54 38 -91 82 -91c33 0 69 21 98 53l57 -67c-45 -58 -104 -86 -162 -86c-100 0 -183 88 -183 188
c0 64 32 134 83 201c-27 -3 -55 -5 -84 -5z" />
    <glyph glyph-name="Uring" unicode="&#x16e;" horiz-adv-x="1392" 
d="M696 -30c-325 0 -556 216 -556 545v925h116v-901c0 -329 251 -460 440 -460s440 132 440 460v901h116v-925c0 -328 -231 -545 -556 -545zM490 1765c0 113 94 207 207 207c115 0 207 -94 207 -207c0 -115 -92 -207 -207 -207c-113 0 -207 92 -207 207zM587 1765
c0 -60 50 -110 110 -110c62 0 110 50 110 110c0 61 -48 110 -110 110c-60 0 -110 -49 -110 -110z" />
    <glyph glyph-name="Utilde" unicode="&#x168;" horiz-adv-x="1392" 
d="M696 -30c-325 0 -556 216 -556 545v925h116v-901c0 -329 251 -460 440 -460s440 132 440 460v901h116v-925c0 -328 -231 -545 -556 -545zM420 1629c-27 106 33 191 137 191c110 0 210 -105 290 -105c48 0 68 45 52 95h88c27 -104 -31 -194 -139 -194s-208 105 -288 105
c-55 0 -66 -50 -52 -92h-88z" />
    <glyph glyph-name="V" unicode="V" horiz-adv-x="1183" 
d="M520 0l-510 1440h122l458 -1296l461 1296h122l-510 -1440h-143z" />
    <glyph glyph-name="W" unicode="W" horiz-adv-x="1845" 
d="M450 0l-413 1440h119l353 -1238l352 1238h121l353 -1238l352 1238h121l-414 -1440h-118l-354 1234l-354 -1234h-118z" />
    <glyph glyph-name="Wacute" unicode="&#x1e82;" horiz-adv-x="1845" 
d="M450 0l-413 1440h119l353 -1238l352 1238h121l353 -1238l352 1238h121l-414 -1440h-118l-354 1234l-354 -1234h-118zM877 1615l108 290h107l-108 -290h-107z" />
    <glyph glyph-name="Wcircumflex" unicode="&#x174;" horiz-adv-x="1845" 
d="M450 0l-413 1440h119l353 -1238l352 1238h121l353 -1238l352 1238h121l-414 -1440h-118l-354 1234l-354 -1234h-118zM651 1615l214 255h114l215 -255h-125l-147 172l-146 -172h-125z" />
    <glyph glyph-name="Wdieresis" unicode="&#x1e84;" horiz-adv-x="1845" 
d="M450 0l-413 1440h119l353 -1238l352 1238h121l353 -1238l352 1238h121l-414 -1440h-118l-354 1234l-354 -1234h-118zM668 1665v140h140v-140h-140zM1039 1665v140h140v-140h-140z" />
    <glyph glyph-name="Wgrave" unicode="&#x1e80;" horiz-adv-x="1845" 
d="M450 0l-413 1440h119l353 -1238l352 1238h121l353 -1238l352 1238h121l-414 -1440h-118l-354 1234l-354 -1234h-118zM753 1905h107l108 -290h-107z" />
    <glyph glyph-name="X" unicode="X" horiz-adv-x="1179" 
d="M20 0l502 730l-490 710h139l418 -615l419 615h139l-490 -710l502 -730h-139l-431 633l-430 -633h-139z" />
    <glyph glyph-name="Y" unicode="Y" horiz-adv-x="1075" 
d="M480 0v608l-480 832h133l405 -700l404 700h133l-479 -832v-608h-116z" />
    <glyph glyph-name="Yacute" unicode="&#xdd;" horiz-adv-x="1075" 
d="M480 0v608l-480 832h133l405 -700l404 700h133l-479 -832v-608h-116zM460 1615l108 290h107l-108 -290h-107z" />
    <glyph glyph-name="Ycircumflex" unicode="&#x176;" horiz-adv-x="1075" 
d="M480 0v608l-480 832h133l405 -700l404 700h133l-479 -832v-608h-116zM266 1615l214 255h114l215 -255h-125l-147 172l-146 -172h-125z" />
    <glyph glyph-name="Ydieresis" unicode="&#x178;" horiz-adv-x="1075" 
d="M480 0v608l-480 832h133l405 -700l404 700h133l-479 -832v-608h-116zM283 1665v140h140v-140h-140zM654 1665v140h140v-140h-140z" />
    <glyph glyph-name="uni1EF4" unicode="&#x1ef4;" horiz-adv-x="1075" 
d="M480 0v608l-480 832h133l405 -700l404 700h133l-479 -832v-608h-116zM465 -382v147h145v-147h-145z" />
    <glyph glyph-name="Ygrave" unicode="&#x1ef2;" horiz-adv-x="1075" 
d="M480 0v608l-480 832h133l405 -700l404 700h133l-479 -832v-608h-116zM383 1905h107l108 -290h-107z" />
    <glyph glyph-name="uni1EF6" unicode="&#x1ef6;" horiz-adv-x="1075" 
d="M480 0v608l-480 832h133l405 -700l404 700h133l-479 -832v-608h-116zM391 1887c70 77 197 99 267 -6c68 -106 -1 -228 -104 -274l-51 59c83 41 114 108 81 163c-34 57 -102 40 -150 -5z" />
    <glyph glyph-name="uni1EF8" unicode="&#x1ef8;" horiz-adv-x="1075" 
d="M480 0v608l-480 832h133l405 -700l404 700h133l-479 -832v-608h-116zM268 1629c-27 106 33 191 137 191c110 0 210 -105 290 -105c48 0 68 45 52 95h88c27 -104 -31 -194 -139 -194s-208 105 -288 105c-55 0 -66 -50 -52 -92h-88z" />
    <glyph glyph-name="Z" unicode="Z" horiz-adv-x="1195" 
d="M100 0v31l812 1297h-802v112h985v-34l-808 -1295h805v-111h-992z" />
    <glyph glyph-name="Zacute" unicode="&#x179;" horiz-adv-x="1195" 
d="M100 0v31l812 1297h-802v112h985v-34l-808 -1295h805v-111h-992zM531 1615l108 290h107l-108 -290h-107z" />
    <glyph glyph-name="Zcaron" unicode="&#x17d;" horiz-adv-x="1195" 
d="M100 0v31l812 1297h-802v112h985v-34l-808 -1295h805v-111h-992zM370 1870h125l146 -172l147 172h125l-215 -255h-114z" />
    <glyph glyph-name="Zdotaccent" unicode="&#x17b;" horiz-adv-x="1195" 
d="M100 0v31l812 1297h-802v112h985v-34l-808 -1295h805v-111h-992zM574 1675v145h145v-145h-145z" />
    <glyph glyph-name="a" unicode="a" horiz-adv-x="1098" 
d="M452 -30c-249 0 -372 148 -372 318c0 183 127 274 284 311c158 35 372 58 499 74c0 219 -84 326 -310 326c-165 0 -272 -73 -314 -227l-118 33c49 196 202 305 436 305c198 0 339 -82 392 -221c22 -58 29 -139 29 -216v-673h-105v188c-83 -141 -234 -218 -421 -218z
M198 287c0 -99 66 -211 260 -211c220 0 365 126 393 319c10 54 12 124 12 172c-132 -14 -326 -32 -460 -66c-95 -25 -205 -82 -205 -214z" />
    <glyph glyph-name="aacute" unicode="&#xe1;" horiz-adv-x="1098" 
d="M452 -30c-249 0 -372 148 -372 318c0 183 127 274 284 311c158 35 372 58 499 74c0 219 -84 326 -310 326c-165 0 -272 -73 -314 -227l-118 33c49 196 202 305 436 305c198 0 339 -82 392 -221c22 -58 29 -139 29 -216v-673h-105v188c-83 -141 -234 -218 -421 -218z
M198 287c0 -99 66 -211 260 -211c220 0 365 126 393 319c10 54 12 124 12 172c-132 -14 -326 -32 -460 -66c-95 -25 -205 -82 -205 -214zM505 1255l108 290h107l-108 -290h-107z" />
    <glyph glyph-name="abreve" unicode="&#x103;" horiz-adv-x="1098" 
d="M452 -30c-249 0 -372 148 -372 318c0 183 127 274 284 311c158 35 372 58 499 74c0 219 -84 326 -310 326c-165 0 -272 -73 -314 -227l-118 33c49 196 202 305 436 305c198 0 339 -82 392 -221c22 -58 29 -139 29 -216v-673h-105v188c-83 -141 -234 -218 -421 -218z
M198 287c0 -99 66 -211 260 -211c220 0 365 126 393 319c10 54 12 124 12 172c-132 -14 -326 -32 -460 -66c-95 -25 -205 -82 -205 -214zM322 1453h100c0 -78 65 -143 143 -143c80 0 143 65 143 143h100c0 -134 -109 -243 -243 -243s-243 109 -243 243z" />
    <glyph glyph-name="uni1EAF" unicode="&#x1eaf;" horiz-adv-x="1098" 
d="M452 -30c-249 0 -372 148 -372 318c0 183 127 274 284 311c158 35 372 58 499 74c0 219 -84 326 -310 326c-165 0 -272 -73 -314 -227l-118 33c49 196 202 305 436 305c198 0 339 -82 392 -221c22 -58 29 -139 29 -216v-673h-105v188c-83 -141 -234 -218 -421 -218z
M198 287c0 -99 66 -211 260 -211c220 0 365 126 393 319c10 54 12 124 12 172c-132 -14 -326 -32 -460 -66c-95 -25 -205 -82 -205 -214zM321 1453h100c0 -78 65 -143 143 -143c80 0 143 65 143 143h100c0 -134 -109 -243 -243 -243s-243 109 -243 243zM506 1495l108 290
h107l-108 -290h-107z" />
    <glyph glyph-name="uni1EB7" unicode="&#x1eb7;" horiz-adv-x="1098" 
d="M452 -30c-249 0 -372 148 -372 318c0 183 127 274 284 311c158 35 372 58 499 74c0 219 -84 326 -310 326c-165 0 -272 -73 -314 -227l-118 33c49 196 202 305 436 305c198 0 339 -82 392 -221c22 -58 29 -139 29 -216v-673h-105v188c-83 -141 -234 -218 -421 -218z
M198 287c0 -99 66 -211 260 -211c220 0 365 126 393 319c10 54 12 124 12 172c-132 -14 -326 -32 -460 -66c-95 -25 -205 -82 -205 -214zM322 1453h100c0 -78 65 -143 143 -143c80 0 143 65 143 143h100c0 -134 -109 -243 -243 -243s-243 109 -243 243zM462 -382v147h145
v-147h-145z" />
    <glyph glyph-name="uni1EB1" unicode="&#x1eb1;" horiz-adv-x="1098" 
d="M452 -30c-249 0 -372 148 -372 318c0 183 127 274 284 311c158 35 372 58 499 74c0 219 -84 326 -310 326c-165 0 -272 -73 -314 -227l-118 33c49 196 202 305 436 305c198 0 339 -82 392 -221c22 -58 29 -139 29 -216v-673h-105v188c-83 -141 -234 -218 -421 -218z
M198 287c0 -99 66 -211 260 -211c220 0 365 126 393 319c10 54 12 124 12 172c-132 -14 -326 -32 -460 -66c-95 -25 -205 -82 -205 -214zM328 1453h100c0 -78 63 -143 143 -143c78 0 143 65 143 143h100c0 -134 -109 -243 -243 -243s-243 109 -243 243zM414 1785h107
l108 -290h-107z" />
    <glyph glyph-name="uni1EB3" unicode="&#x1eb3;" horiz-adv-x="1098" 
d="M452 -30c-249 0 -372 148 -372 318c0 183 127 274 284 311c158 35 372 58 499 74c0 219 -84 326 -310 326c-165 0 -272 -73 -314 -227l-118 33c49 196 202 305 436 305c198 0 339 -82 392 -221c22 -58 29 -139 29 -216v-673h-105v188c-83 -141 -234 -218 -421 -218z
M198 287c0 -99 66 -211 260 -211c220 0 365 126 393 319c10 54 12 124 12 172c-132 -14 -326 -32 -460 -66c-95 -25 -205 -82 -205 -214zM338 1453h100c0 -78 65 -143 143 -143c80 0 143 65 143 143h100c0 -134 -109 -243 -243 -243s-243 109 -243 243zM406 1754
c70 77 197 99 267 -6c68 -106 -1 -228 -104 -274l-51 59c83 41 114 108 81 163c-34 57 -102 40 -150 -5z" />
    <glyph glyph-name="uni1EB5" unicode="&#x1eb5;" horiz-adv-x="1098" 
d="M452 -30c-249 0 -372 148 -372 318c0 183 127 274 284 311c158 35 372 58 499 74c0 219 -84 326 -310 326c-165 0 -272 -73 -314 -227l-118 33c49 196 202 305 436 305c198 0 339 -82 392 -221c22 -58 29 -139 29 -216v-673h-105v188c-83 -141 -234 -218 -421 -218z
M198 287c0 -99 66 -211 260 -211c220 0 365 126 393 319c10 54 12 124 12 172c-132 -14 -326 -32 -460 -66c-95 -25 -205 -82 -205 -214zM256 1520c-27 106 33 191 137 191c110 0 210 -105 290 -105c48 0 68 45 52 95h88c27 -104 -31 -194 -139 -194s-208 105 -288 105
c-55 0 -66 -50 -52 -92h-88zM294 1453h100c0 -78 65 -143 143 -143c80 0 143 65 143 143h100c0 -134 -109 -243 -243 -243s-243 109 -243 243z" />
    <glyph glyph-name="acircumflex" unicode="&#xe2;" horiz-adv-x="1098" 
d="M452 -30c-249 0 -372 148 -372 318c0 183 127 274 284 311c158 35 372 58 499 74c0 219 -84 326 -310 326c-165 0 -272 -73 -314 -227l-118 33c49 196 202 305 436 305c198 0 339 -82 392 -221c22 -58 29 -139 29 -216v-673h-105v188c-83 -141 -234 -218 -421 -218z
M198 287c0 -99 66 -211 260 -211c220 0 365 126 393 319c10 54 12 124 12 172c-132 -14 -326 -32 -460 -66c-95 -25 -205 -82 -205 -214zM293 1255l214 255h114l215 -255h-125l-147 172l-146 -172h-125z" />
    <glyph glyph-name="uni1EA5" unicode="&#x1ea5;" horiz-adv-x="1098" 
d="M452 -30c-249 0 -372 148 -372 318c0 183 127 274 284 311c158 35 372 58 499 74c0 219 -84 326 -310 326c-165 0 -272 -73 -314 -227l-118 33c49 196 202 305 436 305c198 0 339 -82 392 -221c22 -58 29 -139 29 -216v-673h-105v188c-83 -141 -234 -218 -421 -218z
M198 287c0 -99 66 -211 260 -211c220 0 365 126 393 319c10 54 12 124 12 172c-132 -14 -326 -32 -460 -66c-95 -25 -205 -82 -205 -214zM300 1255l214 255h114l215 -255h-125l-147 172l-146 -172h-125zM813 1465l108 290h107l-108 -290h-107z" />
    <glyph glyph-name="uni1EAD" unicode="&#x1ead;" horiz-adv-x="1098" 
d="M452 -30c-249 0 -372 148 -372 318c0 183 127 274 284 311c158 35 372 58 499 74c0 219 -84 326 -310 326c-165 0 -272 -73 -314 -227l-118 33c49 196 202 305 436 305c198 0 339 -82 392 -221c22 -58 29 -139 29 -216v-673h-105v188c-83 -141 -234 -218 -421 -218z
M198 287c0 -99 66 -211 260 -211c220 0 365 126 393 319c10 54 12 124 12 172c-132 -14 -326 -32 -460 -66c-95 -25 -205 -82 -205 -214zM293 1255l214 255h114l215 -255h-125l-147 172l-146 -172h-125zM462 -382v147h145v-147h-145z" />
    <glyph glyph-name="uni1EA7" unicode="&#x1ea7;" horiz-adv-x="1098" 
d="M452 -30c-249 0 -372 148 -372 318c0 183 127 274 284 311c158 35 372 58 499 74c0 219 -84 326 -310 326c-165 0 -272 -73 -314 -227l-118 33c49 196 202 305 436 305c198 0 339 -82 392 -221c22 -58 29 -139 29 -216v-673h-105v188c-83 -141 -234 -218 -421 -218z
M198 287c0 -99 66 -211 260 -211c220 0 365 126 393 319c10 54 12 124 12 172c-132 -14 -326 -32 -460 -66c-95 -25 -205 -82 -205 -214zM309 1255l214 255h114l215 -255h-125l-147 172l-146 -172h-125zM706 1755h107l108 -290h-107z" />
    <glyph glyph-name="uni1EA9" unicode="&#x1ea9;" horiz-adv-x="1098" 
d="M452 -30c-249 0 -372 148 -372 318c0 183 127 274 284 311c158 35 372 58 499 74c0 219 -84 326 -310 326c-165 0 -272 -73 -314 -227l-118 33c49 196 202 305 436 305c198 0 339 -82 392 -221c22 -58 29 -139 29 -216v-673h-105v188c-83 -141 -234 -218 -421 -218z
M198 287c0 -99 66 -211 260 -211c220 0 365 126 393 319c10 54 12 124 12 172c-132 -14 -326 -32 -460 -66c-95 -25 -205 -82 -205 -214zM279 1255l214 255h114l215 -255h-125l-147 172l-146 -172h-125zM787 1527c70 77 197 99 267 -6c68 -106 -1 -228 -104 -274l-51 59
c83 41 114 108 81 163c-34 57 -102 40 -150 -5z" />
    <glyph glyph-name="uni1EAB" unicode="&#x1eab;" horiz-adv-x="1098" 
d="M452 -30c-249 0 -372 148 -372 318c0 183 127 274 284 311c158 35 372 58 499 74c0 219 -84 326 -310 326c-165 0 -272 -73 -314 -227l-118 33c49 196 202 305 436 305c198 0 339 -82 392 -221c22 -58 29 -139 29 -216v-673h-105v188c-83 -141 -234 -218 -421 -218z
M198 287c0 -99 66 -211 260 -211c220 0 365 126 393 319c10 54 12 124 12 172c-132 -14 -326 -32 -460 -66c-95 -25 -205 -82 -205 -214zM288 1573c-27 106 33 191 137 191c110 0 210 -105 290 -105c48 0 68 45 52 95h88c27 -104 -31 -194 -139 -194s-208 105 -288 105
c-55 0 -66 -50 -52 -92h-88zM294 1255l214 255h114l215 -255h-125l-147 172l-146 -172h-125z" />
    <glyph glyph-name="adieresis" unicode="&#xe4;" horiz-adv-x="1098" 
d="M452 -30c-249 0 -372 148 -372 318c0 183 127 274 284 311c158 35 372 58 499 74c0 219 -84 326 -310 326c-165 0 -272 -73 -314 -227l-118 33c49 196 202 305 436 305c198 0 339 -82 392 -221c22 -58 29 -139 29 -216v-673h-105v188c-83 -141 -234 -218 -421 -218z
M198 287c0 -99 66 -211 260 -211c220 0 365 126 393 319c10 54 12 124 12 172c-132 -14 -326 -32 -460 -66c-95 -25 -205 -82 -205 -214zM318 1305v140h140v-140h-140zM689 1305v140h140v-140h-140z" />
    <glyph glyph-name="uni1EA1" unicode="&#x1ea1;" horiz-adv-x="1098" 
d="M452 -30c-249 0 -372 148 -372 318c0 183 127 274 284 311c158 35 372 58 499 74c0 219 -84 326 -310 326c-165 0 -272 -73 -314 -227l-118 33c49 196 202 305 436 305c198 0 339 -82 392 -221c22 -58 29 -139 29 -216v-673h-105v188c-83 -141 -234 -218 -421 -218z
M198 287c0 -99 66 -211 260 -211c220 0 365 126 393 319c10 54 12 124 12 172c-132 -14 -326 -32 -460 -66c-95 -25 -205 -82 -205 -214zM462 -382v147h145v-147h-145z" />
    <glyph glyph-name="agrave" unicode="&#xe0;" horiz-adv-x="1098" 
d="M452 -30c-249 0 -372 148 -372 318c0 183 127 274 284 311c158 35 372 58 499 74c0 219 -84 326 -310 326c-165 0 -272 -73 -314 -227l-118 33c49 196 202 305 436 305c198 0 339 -82 392 -221c22 -58 29 -139 29 -216v-673h-105v188c-83 -141 -234 -218 -421 -218z
M198 287c0 -99 66 -211 260 -211c220 0 365 126 393 319c10 54 12 124 12 172c-132 -14 -326 -32 -460 -66c-95 -25 -205 -82 -205 -214zM405 1545h107l108 -290h-107z" />
    <glyph glyph-name="uni1EA3" unicode="&#x1ea3;" horiz-adv-x="1098" 
d="M452 -30c-249 0 -372 148 -372 318c0 183 127 274 284 311c158 35 372 58 499 74c0 219 -84 326 -310 326c-165 0 -272 -73 -314 -227l-118 33c49 196 202 305 436 305c198 0 339 -82 392 -221c22 -58 29 -139 29 -216v-673h-105v188c-83 -141 -234 -218 -421 -218z
M198 287c0 -99 66 -211 260 -211c220 0 365 126 393 319c10 54 12 124 12 172c-132 -14 -326 -32 -460 -66c-95 -25 -205 -82 -205 -214zM413 1528c70 77 197 99 267 -6c68 -106 -1 -228 -104 -274l-51 59c83 41 114 108 81 163c-34 57 -102 40 -150 -5z" />
    <glyph glyph-name="amacron" unicode="&#x101;" horiz-adv-x="1098" 
d="M452 -30c-249 0 -372 148 -372 318c0 183 127 274 284 311c158 35 372 58 499 74c0 219 -84 326 -310 326c-165 0 -272 -73 -314 -227l-118 33c49 196 202 305 436 305c198 0 339 -82 392 -221c22 -58 29 -139 29 -216v-673h-105v188c-83 -141 -234 -218 -421 -218z
M198 287c0 -99 66 -211 260 -211c220 0 365 126 393 319c10 54 12 124 12 172c-132 -14 -326 -32 -460 -66c-95 -25 -205 -82 -205 -214zM348 1320v105h491v-105h-491z" />
    <glyph glyph-name="aogonek" unicode="&#x105;" horiz-adv-x="1098" 
d="M452 -30c-249 0 -372 148 -372 318c0 183 127 274 284 311c158 35 372 58 499 74c0 219 -84 326 -310 326c-165 0 -272 -73 -314 -227l-118 33c49 196 202 305 436 305c198 0 339 -82 392 -221c22 -58 29 -139 29 -216v-673c-122 -77 -228 -200 -228 -292
c0 -54 38 -91 82 -91c33 0 69 21 98 53l57 -67c-45 -58 -104 -86 -162 -86c-100 0 -183 88 -183 188c0 114 101 245 231 347v136c-83 -141 -234 -218 -421 -218zM198 287c0 -99 66 -211 260 -211c220 0 365 126 393 319c10 54 12 124 12 172c-132 -14 -326 -32 -460 -66
c-95 -25 -205 -82 -205 -214z" />
    <glyph glyph-name="aring" unicode="&#xe5;" horiz-adv-x="1098" 
d="M452 -30c-249 0 -372 148 -372 318c0 183 127 274 284 311c158 35 372 58 499 74c0 219 -84 326 -310 326c-165 0 -272 -73 -314 -227l-118 33c49 196 202 305 436 305c198 0 339 -82 392 -221c22 -58 29 -139 29 -216v-673h-105v188c-83 -141 -234 -218 -421 -218z
M198 287c0 -99 66 -211 260 -211c220 0 365 126 393 319c10 54 12 124 12 172c-132 -14 -326 -32 -460 -66c-95 -25 -205 -82 -205 -214zM357 1405c0 113 94 207 207 207c115 0 207 -94 207 -207c0 -115 -92 -207 -207 -207c-113 0 -207 92 -207 207zM454 1405
c0 -60 50 -110 110 -110c62 0 110 50 110 110c0 61 -48 110 -110 110c-60 0 -110 -49 -110 -110z" />
    <glyph glyph-name="atilde" unicode="&#xe3;" horiz-adv-x="1098" 
d="M452 -30c-249 0 -372 148 -372 318c0 183 127 274 284 311c158 35 372 58 499 74c0 219 -84 326 -310 326c-165 0 -272 -73 -314 -227l-118 33c49 196 202 305 436 305c198 0 339 -82 392 -221c22 -58 29 -139 29 -216v-673h-105v188c-83 -141 -234 -218 -421 -218z
M198 287c0 -99 66 -211 260 -211c220 0 365 126 393 319c10 54 12 124 12 172c-132 -14 -326 -32 -460 -66c-95 -25 -205 -82 -205 -214zM289 1269c-27 106 33 191 137 191c110 0 210 -105 290 -105c48 0 68 45 52 95h88c27 -104 -31 -194 -139 -194s-208 105 -288 105
c-55 0 -66 -50 -52 -92h-88z" />
    <glyph glyph-name="ae" unicode="&#xe6;" horiz-adv-x="1888" 
d="M1344 -30c-206 0 -352 107 -425 278c-90 -212 -279 -278 -458 -278c-239 0 -381 123 -381 322c0 304 330 312 464 316l319 6c9 252 -82 385 -305 385c-152 0 -281 -59 -323 -216l-114 36c47 192 225 291 437 291c200 0 328 -84 385 -228c79 143 216 228 401 228
c313 0 468 -243 463 -603h-826c9 -257 132 -425 360 -425c151 0 275 73 345 226l98 -46c-81 -189 -244 -292 -440 -292zM198 292c0 -140 99 -217 260 -217c165 0 302 81 359 200c38 79 45 183 46 241l-310 -4c-122 -2 -355 -7 -355 -220zM983 612h707
c-21 242 -129 389 -349 389c-222 0 -339 -156 -358 -389z" />
    <glyph glyph-name="b" unicode="b" horiz-adv-x="1168" 
d="M613 -30c-167 0 -292 82 -368 213v-183h-105v1440h115v-524c78 121 202 194 369 194c294 0 464 -248 464 -568c0 -324 -170 -572 -475 -572zM245 542c0 -265 119 -462 361 -462c238 0 359 200 359 462c0 260 -115 458 -361 458c-238 0 -359 -191 -359 -458z" />
    <glyph glyph-name="c" unicode="c" horiz-adv-x="1093" 
d="M581 -30c-324 0 -496 234 -501 570c5 343 180 570 502 570c209 0 379 -108 442 -283l-112 -41c-55 134 -179 212 -331 212c-255 0 -375 -188 -378 -458c3 -276 129 -458 378 -458c152 0 268 72 329 207l114 -39c-85 -184 -238 -280 -443 -280z" />
    <glyph glyph-name="cacute" unicode="&#x107;" horiz-adv-x="1093" 
d="M581 -30c-324 0 -496 234 -501 570c5 343 180 570 502 570c209 0 379 -108 442 -283l-112 -41c-55 134 -179 212 -331 212c-255 0 -375 -188 -378 -458c3 -276 129 -458 378 -458c152 0 268 72 329 207l114 -39c-85 -184 -238 -280 -443 -280zM546 1255l108 290h107
l-108 -290h-107z" />
    <glyph glyph-name="ccaron" unicode="&#x10d;" horiz-adv-x="1093" 
d="M581 -30c-324 0 -496 234 -501 570c5 343 180 570 502 570c209 0 379 -108 442 -283l-112 -41c-55 134 -179 212 -331 212c-255 0 -375 -188 -378 -458c3 -276 129 -458 378 -458c152 0 268 72 329 207l114 -39c-85 -184 -238 -280 -443 -280zM310 1510h125l146 -172
l147 172h125l-215 -255h-114z" />
    <glyph glyph-name="ccedilla" unicode="&#xe7;" horiz-adv-x="1093" 
d="M528 -479c-46 0 -87 13 -124 30l33 87c29 -11 59 -18 82 -18c56 0 87 42 87 86c0 64 -66 84 -133 106l58 160c-292 23 -446 250 -451 568c5 343 180 570 502 570c209 0 379 -108 442 -283l-112 -41c-55 134 -179 212 -331 212c-255 0 -375 -188 -378 -458
c3 -276 129 -458 378 -458c152 0 268 72 329 207l114 -39c-79 -170 -215 -265 -397 -278l-37 -102c70 -30 120 -83 120 -169c0 -102 -83 -180 -182 -180z" />
    <glyph glyph-name="ccircumflex" unicode="&#x109;" horiz-adv-x="1093" 
d="M581 -30c-324 0 -496 234 -501 570c5 343 180 570 502 570c209 0 379 -108 442 -283l-112 -41c-55 134 -179 212 -331 212c-255 0 -375 -188 -378 -458c3 -276 129 -458 378 -458c152 0 268 72 329 207l114 -39c-85 -184 -238 -280 -443 -280zM311 1255l214 255h114
l215 -255h-125l-147 172l-146 -172h-125z" />
    <glyph glyph-name="cdotaccent" unicode="&#x10b;" horiz-adv-x="1093" 
d="M581 -30c-324 0 -496 234 -501 570c5 343 180 570 502 570c209 0 379 -108 442 -283l-112 -41c-55 134 -179 212 -331 212c-255 0 -375 -188 -378 -458c3 -276 129 -458 378 -458c152 0 268 72 329 207l114 -39c-85 -184 -238 -280 -443 -280zM523 1315v145h145v-145
h-145z" />
    <glyph glyph-name="d" unicode="d" horiz-adv-x="1168" 
d="M555 -30c-305 0 -475 248 -475 572c0 320 170 568 464 568c167 0 291 -73 369 -194v524h115v-1440h-105v183c-76 -131 -201 -213 -368 -213zM203 542c0 -262 121 -462 359 -462c242 0 361 197 361 462c0 267 -121 458 -359 458c-246 0 -361 -198 -361 -458z" />
    <glyph glyph-name="eth" unicode="&#xf0;" horiz-adv-x="1155" 
d="M579 -30c-312 -3 -496 211 -499 534c3 326 191 537 499 534c144 1 286 -55 374 -169c-22 185 -101 328 -228 414l-113 -142l-80 66l100 125c-54 21 -115 35 -182 40l16 103c88 -5 167 -23 237 -55l116 144l79 -65l-104 -130c71 -50 129 -116 173 -198
c89 -155 108 -320 108 -664c0 -327 -190 -540 -496 -537zM200 504c0 -266 135 -424 379 -424c246 0 376 165 376 426c0 262 -139 425 -376 422c-246 3 -379 -164 -379 -424z" />
    <glyph glyph-name="dcaron" unicode="&#x10f;" horiz-adv-x="1391" 
d="M555 -30c-305 0 -475 248 -475 572c0 320 170 568 464 568c167 0 291 -73 369 -194v524h115v-1440h-105v183c-76 -131 -201 -213 -368 -213zM203 542c0 -262 121 -462 359 -462c242 0 361 197 361 462c0 267 -121 458 -359 458c-246 0 -361 -198 -361 -458zM1243 1068
l8 62c74 -5 73 62 70 131h-78v195h145v-245c0 -105 -61 -162 -145 -143z" />
    <glyph glyph-name="dcroat" unicode="&#x111;" horiz-adv-x="1168" 
d="M555 -30c-305 0 -475 248 -475 572c0 320 170 568 464 568c167 0 291 -73 369 -194v277h-231v105h231v142h115v-142h145v-105h-145v-1193h-105v183c-76 -131 -201 -213 -368 -213zM203 542c0 -262 121 -462 359 -462c242 0 361 197 361 462c0 267 -121 458 -359 458
c-246 0 -361 -198 -361 -458z" />
    <glyph glyph-name="e" unicode="e" horiz-adv-x="1158" 
d="M585 -30c-310 0 -505 220 -505 568c0 354 193 572 503 572c315 0 499 -224 494 -603h-873c10 -270 146 -425 379 -425c166 0 294 80 367 226l104 -46c-87 -186 -259 -292 -469 -292zM206 611h747c-23 254 -150 390 -368 390c-224 0 -358 -141 -379 -390z" />
    <glyph glyph-name="eacute" unicode="&#xe9;" horiz-adv-x="1158" 
d="M585 -30c-310 0 -505 220 -505 568c0 354 193 572 503 572c315 0 499 -224 494 -603h-873c10 -270 146 -425 379 -425c166 0 294 80 367 226l104 -46c-87 -186 -259 -292 -469 -292zM206 611h747c-23 254 -150 390 -368 390c-224 0 -358 -141 -379 -390zM550 1255
l108 290h107l-108 -290h-107z" />
    <glyph glyph-name="ecaron" unicode="&#x11b;" horiz-adv-x="1158" 
d="M585 -30c-310 0 -505 220 -505 568c0 354 193 572 503 572c315 0 499 -224 494 -603h-873c10 -270 146 -425 379 -425c166 0 294 80 367 226l104 -46c-87 -186 -259 -292 -469 -292zM206 611h747c-23 254 -150 390 -368 390c-224 0 -358 -141 -379 -390zM311 1510h125
l146 -172l147 172h125l-215 -255h-114z" />
    <glyph glyph-name="ecircumflex" unicode="&#xea;" horiz-adv-x="1158" 
d="M585 -30c-310 0 -505 220 -505 568c0 354 193 572 503 572c315 0 499 -224 494 -603h-873c10 -270 146 -425 379 -425c166 0 294 80 367 226l104 -46c-87 -186 -259 -292 -469 -292zM206 611h747c-23 254 -150 390 -368 390c-224 0 -358 -141 -379 -390zM311 1255
l214 255h114l215 -255h-125l-147 172l-146 -172h-125z" />
    <glyph glyph-name="uni1EBF" unicode="&#x1ebf;" horiz-adv-x="1158" 
d="M585 -30c-310 0 -505 220 -505 568c0 354 193 572 503 572c315 0 499 -224 494 -603h-873c10 -270 146 -425 379 -425c166 0 294 80 367 226l104 -46c-87 -186 -259 -292 -469 -292zM206 611h747c-23 254 -150 390 -368 390c-224 0 -358 -141 -379 -390zM332 1255
l214 255h114l215 -255h-125l-147 172l-146 -172h-125zM845 1465l108 290h107l-108 -290h-107z" />
    <glyph glyph-name="uni1EC7" unicode="&#x1ec7;" horiz-adv-x="1158" 
d="M585 -30c-310 0 -505 220 -505 568c0 354 193 572 503 572c315 0 499 -224 494 -603h-873c10 -270 146 -425 379 -425c166 0 294 80 367 226l104 -46c-87 -186 -259 -292 -469 -292zM206 611h747c-23 254 -150 390 -368 390c-224 0 -358 -141 -379 -390zM311 1255
l214 255h114l215 -255h-125l-147 172l-146 -172h-125zM506 -382v147h145v-147h-145z" />
    <glyph glyph-name="uni1EC1" unicode="&#x1ec1;" horiz-adv-x="1158" 
d="M585 -30c-310 0 -505 220 -505 568c0 354 193 572 503 572c315 0 499 -224 494 -603h-873c10 -270 146 -425 379 -425c166 0 294 80 367 226l104 -46c-87 -186 -259 -292 -469 -292zM206 611h747c-23 254 -150 390 -368 390c-224 0 -358 -141 -379 -390zM310 1255
l214 255h114l215 -255h-125l-147 172l-146 -172h-125zM707 1755h107l108 -290h-107z" />
    <glyph glyph-name="uni1EC3" unicode="&#x1ec3;" horiz-adv-x="1158" 
d="M585 -30c-310 0 -505 220 -505 568c0 354 193 572 503 572c315 0 499 -224 494 -603h-873c10 -270 146 -425 379 -425c166 0 294 80 367 226l104 -46c-87 -186 -259 -292 -469 -292zM206 611h747c-23 254 -150 390 -368 390c-224 0 -358 -141 -379 -390zM323 1255
l214 255h114l215 -255h-125l-147 172l-146 -172h-125zM830 1527c70 77 197 99 267 -6c68 -106 -1 -228 -104 -274l-51 59c83 41 114 108 81 163c-34 57 -102 40 -150 -5z" />
    <glyph glyph-name="uni1EC5" unicode="&#x1ec5;" horiz-adv-x="1158" 
d="M585 -30c-310 0 -505 220 -505 568c0 354 193 572 503 572c315 0 499 -224 494 -603h-873c10 -270 146 -425 379 -425c166 0 294 80 367 226l104 -46c-87 -186 -259 -292 -469 -292zM206 611h747c-23 254 -150 390 -368 390c-224 0 -358 -141 -379 -390zM312 1573
c-27 106 33 191 137 191c110 0 210 -105 290 -105c48 0 68 45 52 95h88c27 -104 -31 -194 -139 -194s-208 105 -288 105c-55 0 -66 -50 -52 -92h-88zM318 1255l214 255h114l215 -255h-125l-147 172l-146 -172h-125z" />
    <glyph glyph-name="edieresis" unicode="&#xeb;" horiz-adv-x="1158" 
d="M585 -30c-310 0 -505 220 -505 568c0 354 193 572 503 572c315 0 499 -224 494 -603h-873c10 -270 146 -425 379 -425c166 0 294 80 367 226l104 -46c-87 -186 -259 -292 -469 -292zM206 611h747c-23 254 -150 390 -368 390c-224 0 -358 -141 -379 -390zM327 1305v140
h140v-140h-140zM698 1305v140h140v-140h-140z" />
    <glyph glyph-name="edotaccent" unicode="&#x117;" horiz-adv-x="1158" 
d="M585 -30c-310 0 -505 220 -505 568c0 354 193 572 503 572c315 0 499 -224 494 -603h-873c10 -270 146 -425 379 -425c166 0 294 80 367 226l104 -46c-87 -186 -259 -292 -469 -292zM206 611h747c-23 254 -150 390 -368 390c-224 0 -358 -141 -379 -390zM510 1315v145
h145v-145h-145z" />
    <glyph glyph-name="uni1EB9" unicode="&#x1eb9;" horiz-adv-x="1158" 
d="M585 -30c-310 0 -505 220 -505 568c0 354 193 572 503 572c315 0 499 -224 494 -603h-873c10 -270 146 -425 379 -425c166 0 294 80 367 226l104 -46c-87 -186 -259 -292 -469 -292zM206 611h747c-23 254 -150 390 -368 390c-224 0 -358 -141 -379 -390zM513 -382v147
h145v-147h-145z" />
    <glyph glyph-name="egrave" unicode="&#xe8;" horiz-adv-x="1158" 
d="M585 -30c-310 0 -505 220 -505 568c0 354 193 572 503 572c315 0 499 -224 494 -603h-873c10 -270 146 -425 379 -425c166 0 294 80 367 226l104 -46c-87 -186 -259 -292 -469 -292zM206 611h747c-23 254 -150 390 -368 390c-224 0 -358 -141 -379 -390zM439 1545h107
l108 -290h-107z" />
    <glyph glyph-name="uni1EBB" unicode="&#x1ebb;" horiz-adv-x="1200" 
d="M443 1528c70 77 197 99 267 -6c68 -106 -1 -228 -104 -274l-51 59c83 41 114 108 81 163c-34 57 -102 40 -150 -5zM80 538c0 354 193 572 503 572c315 0 499 -224 494 -603h-873c10 -270 146 -425 379 -425c166 0 294 80 367 226l104 -46c-87 -186 -259 -292 -469 -292
c-310 0 -505 220 -505 568zM206 611h747c-23 254 -150 390 -368 390c-224 0 -358 -141 -379 -390z" />
    <glyph glyph-name="emacron" unicode="&#x113;" horiz-adv-x="1158" 
d="M585 -30c-310 0 -505 220 -505 568c0 354 193 572 503 572c315 0 499 -224 494 -603h-873c10 -270 146 -425 379 -425c166 0 294 80 367 226l104 -46c-87 -186 -259 -292 -469 -292zM206 611h747c-23 254 -150 390 -368 390c-224 0 -358 -141 -379 -390zM357 1320v105
h491v-105h-491z" />
    <glyph glyph-name="eogonek" unicode="&#x119;" horiz-adv-x="1158" 
d="M873 -463c-76 -32 -157 -12 -205 40c-49 51 -60 122 -37 197c18 59 52 117 90 167c11 15 28 35 50 60c-57 -20 -120 -31 -186 -31c-310 0 -505 220 -505 568c0 354 193 572 503 572c315 0 499 -224 494 -603h-873c10 -270 146 -425 379 -425c166 0 294 80 367 226
l104 -46c-7 -15 -15 -30 -23 -44c-61 -118 -191 -270 -222 -317c-34 -53 -66 -107 -80 -157c-9 -33 -12 -69 15 -96c49 -50 116 -17 161 24l59 -69c-23 -26 -54 -50 -91 -66zM206 611h747c-23 254 -150 390 -368 390c-224 0 -358 -141 -379 -390z" />
    <glyph glyph-name="uni1EBD" unicode="&#x1ebd;" horiz-adv-x="1158" 
d="M585 -30c-310 0 -505 220 -505 568c0 354 193 572 503 572c315 0 499 -224 494 -603h-873c10 -270 146 -425 379 -425c166 0 294 80 367 226l104 -46c-87 -186 -259 -292 -469 -292zM206 611h747c-23 254 -150 390 -368 390c-224 0 -358 -141 -379 -390zM302 1269
c-27 106 33 191 137 191c110 0 210 -105 290 -105c48 0 68 45 52 95h88c27 -104 -31 -194 -139 -194s-208 105 -288 105c-55 0 -66 -50 -52 -92h-88z" />
    <glyph glyph-name="uni0259" unicode="&#x259;" horiz-adv-x="1158" 
d="M573 1110c310 0 505 -220 505 -568c0 -354 -193 -572 -503 -572c-315 0 -499 224 -494 603h873c-10 270 -147 425 -379 425c-166 0 -294 -80 -367 -226l-104 46c87 186 259 292 469 292zM204 469c24 -254 150 -390 369 -390c224 0 358 141 379 390h-748z" />
    <glyph glyph-name="f" unicode="f" horiz-adv-x="694" 
d="M252 1181c0 84 10 156 65 216c57 60 133 73 218 73h139v-100h-129c-120 0 -178 -53 -178 -185v-105h307v-105h-307v-975h-115v975h-192v105h192v101z" />
    <glyph glyph-name="g" unicode="g" horiz-adv-x="1168" 
d="M560 -510c-160 0 -329 64 -425 239l104 62c66 -134 197 -186 322 -186c262 0 351 147 350 433v125c-77 -119 -197 -193 -356 -193c-305 0 -475 248 -475 572c0 320 170 568 464 568c174 0 302 -80 379 -210v180h105v-1042c0 -64 -2 -122 -11 -180
c-35 -251 -185 -368 -457 -368zM203 542c0 -262 121 -462 359 -462c242 0 361 197 361 462c0 267 -121 458 -359 458c-246 0 -361 -198 -361 -458z" />
    <glyph glyph-name="gbreve" unicode="&#x11f;" horiz-adv-x="1168" 
d="M560 -510c-160 0 -329 64 -425 239l104 62c66 -134 197 -186 322 -186c262 0 351 147 350 433v125c-77 -119 -197 -193 -356 -193c-305 0 -475 248 -475 572c0 320 170 568 464 568c174 0 302 -80 379 -210v180h105v-1042c0 -64 -2 -122 -11 -180
c-35 -251 -185 -368 -457 -368zM203 542c0 -262 121 -462 359 -462c242 0 361 197 361 462c0 267 -121 458 -359 458c-246 0 -361 -198 -361 -458zM375 1453h100c0 -78 65 -143 143 -143c80 0 143 65 143 143h100c0 -134 -109 -243 -243 -243s-243 109 -243 243z" />
    <glyph glyph-name="gcircumflex" unicode="&#x11d;" horiz-adv-x="1168" 
d="M560 -510c-160 0 -329 64 -425 239l104 62c66 -134 197 -186 322 -186c262 0 351 147 350 433v125c-77 -119 -197 -193 -356 -193c-305 0 -475 248 -475 572c0 320 170 568 464 568c174 0 302 -80 379 -210v180h105v-1042c0 -64 -2 -122 -11 -180
c-35 -251 -185 -368 -457 -368zM203 542c0 -262 121 -462 359 -462c242 0 361 197 361 462c0 267 -121 458 -359 458c-246 0 -361 -198 -361 -458zM290 1255l214 255h114l215 -255h-125l-147 172l-146 -172h-125z" />
    <glyph glyph-name="uni0123" unicode="&#x123;" horiz-adv-x="1168" 
d="M560 -510c-160 0 -329 64 -425 239l104 62c66 -134 197 -186 322 -186c262 0 351 147 350 433v125c-77 -119 -197 -193 -356 -193c-305 0 -475 248 -475 572c0 320 170 568 464 568c174 0 302 -80 379 -210v180h105v-1042c0 -64 -2 -122 -11 -180
c-35 -251 -185 -368 -457 -368zM203 542c0 -262 121 -462 359 -462c242 0 361 197 361 462c0 267 -121 458 -359 458c-246 0 -361 -198 -361 -458zM524 1315v143c0 107 78 152 143 152v-69c-22 0 -80 -18 -75 -83h75v-143h-143z" />
    <glyph glyph-name="gdotaccent" unicode="&#x121;" horiz-adv-x="1168" 
d="M560 -510c-160 0 -329 64 -425 239l104 62c66 -134 197 -186 322 -186c262 0 351 147 350 433v125c-77 -119 -197 -193 -356 -193c-305 0 -475 248 -475 572c0 320 170 568 464 568c174 0 302 -80 379 -210v180h105v-1042c0 -64 -2 -122 -11 -180
c-35 -251 -185 -368 -457 -368zM203 542c0 -262 121 -462 359 -462c242 0 361 197 361 462c0 267 -121 458 -359 458c-246 0 -361 -198 -361 -458zM544 1315v145h145v-145h-145z" />
    <glyph glyph-name="h" unicode="h" 
d="M931 562c0 273 -108 432 -334 432c-235 0 -341 -173 -341 -411v-583h-116v1440h105v-522c80 127 213 187 367 187c298 0 435 -232 435 -514v-591h-116v562z" />
    <glyph glyph-name="hbar" unicode="&#x127;" 
d="M931 562c0 273 -108 432 -334 432c-235 0 -341 -173 -341 -411v-583h-116v1193h-134v105h134v142h105v-142h252v-105h-252v-275c80 127 213 187 367 187c298 0 435 -232 435 -514v-591h-116v562z" />
    <glyph glyph-name="hcircumflex" unicode="&#x125;" 
d="M931 562c0 273 -108 432 -334 432c-235 0 -341 -173 -341 -411v-583h-116v1440h105v-522c80 127 213 187 367 187c298 0 435 -232 435 -514v-591h-116v562zM-80 1615l214 255h114l215 -255h-125l-147 172l-146 -172h-125z" />
    <glyph glyph-name="i" unicode="i" horiz-adv-x="435" 
d="M160 1298v147h115v-147h-115zM160 0v1080h115v-1080h-115z" />
    <glyph glyph-name="dotlessi" unicode="&#x131;" horiz-adv-x="435" 
d="M160 0v1080h115v-1080h-115z" />
    <glyph glyph-name="iacute" unicode="&#xed;" horiz-adv-x="435" 
d="M160 0v1080h115v-1080h-115zM166 1255l108 290h107l-108 -290h-107z" />
    <glyph glyph-name="icircumflex" unicode="&#xee;" horiz-adv-x="435" 
d="M160 0v1080h115v-1080h-115zM-51 1255l214 255h114l215 -255h-125l-147 172l-146 -172h-125z" />
    <glyph glyph-name="idieresis" unicode="&#xef;" horiz-adv-x="435" 
d="M160 0v1080h115v-1080h-115zM-38 1305v140h140v-140h-140zM333 1305v140h140v-140h-140z" />
    <glyph glyph-name="i.loclTRK" horiz-adv-x="435" 
d="M160 1298v147h115v-147h-115zM160 0v1080h115v-1080h-115z" />
    <glyph glyph-name="uni1ECB" unicode="&#x1ecb;" horiz-adv-x="435" 
d="M160 1298v147h115v-147h-115zM145 -382v147h145v-147h-145zM160 0v1080h115v-1080h-115z" />
    <glyph glyph-name="igrave" unicode="&#xec;" horiz-adv-x="435" 
d="M160 0v1080h115v-1080h-115zM54 1545h107l108 -290h-107z" />
    <glyph glyph-name="uni1EC9" unicode="&#x1ec9;" horiz-adv-x="435" 
d="M160 0v1080h115v-1080h-115zM53 1528c70 77 197 99 267 -6c68 -106 -1 -228 -104 -274l-51 59c83 41 114 108 81 163c-34 57 -102 40 -150 -5z" />
    <glyph glyph-name="imacron" unicode="&#x12b;" horiz-adv-x="435" 
d="M160 0v1080h115v-1080h-115zM-28 1320v105h491v-105h-491z" />
    <glyph glyph-name="iogonek" unicode="&#x12f;" horiz-adv-x="435" 
d="M160 1298v147h115v-147h-115zM-61 -295c0 111 96 239 221 339v1036h115v-1080c-122 -77 -228 -200 -228 -292c0 -54 38 -91 82 -91c33 0 69 21 98 53l57 -67c-45 -58 -104 -86 -162 -86c-100 0 -183 88 -183 188z" />
    <glyph glyph-name="itilde" unicode="&#x129;" horiz-adv-x="435" 
d="M160 0v1080h115v-1080h-115zM-66 1269c-27 106 33 191 137 191c110 0 210 -105 290 -105c48 0 68 45 52 95h88c27 -104 -31 -194 -139 -194s-208 105 -288 105c-55 0 -66 -50 -52 -92h-88z" />
    <glyph glyph-name="j" unicode="j" horiz-adv-x="475" 
d="M-20 -480v114h65c90 0 158 43 158 164v1282h116v-1296c0 -182 -78 -264 -253 -264h-86zM203 1298v147h116v-147h-116z" />
    <glyph glyph-name="jcircumflex" unicode="&#x135;" horiz-adv-x="475" 
d="M-20 -480v114h65c90 0 158 43 158 164v1282h116v-1296c0 -182 -78 -264 -253 -264h-86zM-11 1255l214 255h114l215 -255h-125l-147 172l-146 -172h-125z" />
    <glyph glyph-name="k" unicode="k" horiz-adv-x="964" 
d="M140 0v1440h116v-880l511 520h161l-535 -540l611 -540h-179l-569 520v-520h-116z" />
    <glyph glyph-name="uni0137" unicode="&#x137;" horiz-adv-x="964" 
d="M140 0v1440h116v-880l511 520h161l-535 -540l611 -540h-179l-569 520v-520h-116zM455 -530v69c22 0 80 18 75 83h-75v143h143v-143c0 -107 -78 -152 -143 -152z" />
    <glyph glyph-name="l" unicode="l" horiz-adv-x="435" 
d="M160 0v1440h115v-1440h-115z" />
    <glyph glyph-name="lacute" unicode="&#x13a;" horiz-adv-x="435" 
d="M160 0v1440h115v-1440h-115zM166 1615l108 290h107l-108 -290h-107z" />
    <glyph glyph-name="lcaron" unicode="&#x13e;" horiz-adv-x="435" 
d="M160 0v1440h115v-1440h-115zM387 1255l108 290h107l-108 -290h-107z" />
    <glyph glyph-name="uni013C" unicode="&#x13c;" horiz-adv-x="435" 
d="M160 0v1440h115v-1440h-115zM146 -530v69c22 0 80 18 75 83h-75v143h143v-143c0 -107 -78 -152 -143 -152z" />
    <glyph glyph-name="lslash" unicode="&#x142;" horiz-adv-x="737" 
d="M312 0v637l-223 -128v132l223 128v671h115v-606l221 127v-130l-221 -127v-704h-115z" />
    <glyph glyph-name="m" unicode="m" horiz-adv-x="1662" 
d="M1427 726c0 174 -112 280 -260 280c-126 0 -268 -78 -268 -299l-2 -707h-114l2 715c0 178 -107 291 -263 291c-159 0 -267 -118 -267 -299v-707h-115v1080h105v-113c66 88 172 142 301 142c137 0 257 -61 315 -185c61 116 180 185 325 185c211 0 356 -140 356 -366
l-2 -743h-115z" />
    <glyph glyph-name="n" unicode="n" 
d="M931 562c0 273 -108 432 -334 432c-235 0 -341 -173 -341 -411v-583h-116v1080h105v-162c80 127 213 187 367 187c298 0 435 -232 435 -514v-591h-116v562z" />
    <glyph glyph-name="nacute" unicode="&#x144;" 
d="M931 562c0 273 -108 432 -334 432c-235 0 -341 -173 -341 -411v-583h-116v1080h105v-162c80 127 213 187 367 187c298 0 435 -232 435 -514v-591h-116v562zM558 1255l108 290h107l-108 -290h-107z" />
    <glyph glyph-name="ncaron" unicode="&#x148;" 
d="M931 562c0 273 -108 432 -334 432c-235 0 -341 -173 -341 -411v-583h-116v1080h105v-162c80 127 213 187 367 187c298 0 435 -232 435 -514v-591h-116v562zM317 1510h125l146 -172l147 172h125l-215 -255h-114z" />
    <glyph glyph-name="uni0146" unicode="&#x146;" 
d="M931 562c0 273 -108 432 -334 432c-235 0 -341 -173 -341 -411v-583h-116v1080h105v-162c80 127 213 187 367 187c298 0 435 -232 435 -514v-591h-116v562zM524 -530v69c22 0 80 18 75 83h-75v143h143v-143c0 -107 -78 -152 -143 -152z" />
    <glyph glyph-name="ntilde" unicode="&#xf1;" 
d="M931 562c0 273 -108 432 -334 432c-235 0 -341 -173 -341 -411v-583h-116v1080h105v-162c80 127 213 187 367 187c298 0 435 -232 435 -514v-591h-116v562zM300 1269c-27 106 33 191 137 191c110 0 210 -105 290 -105c48 0 68 45 52 95h88c27 -104 -31 -194 -139 -194
s-208 105 -288 105c-55 0 -66 -50 -52 -92h-88z" />
    <glyph glyph-name="eng" unicode="&#x14b;" 
d="M925 -375c-63 -8 -104 -3 -150 9v100c119 -18 156 7 156 152v676c0 273 -108 432 -334 432c-235 0 -341 -173 -341 -411v-583h-116v1080h105v-162c80 127 213 187 367 187c298 0 435 -232 435 -514v-779c0 -121 -50 -172 -122 -187z" />
    <glyph glyph-name="o" unicode="o" horiz-adv-x="1166" 
d="M583 -30c-321 0 -503 236 -503 572c0 339 188 568 503 568c322 0 503 -234 503 -568c0 -341 -184 -572 -503 -572zM203 542c0 -278 130 -460 380 -460c255 0 380 187 380 460c0 277 -127 456 -380 456c-258 0 -380 -188 -380 -456z" />
    <glyph glyph-name="oacute" unicode="&#xf3;" horiz-adv-x="1166" 
d="M583 -30c-321 0 -503 236 -503 572c0 339 188 568 503 568c322 0 503 -234 503 -568c0 -341 -184 -572 -503 -572zM203 542c0 -278 130 -460 380 -460c255 0 380 187 380 460c0 277 -127 456 -380 456c-258 0 -380 -188 -380 -456zM527 1255l108 290h107l-108 -290h-107z
" />
    <glyph glyph-name="ocircumflex" unicode="&#xf4;" horiz-adv-x="1166" 
d="M583 -30c-321 0 -503 236 -503 572c0 339 188 568 503 568c322 0 503 -234 503 -568c0 -341 -184 -572 -503 -572zM203 542c0 -278 130 -460 380 -460c255 0 380 187 380 460c0 277 -127 456 -380 456c-258 0 -380 -188 -380 -456zM311 1255l214 255h114l215 -255h-125
l-147 172l-146 -172h-125z" />
    <glyph glyph-name="uni1ED1" unicode="&#x1ed1;" horiz-adv-x="1166" 
d="M583 -30c-321 0 -503 236 -503 572c0 339 188 568 503 568c322 0 503 -234 503 -568c0 -341 -184 -572 -503 -572zM203 542c0 -278 130 -460 380 -460c255 0 380 187 380 460c0 277 -127 456 -380 456c-258 0 -380 -188 -380 -456zM322 1255l214 255h114l215 -255h-125
l-147 172l-146 -172h-125zM835 1465l108 290h107l-108 -290h-107z" />
    <glyph glyph-name="uni1ED9" unicode="&#x1ed9;" horiz-adv-x="1166" 
d="M583 -30c-321 0 -503 236 -503 572c0 339 188 568 503 568c322 0 503 -234 503 -568c0 -341 -184 -572 -503 -572zM203 542c0 -278 130 -460 380 -460c255 0 380 187 380 460c0 277 -127 456 -380 456c-258 0 -380 -188 -380 -456zM311 1255l214 255h114l215 -255h-125
l-147 172l-146 -172h-125zM514 -382v147h145v-147h-145z" />
    <glyph glyph-name="uni1ED3" unicode="&#x1ed3;" horiz-adv-x="1166" 
d="M583 -30c-321 0 -503 236 -503 572c0 339 188 568 503 568c322 0 503 -234 503 -568c0 -341 -184 -572 -503 -572zM203 542c0 -278 130 -460 380 -460c255 0 380 187 380 460c0 277 -127 456 -380 456c-258 0 -380 -188 -380 -456zM334 1255l214 255h114l215 -255h-125
l-147 172l-146 -172h-125zM731 1755h107l108 -290h-107z" />
    <glyph glyph-name="uni1ED5" unicode="&#x1ed5;" horiz-adv-x="1166" 
d="M583 -30c-321 0 -503 236 -503 572c0 339 188 568 503 568c322 0 503 -234 503 -568c0 -341 -184 -572 -503 -572zM203 542c0 -278 130 -460 380 -460c255 0 380 187 380 460c0 277 -127 456 -380 456c-258 0 -380 -188 -380 -456zM310 1255l214 255h114l215 -255h-125
l-147 172l-146 -172h-125zM818 1527c70 77 197 99 267 -6c68 -106 -1 -228 -104 -274l-51 59c83 41 114 108 81 163c-34 57 -102 40 -150 -5z" />
    <glyph glyph-name="uni1ED7" unicode="&#x1ed7;" horiz-adv-x="1166" 
d="M583 -30c-321 0 -503 236 -503 572c0 339 188 568 503 568c322 0 503 -234 503 -568c0 -341 -184 -572 -503 -572zM203 542c0 -278 130 -460 380 -460c255 0 380 187 380 460c0 277 -127 456 -380 456c-258 0 -380 -188 -380 -456zM312 1573c-27 106 33 191 137 191
c110 0 210 -105 290 -105c48 0 68 45 52 95h88c27 -104 -31 -194 -139 -194s-208 105 -288 105c-55 0 -66 -50 -52 -92h-88zM318 1255l214 255h114l215 -255h-125l-147 172l-146 -172h-125z" />
    <glyph glyph-name="odieresis" unicode="&#xf6;" horiz-adv-x="1166" 
d="M583 -30c-321 0 -503 236 -503 572c0 339 188 568 503 568c322 0 503 -234 503 -568c0 -341 -184 -572 -503 -572zM203 542c0 -278 130 -460 380 -460c255 0 380 187 380 460c0 277 -127 456 -380 456c-258 0 -380 -188 -380 -456zM328 1305v140h140v-140h-140zM699 1305
v140h140v-140h-140z" />
    <glyph glyph-name="uni1ECD" unicode="&#x1ecd;" horiz-adv-x="1166" 
d="M583 -30c-321 0 -503 236 -503 572c0 339 188 568 503 568c322 0 503 -234 503 -568c0 -341 -184 -572 -503 -572zM203 542c0 -278 130 -460 380 -460c255 0 380 187 380 460c0 277 -127 456 -380 456c-258 0 -380 -188 -380 -456zM510 -382v147h145v-147h-145z" />
    <glyph glyph-name="ograve" unicode="&#xf2;" horiz-adv-x="1166" 
d="M583 -30c-321 0 -503 236 -503 572c0 339 188 568 503 568c322 0 503 -234 503 -568c0 -341 -184 -572 -503 -572zM203 542c0 -278 130 -460 380 -460c255 0 380 187 380 460c0 277 -127 456 -380 456c-258 0 -380 -188 -380 -456zM414 1545h107l108 -290h-107z" />
    <glyph glyph-name="uni1ECF" unicode="&#x1ecf;" horiz-adv-x="1166" 
d="M583 -30c-321 0 -503 236 -503 572c0 339 188 568 503 568c322 0 503 -234 503 -568c0 -341 -184 -572 -503 -572zM203 542c0 -278 130 -460 380 -460c255 0 380 187 380 460c0 277 -127 456 -380 456c-258 0 -380 -188 -380 -456zM443 1528c70 77 197 99 267 -6
c68 -106 -1 -228 -104 -274l-51 59c83 41 114 108 81 163c-34 57 -102 40 -150 -5z" />
    <glyph glyph-name="ohorn" unicode="&#x1a1;" horiz-adv-x="1166" 
d="M583 -30c-321 0 -503 236 -503 572c0 339 188 568 503 568c65 0 125 -10 178 -28c65 -18 105 -17 145 2c73 36 77 103 69 176h104c15 -97 6 -184 -69 -236c-24 -16 -56 -29 -92 -34c110 -101 168 -258 168 -448c0 -341 -184 -572 -503 -572zM203 542
c0 -278 130 -460 380 -460c255 0 380 187 380 460c0 277 -127 456 -380 456c-258 0 -380 -188 -380 -456z" />
    <glyph glyph-name="uni1EDB" unicode="&#x1edb;" horiz-adv-x="1209" 
d="M1079 1260c15 -97 6 -184 -69 -236c-24 -16 -56 -29 -92 -34c110 -101 168 -258 168 -448c0 -341 -184 -572 -503 -572c-321 0 -503 236 -503 572c0 339 188 568 503 568c65 0 125 -10 178 -28c65 -18 105 -17 145 2c73 36 77 103 69 176h104zM203 542
c0 -278 130 -460 380 -460c255 0 380 187 380 460c0 277 -127 456 -380 456c-258 0 -380 -188 -380 -456zM527 1255l108 290h107l-108 -290h-107z" />
    <glyph glyph-name="uni1EE3" unicode="&#x1ee3;" horiz-adv-x="1166" 
d="M583 -30c-321 0 -503 236 -503 572c0 339 188 568 503 568c65 0 125 -10 178 -28c65 -18 105 -17 145 2c73 36 77 103 69 176h104c15 -97 6 -184 -69 -236c-24 -16 -56 -29 -92 -34c110 -101 168 -258 168 -448c0 -341 -184 -572 -503 -572zM203 542
c0 -278 130 -460 380 -460c255 0 380 187 380 460c0 277 -127 456 -380 456c-258 0 -380 -188 -380 -456zM513 -382v147h145v-147h-145z" />
    <glyph glyph-name="uni1EDD" unicode="&#x1edd;" horiz-adv-x="1209" 
d="M1079 1260c15 -97 6 -184 -69 -236c-24 -16 -56 -29 -92 -34c110 -101 168 -258 168 -448c0 -341 -184 -572 -503 -572c-321 0 -503 236 -503 572c0 339 188 568 503 568c65 0 125 -10 178 -28c65 -18 105 -17 145 2c73 36 77 103 69 176h104zM203 542
c0 -278 130 -460 380 -460c255 0 380 187 380 460c0 277 -127 456 -380 456c-258 0 -380 -188 -380 -456zM414 1545h107l108 -290h-107z" />
    <glyph glyph-name="uni1EDF" unicode="&#x1edf;" horiz-adv-x="1166" 
d="M583 -30c-321 0 -503 236 -503 572c0 339 188 568 503 568c65 0 125 -10 178 -28c65 -18 105 -17 145 2c73 36 77 103 69 176h104c15 -97 6 -184 -69 -236c-24 -16 -56 -29 -92 -34c110 -101 168 -258 168 -448c0 -341 -184 -572 -503 -572zM203 542
c0 -278 130 -460 380 -460c255 0 380 187 380 460c0 277 -127 456 -380 456c-258 0 -380 -188 -380 -456zM443 1528c70 77 197 99 267 -6c68 -106 -1 -228 -104 -274l-51 59c83 41 114 108 81 163c-34 57 -102 40 -150 -5z" />
    <glyph glyph-name="uni1EE1" unicode="&#x1ee1;" horiz-adv-x="1166" 
d="M583 -30c-321 0 -503 236 -503 572c0 339 188 568 503 568c65 0 125 -10 178 -28c65 -18 105 -17 145 2c73 36 77 103 69 176h104c15 -97 6 -184 -69 -236c-24 -16 -56 -29 -92 -34c110 -101 168 -258 168 -448c0 -341 -184 -572 -503 -572zM203 542
c0 -278 130 -460 380 -460c255 0 380 187 380 460c0 277 -127 456 -380 456c-258 0 -380 -188 -380 -456zM302 1269c-27 106 33 191 137 191c110 0 210 -105 290 -105c48 0 68 45 52 95h88c27 -104 -31 -194 -139 -194s-208 105 -288 105c-55 0 -66 -50 -52 -92h-88z" />
    <glyph glyph-name="ohungarumlaut" unicode="&#x151;" horiz-adv-x="1166" 
d="M583 -30c-321 0 -503 236 -503 572c0 339 188 568 503 568c322 0 503 -234 503 -568c0 -341 -184 -572 -503 -572zM203 542c0 -278 130 -460 380 -460c255 0 380 187 380 460c0 277 -127 456 -380 456c-258 0 -380 -188 -380 -456zM349 1255l108 290h107l-108 -290h-107z
M711 1255l108 290h107l-108 -290h-107z" />
    <glyph glyph-name="omacron" unicode="&#x14d;" horiz-adv-x="1166" 
d="M583 -30c-321 0 -503 236 -503 572c0 339 188 568 503 568c322 0 503 -234 503 -568c0 -341 -184 -572 -503 -572zM203 542c0 -278 130 -460 380 -460c255 0 380 187 380 460c0 277 -127 456 -380 456c-258 0 -380 -188 -380 -456zM338 1320v105h491v-105h-491z" />
    <glyph glyph-name="oslash" unicode="&#xf8;" horiz-adv-x="1166" 
d="M116 -5l-80 80l126 126c-54 92 -82 209 -82 341c0 339 188 568 503 568c149 0 268 -50 353 -137l114 112l80 -79l-126 -124c54 -92 82 -208 82 -340c0 -341 -184 -572 -503 -572c-149 0 -268 51 -353 139zM203 542c0 -99 17 -187 49 -258l605 603
c-63 71 -155 111 -274 111c-258 0 -380 -188 -380 -456zM310 195c63 -72 155 -113 273 -113c255 0 380 187 380 460c0 100 -16 186 -49 257z" />
    <glyph glyph-name="otilde" unicode="&#xf5;" horiz-adv-x="1166" 
d="M583 -30c-321 0 -503 236 -503 572c0 339 188 568 503 568c322 0 503 -234 503 -568c0 -341 -184 -572 -503 -572zM203 542c0 -278 130 -460 380 -460c255 0 380 187 380 460c0 277 -127 456 -380 456c-258 0 -380 -188 -380 -456zM300 1269c-27 106 33 191 137 191
c110 0 210 -105 290 -105c48 0 68 45 52 95h88c27 -104 -31 -194 -139 -194s-208 105 -288 105c-55 0 -66 -50 -52 -92h-88z" />
    <glyph glyph-name="oe" unicode="&#x153;" horiz-adv-x="2042" 
d="M1469 -30c-208 0 -364 99 -444 269c-79 -168 -231 -269 -442 -269c-321 0 -503 236 -503 572c0 339 188 568 503 568c213 0 364 -102 442 -268c80 171 235 268 442 268c315 0 499 -224 494 -603h-873c10 -270 147 -425 379 -425c166 0 294 80 367 226l104 -46
c-87 -186 -259 -292 -469 -292zM203 542c0 -278 130 -460 380 -460c255 0 380 187 380 460c0 277 -127 456 -380 456c-258 0 -380 -188 -380 -456zM1090 611h748c-24 254 -150 390 -369 390c-224 0 -358 -141 -379 -390z" />
    <glyph glyph-name="p" unicode="p" horiz-adv-x="1168" 
d="M613 -30c-160 0 -281 75 -358 196v-646h-115v1560h105v-180c77 130 205 210 379 210c294 0 464 -248 464 -568c0 -324 -170 -572 -475 -572zM245 542c0 -265 119 -462 361 -462c238 0 359 200 359 462c0 260 -115 458 -361 458c-238 0 -359 -191 -359 -458z" />
    <glyph glyph-name="thorn" unicode="&#xfe;" horiz-adv-x="1168" 
d="M140 1440h116v-522c78 119 202 192 368 192c294 0 464 -248 464 -568c0 -324 -170 -572 -475 -572c-160 0 -281 75 -358 196v-646h-115v1920zM245 542c0 -265 119 -462 361 -462c238 0 359 200 359 462c0 260 -115 458 -361 458c-238 0 -359 -191 -359 -458z" />
    <glyph glyph-name="q" unicode="q" horiz-adv-x="1168" 
d="M555 -30c-305 0 -475 248 -475 572c0 320 170 568 464 568c174 0 302 -80 379 -210v180h105v-1560h-115v646c-77 -121 -198 -196 -358 -196zM203 542c0 -262 121 -462 359 -462c242 0 361 197 361 462c0 267 -121 458 -359 458c-246 0 -361 -198 -361 -458z" />
    <glyph glyph-name="r" unicode="r" horiz-adv-x="696" 
d="M140 0v1080h105v-170c22 39 49 72 76 95c86 79 230 102 325 75v-109c-85 20 -188 15 -271 -56c-111 -96 -119 -249 -119 -380v-535h-116z" />
    <glyph glyph-name="racute" unicode="&#x155;" horiz-adv-x="696" 
d="M140 0v1080h105v-170c22 39 49 72 76 95c86 79 230 102 325 75v-109c-85 20 -188 15 -271 -56c-111 -96 -119 -249 -119 -380v-535h-116zM266 1255l108 290h107l-108 -290h-107z" />
    <glyph glyph-name="rcaron" unicode="&#x159;" horiz-adv-x="696" 
d="M140 0v1080h105v-170c22 39 49 72 76 95c86 79 230 102 325 75v-109c-85 20 -188 15 -271 -56c-111 -96 -119 -249 -119 -380v-535h-116zM121 1510h125l146 -172l147 172h125l-215 -255h-114z" />
    <glyph glyph-name="uni0157" unicode="&#x157;" horiz-adv-x="696" 
d="M140 0v1080h105v-170c22 39 49 72 76 95c86 79 230 102 325 75v-109c-85 20 -188 15 -271 -56c-111 -96 -119 -249 -119 -380v-535h-116zM127 -530v69c22 0 80 18 75 83h-75v143h143v-143c0 -107 -78 -152 -143 -152z" />
    <glyph glyph-name="s" unicode="s" horiz-adv-x="1039" 
d="M539 -28c-249 0 -421 111 -459 299l118 20c34 -129 166 -210 346 -210c179 0 292 81 292 213c0 109 -51 143 -335 220c-301 81 -388 148 -388 296c0 178 164 300 405 300c240 0 420 -127 439 -313l-118 -22c-23 138 -148 225 -325 226c-167 3 -283 -73 -283 -185
c0 -95 68 -139 323 -203c311 -79 403 -154 403 -320c0 -201 -158 -321 -418 -321z" />
    <glyph glyph-name="sacute" unicode="&#x15b;" horiz-adv-x="1039" 
d="M539 -28c-249 0 -421 111 -459 299l118 20c34 -129 166 -210 346 -210c179 0 292 81 292 213c0 109 -51 143 -335 220c-301 81 -388 148 -388 296c0 178 164 300 405 300c240 0 420 -127 439 -313l-118 -22c-23 138 -148 225 -325 226c-167 3 -283 -73 -283 -185
c0 -95 68 -139 323 -203c311 -79 403 -154 403 -320c0 -201 -158 -321 -418 -321zM471 1255l108 290h107l-108 -290h-107z" />
    <glyph glyph-name="scaron" unicode="&#x161;" horiz-adv-x="1039" 
d="M539 -28c-249 0 -421 111 -459 299l118 20c34 -129 166 -210 346 -210c179 0 292 81 292 213c0 109 -51 143 -335 220c-301 81 -388 148 -388 296c0 178 164 300 405 300c240 0 420 -127 439 -313l-118 -22c-23 138 -148 225 -325 226c-167 3 -283 -73 -283 -185
c0 -95 68 -139 323 -203c311 -79 403 -154 403 -320c0 -201 -158 -321 -418 -321zM272 1510h125l146 -172l147 172h125l-215 -255h-114z" />
    <glyph glyph-name="scedilla" unicode="&#x15f;" horiz-adv-x="1039" 
d="M507 -479c-46 0 -87 13 -124 30l33 87c29 -11 59 -18 82 -18c56 0 87 42 87 86c0 64 -66 84 -133 106l59 160c-234 9 -394 118 -431 299l118 20c34 -129 166 -210 346 -210c179 0 292 81 292 213c0 109 -51 143 -335 220c-301 81 -388 148 -388 296
c0 178 164 300 405 300c240 0 420 -127 439 -313l-118 -22c-23 138 -148 225 -325 226c-167 3 -283 -73 -283 -185c0 -95 68 -139 323 -203c311 -79 403 -154 403 -320c0 -183 -131 -299 -350 -318l-38 -105c70 -30 120 -83 120 -169c0 -102 -83 -180 -182 -180z" />
    <glyph glyph-name="scircumflex" unicode="&#x15d;" horiz-adv-x="1039" 
d="M539 -28c-249 0 -421 111 -459 299l118 20c34 -129 166 -210 346 -210c179 0 292 81 292 213c0 109 -51 143 -335 220c-301 81 -388 148 -388 296c0 178 164 300 405 300c240 0 420 -127 439 -313l-118 -22c-23 138 -148 225 -325 226c-167 3 -283 -73 -283 -185
c0 -95 68 -139 323 -203c311 -79 403 -154 403 -320c0 -201 -158 -321 -418 -321zM268 1255l214 255h114l215 -255h-125l-147 172l-146 -172h-125z" />
    <glyph glyph-name="uni0219" unicode="&#x219;" horiz-adv-x="1039" 
d="M539 -28c-249 0 -421 111 -459 299l118 20c34 -129 166 -210 346 -210c179 0 292 81 292 213c0 109 -51 143 -335 220c-301 81 -388 148 -388 296c0 178 164 300 405 300c240 0 420 -127 439 -313l-118 -22c-23 138 -148 225 -325 226c-167 3 -283 -73 -283 -185
c0 -95 68 -139 323 -203c311 -79 403 -154 403 -320c0 -201 -158 -321 -418 -321zM456 -530v69c22 0 80 18 75 83h-75v143h143v-143c0 -107 -78 -152 -143 -152z" />
    <glyph glyph-name="germandbls" unicode="&#xdf;" horiz-adv-x="1174" 
d="M603 -28c-64 0 -126 5 -182 28v114c59 -20 109 -26 176 -26c200 0 336 115 336 319c0 187 -160 302 -400 307v109c142 17 271 97 271 269c0 167 -105 266 -270 266c-114 0 -215 -50 -251 -159c-16 -49 -21 -108 -21 -166v-1033h-122v1063c0 70 9 133 27 182
c57 148 183 225 366 225c232 0 392 -136 392 -379c0 -145 -67 -265 -191 -305c123 -14 320 -142 320 -380c0 -262 -158 -434 -451 -434z" />
    <glyph glyph-name="t" unicode="t" horiz-adv-x="780" 
d="M713 0c-172 -37 -352 -12 -418 127c-36 75 -33 148 -33 248v600h-242v105h242v300h116v-300h335v-105h-335v-598c0 -92 -4 -145 22 -194c48 -92 152 -105 313 -79v-104z" />
    <glyph glyph-name="tbar" unicode="&#x167;" horiz-adv-x="820" 
d="M20 491v105h242v379h-242v105h242v300h116v-300h335v-105h-335v-379h342v-105h-342v-114c0 -92 -4 -145 22 -194c48 -92 152 -105 313 -79v-104c-172 -37 -352 -12 -418 127c-36 75 -33 148 -33 248v116h-242z" />
    <glyph glyph-name="tcaron" unicode="&#x165;" horiz-adv-x="780" 
d="M713 0c-172 -37 -352 -12 -418 127c-36 75 -33 148 -33 248v600h-242v105h242v300h116v-300h335v-105h-335v-598c0 -92 -4 -145 22 -194c48 -92 152 -105 313 -79v-104zM526 1255l108 290h107l-108 -290h-107z" />
    <glyph glyph-name="uni0163" unicode="&#x163;" horiz-adv-x="780" 
d="M713 0c-65 -14 -131 -19 -191 -13l-43 -117c70 -30 120 -83 120 -169c0 -102 -83 -180 -182 -180c-46 0 -87 13 -124 30l33 87c29 -11 59 -18 82 -18c56 0 87 42 87 86c0 64 -66 84 -133 106l71 195c-60 22 -110 60 -138 120c-36 75 -33 148 -33 248v600h-242v105h242
v300h116v-300h335v-105h-335v-598c0 -92 -4 -145 22 -194c48 -92 152 -105 313 -79v-104z" />
    <glyph glyph-name="uni021B" unicode="&#x21b;" horiz-adv-x="780" 
d="M713 0c-172 -37 -352 -12 -418 127c-36 75 -33 148 -33 248v600h-242v105h242v300h116v-300h335v-105h-335v-598c0 -92 -4 -145 22 -194c48 -92 152 -105 313 -79v-104zM325 -530v69c22 0 80 18 75 83h-75v143h143v-143c0 -107 -78 -152 -143 -152z" />
    <glyph glyph-name="u" unicode="u" 
d="M555 -25c-298 0 -435 232 -435 514v591h116v-562c0 -273 108 -432 334 -432c235 0 341 173 341 411v583h116v-1080h-105v162c-80 -127 -213 -187 -367 -187z" />
    <glyph glyph-name="uacute" unicode="&#xfa;" 
d="M555 -25c-298 0 -435 232 -435 514v591h116v-562c0 -273 108 -432 334 -432c235 0 341 173 341 411v583h116v-1080h-105v162c-80 -127 -213 -187 -367 -187zM515 1255l108 290h107l-108 -290h-107z" />
    <glyph glyph-name="ubreve" unicode="&#x16d;" 
d="M555 -25c-298 0 -435 232 -435 514v591h116v-562c0 -273 108 -432 334 -432c235 0 341 173 341 411v583h116v-1080h-105v162c-80 -127 -213 -187 -367 -187zM331 1453h100c0 -78 65 -143 143 -143c80 0 143 65 143 143h100c0 -134 -109 -243 -243 -243s-243 109 -243 243
z" />
    <glyph glyph-name="ucircumflex" unicode="&#xfb;" 
d="M555 -25c-298 0 -435 232 -435 514v591h116v-562c0 -273 108 -432 334 -432c235 0 341 173 341 411v583h116v-1080h-105v162c-80 -127 -213 -187 -367 -187zM301 1255l214 255h114l215 -255h-125l-147 172l-146 -172h-125z" />
    <glyph glyph-name="udieresis" unicode="&#xfc;" 
d="M555 -25c-298 0 -435 232 -435 514v591h116v-562c0 -273 108 -432 334 -432c235 0 341 173 341 411v583h116v-1080h-105v162c-80 -127 -213 -187 -367 -187zM317 1305v140h140v-140h-140zM688 1305v140h140v-140h-140z" />
    <glyph glyph-name="uni1EE5" unicode="&#x1ee5;" 
d="M555 -25c-298 0 -435 232 -435 514v591h116v-562c0 -273 108 -432 334 -432c235 0 341 173 341 411v583h116v-1080h-105v162c-80 -127 -213 -187 -367 -187zM503 -382v147h145v-147h-145z" />
    <glyph glyph-name="ugrave" unicode="&#xf9;" 
d="M555 -25c-298 0 -435 232 -435 514v591h116v-562c0 -273 108 -432 334 -432c235 0 341 173 341 411v583h116v-1080h-105v162c-80 -127 -213 -187 -367 -187zM435 1545h107l108 -290h-107z" />
    <glyph glyph-name="uni1EE7" unicode="&#x1ee7;" 
d="M555 -25c-298 0 -435 232 -435 514v591h116v-562c0 -273 108 -432 334 -432c235 0 341 173 341 411v583h116v-1080h-105v162c-80 -127 -213 -187 -367 -187zM443 1528c70 77 197 99 267 -6c68 -106 -1 -228 -104 -274l-51 59c83 41 114 108 81 163
c-34 57 -102 40 -150 -5z" />
    <glyph glyph-name="uhorn" unicode="&#x1b0;" 
d="M555 -25c-298 0 -435 232 -435 514v591h116v-562c0 -273 108 -432 334 -432c235 0 341 173 341 411v583h13c29 1 61 -1 93 7c87 19 85 99 77 173h104c15 -97 5 -184 -68 -236c-30 -21 -65 -30 -103 -33v-991h-105v162c-80 -127 -213 -187 -367 -187z" />
    <glyph glyph-name="uni1EE9" unicode="&#x1ee9;" 
d="M555 -25c-298 0 -435 232 -435 514v591h116v-562c0 -273 108 -432 334 -432c235 0 341 173 341 411v583h13c29 1 61 -1 93 7c87 19 85 99 77 173h104c15 -97 5 -184 -68 -236c-30 -21 -65 -30 -103 -33v-991h-105v162c-80 -127 -213 -187 -367 -187zM515 1255l108 290
h107l-108 -290h-107z" />
    <glyph glyph-name="uni1EF1" unicode="&#x1ef1;" 
d="M555 -25c-298 0 -435 232 -435 514v591h116v-562c0 -273 108 -432 334 -432c235 0 341 173 341 411v583h14c29 1 61 -1 93 7c87 19 85 99 77 173h104c15 -97 5 -184 -68 -236c-30 -21 -66 -31 -104 -33v-991h-105v162c-80 -127 -213 -187 -367 -187zM513 -382v147h145
v-147h-145z" />
    <glyph glyph-name="uni1EEB" unicode="&#x1eeb;" 
d="M555 -25c-298 0 -435 232 -435 514v591h116v-562c0 -273 108 -432 334 -432c235 0 341 173 341 411v583h13c29 1 61 -1 93 7c87 19 85 99 77 173h104c15 -97 5 -184 -68 -236c-30 -21 -65 -30 -103 -33v-991h-105v162c-80 -127 -213 -187 -367 -187zM435 1545h107
l108 -290h-107z" />
    <glyph glyph-name="uni1EED" unicode="&#x1eed;" 
d="M555 -25c-298 0 -435 232 -435 514v591h116v-562c0 -273 108 -432 334 -432c235 0 341 173 341 411v583h13c29 1 61 -1 93 7c87 19 85 99 77 173h104c15 -97 5 -184 -68 -236c-30 -21 -65 -30 -103 -33v-991h-105v162c-80 -127 -213 -187 -367 -187zM443 1528
c70 77 197 99 267 -6c68 -106 -1 -228 -104 -274l-51 59c83 41 114 108 81 163c-34 57 -102 40 -150 -5z" />
    <glyph glyph-name="uni1EEF" unicode="&#x1eef;" 
d="M555 -25c-298 0 -435 232 -435 514v591h116v-562c0 -273 108 -432 334 -432c235 0 341 173 341 411v583h13c29 1 61 -1 93 7c87 19 85 99 77 173h104c15 -97 5 -184 -68 -236c-30 -21 -65 -30 -103 -33v-991h-105v162c-80 -127 -213 -187 -367 -187zM302 1269
c-27 106 33 191 137 191c110 0 210 -105 290 -105c48 0 68 45 52 95h88c27 -104 -31 -194 -139 -194s-208 105 -288 105c-55 0 -66 -50 -52 -92h-88z" />
    <glyph glyph-name="uhungarumlaut" unicode="&#x171;" 
d="M555 -25c-298 0 -435 232 -435 514v591h116v-562c0 -273 108 -432 334 -432c235 0 341 173 341 411v583h116v-1080h-105v162c-80 -127 -213 -187 -367 -187zM331 1255l108 290h107l-108 -290h-107zM693 1255l108 290h107l-108 -290h-107z" />
    <glyph glyph-name="umacron" unicode="&#x16b;" 
d="M555 -25c-298 0 -435 232 -435 514v591h116v-562c0 -273 108 -432 334 -432c235 0 341 173 341 411v583h116v-1080h-105v162c-80 -127 -213 -187 -367 -187zM327 1320v105h491v-105h-491z" />
    <glyph glyph-name="uogonek" unicode="&#x173;" 
d="M555 -25c-298 0 -435 232 -435 514v591h116v-562c0 -273 108 -432 334 -432c235 0 341 173 341 411v583h116v-1080c-122 -77 -228 -200 -228 -292c0 -54 38 -91 82 -91c33 0 69 21 98 53l57 -67c-45 -58 -104 -86 -162 -86c-100 0 -183 88 -183 188
c0 114 101 245 231 347v110c-80 -127 -213 -187 -367 -187z" />
    <glyph glyph-name="uring" unicode="&#x16f;" 
d="M555 -25c-298 0 -435 232 -435 514v591h116v-562c0 -273 108 -432 334 -432c235 0 341 173 341 411v583h116v-1080h-105v162c-80 -127 -213 -187 -367 -187zM367 1405c0 113 94 207 207 207c115 0 207 -94 207 -207c0 -115 -92 -207 -207 -207c-113 0 -207 92 -207 207z
M464 1405c0 -60 50 -110 110 -110c62 0 110 50 110 110c0 61 -48 110 -110 110c-60 0 -110 -49 -110 -110z" />
    <glyph glyph-name="utilde" unicode="&#x169;" 
d="M555 -25c-298 0 -435 232 -435 514v591h116v-562c0 -273 108 -432 334 -432c235 0 341 173 341 411v583h116v-1080h-105v162c-80 -127 -213 -187 -367 -187zM313 1269c-27 106 33 191 137 191c110 0 210 -105 290 -105c48 0 68 45 52 95h88c27 -104 -31 -194 -139 -194
s-208 105 -288 105c-55 0 -66 -50 -52 -92h-88z" />
    <glyph glyph-name="v" unicode="v" horiz-adv-x="986" 
d="M432 0l-392 1080h119l334 -923l333 923h120l-392 -1080h-122z" />
    <glyph glyph-name="w" unicode="w" horiz-adv-x="1511" 
d="M370 0l-330 1080h118l271 -887l271 887h111l272 -887l272 887h116l-330 -1080h-108l-277 899l-278 -899h-108z" />
    <glyph glyph-name="wacute" unicode="&#x1e83;" horiz-adv-x="1511" 
d="M370 0l-330 1080h118l271 -887l271 887h111l272 -887l272 887h116l-330 -1080h-108l-277 899l-278 -899h-108zM710 1255l108 290h107l-108 -290h-107z" />
    <glyph glyph-name="wcircumflex" unicode="&#x175;" horiz-adv-x="1511" 
d="M370 0l-330 1080h118l271 -887l271 887h111l272 -887l272 887h116l-330 -1080h-108l-277 899l-278 -899h-108zM484 1255l214 255h114l215 -255h-125l-147 172l-146 -172h-125z" />
    <glyph glyph-name="wdieresis" unicode="&#x1e85;" horiz-adv-x="1511" 
d="M370 0l-330 1080h118l271 -887l271 887h111l272 -887l272 887h116l-330 -1080h-108l-277 899l-278 -899h-108zM500 1305v140h140v-140h-140zM871 1305v140h140v-140h-140z" />
    <glyph glyph-name="wgrave" unicode="&#x1e81;" horiz-adv-x="1511" 
d="M370 0l-330 1080h118l271 -887l271 887h111l272 -887l272 887h116l-330 -1080h-108l-277 899l-278 -899h-108zM586 1545h107l108 -290h-107z" />
    <glyph glyph-name="x" unicode="x" horiz-adv-x="1036" 
d="M20 0l431 546l-421 534h140l349 -447l347 447h140l-421 -534l431 -546h-142l-355 459l-357 -459h-142z" />
    <glyph glyph-name="y" unicode="y" horiz-adv-x="1033" 
d="M298 -480l178 480l-439 1080h123l372 -927l339 927h121l-574 -1560h-120z" />
    <glyph glyph-name="yacute" unicode="&#xfd;" horiz-adv-x="1033" 
d="M298 -480l178 480l-439 1080h123l372 -927l339 927h121l-574 -1560h-120zM458 1255l108 290h107l-108 -290h-107z" />
    <glyph glyph-name="ycircumflex" unicode="&#x177;" horiz-adv-x="1033" 
d="M298 -480l178 480l-439 1080h123l372 -927l339 927h121l-574 -1560h-120zM261 1255l214 255h114l215 -255h-125l-147 172l-146 -172h-125z" />
    <glyph glyph-name="ydieresis" unicode="&#xff;" horiz-adv-x="1033" 
d="M298 -480l178 480l-439 1080h123l372 -927l339 927h121l-574 -1560h-120zM270 1305v140h140v-140h-140zM641 1305v140h140v-140h-140z" />
    <glyph glyph-name="uni1EF5" unicode="&#x1ef5;" horiz-adv-x="1033" 
d="M298 -480l178 480l-439 1080h123l372 -927l339 927h121l-574 -1560h-120zM693 -382v147h145v-147h-145z" />
    <glyph glyph-name="ygrave" unicode="&#x1ef3;" horiz-adv-x="1033" 
d="M298 -480l178 480l-439 1080h123l372 -927l339 927h121l-574 -1560h-120zM373 1545h107l108 -290h-107z" />
    <glyph glyph-name="uni1EF7" unicode="&#x1ef7;" horiz-adv-x="1033" 
d="M298 -480l178 480l-439 1080h123l372 -927l339 927h121l-574 -1560h-120zM383 1528c70 77 197 99 267 -6c68 -106 -1 -228 -104 -274l-51 59c83 41 114 108 81 163c-34 57 -102 40 -150 -5z" />
    <glyph glyph-name="uni1EF9" unicode="&#x1ef9;" horiz-adv-x="1033" 
d="M298 -480l178 480l-439 1080h123l372 -927l339 927h121l-574 -1560h-120zM247 1269c-27 106 33 191 137 191c110 0 210 -105 290 -105c48 0 68 45 52 95h88c27 -104 -31 -194 -139 -194s-208 105 -288 105c-55 0 -66 -50 -52 -92h-88z" />
    <glyph glyph-name="z" unicode="z" horiz-adv-x="1057" 
d="M40 0v31l738 936h-688v113h887v-34l-738 -933h694v-113h-893z" />
    <glyph glyph-name="zacute" unicode="&#x17a;" horiz-adv-x="1057" 
d="M40 0v31l738 936h-688v113h887v-34l-738 -933h694v-113h-893zM513 1255l108 290h107l-108 -290h-107z" />
    <glyph glyph-name="zcaron" unicode="&#x17e;" horiz-adv-x="1057" 
d="M40 0v31l738 936h-688v113h887v-34l-738 -933h694v-113h-893zM280 1510h125l146 -172l147 172h125l-215 -255h-114z" />
    <glyph glyph-name="zdotaccent" unicode="&#x17c;" horiz-adv-x="1057" 
d="M40 0v31l738 936h-688v113h887v-34l-738 -933h694v-113h-893zM464 1315v145h145v-145h-145z" />
    <glyph glyph-name="a.ss01" horiz-adv-x="1205" 
d="M556 -30c-306 0 -476 248 -476 570s169 570 479 570c194 0 339 -102 401 -273v243h105v-1080h-105v245c-63 -173 -210 -275 -404 -275zM203 541c0 -261 121 -461 360 -461c241 0 360 197 360 462c0 267 -121 458 -359 458c-243 0 -361 -194 -361 -459z" />
    <glyph glyph-name="l.tall" horiz-adv-x="435" 
d="M160 0v1560h115v-1560h-115z" />
    <glyph glyph-name="ordfeminine" unicode="&#xaa;" horiz-adv-x="626" 
d="M263 540c-120 0 -183 74 -183 162c0 83 48 134 131 159c64 19 156 30 240 42c-3 79 -39 117 -128 117c-60 0 -113 -26 -132 -89l-91 27c26 94 101 152 224 152c98 0 172 -33 204 -104c16 -35 18 -74 18 -118v-333h-85v82c-43 -65 -108 -97 -198 -97zM176 703
c0 -44 31 -83 103 -83c93 0 148 56 161 116c8 26 10 61 10 85c-79 -11 -145 -19 -194 -34c-44 -14 -80 -38 -80 -84z" />
    <glyph glyph-name="ordmasculine" unicode="&#xba;" horiz-adv-x="685" 
d="M342 540c-161 0 -262 118 -262 286c0 169 104 284 262 284c162 0 263 -117 263 -284c0 -170 -102 -286 -263 -286zM183 826c0 -118 54 -194 159 -194c108 0 160 79 160 194c0 117 -53 193 -160 193c-109 0 -159 -79 -159 -193z" />
    <glyph glyph-name="uni0410" unicode="&#x410;" horiz-adv-x="1243" 
d="M40 0l510 1440h143l510 -1440h-122l-129 362h-662l-128 -362h-122zM328 471h586l-294 827z" />
    <glyph glyph-name="uni0411" unicode="&#x411;" horiz-adv-x="1185" 
d="M140 0v1440h865v-112h-750v-456h428c28 0 60 -2 97 -8c214 -31 345 -210 345 -428s-130 -397 -345 -428c-37 -6 -69 -8 -97 -8h-543zM255 112h426c23 0 57 2 89 8c156 31 234 168 234 316s-78 285 -234 316c-32 6 -66 8 -89 8h-426v-648z" />
    <glyph glyph-name="uni0412" unicode="&#x412;" horiz-adv-x="1214" 
d="M140 0v1440h551c225 0 394 -156 394 -362c0 -132 -69 -251 -177 -312c153 -67 248 -195 248 -370c0 -248 -179 -396 -423 -396h-593zM256 113h439c192 0 338 102 338 278c0 174 -134 311 -305 311h-472v-589zM256 813h434c151 0 274 114 274 269c0 148 -118 247 -274 247
h-434v-516z" />
    <glyph glyph-name="uni0413" unicode="&#x413;" horiz-adv-x="1050" 
d="M140 0v1440h890v-112h-775v-1328h-115z" />
    <glyph glyph-name="uni0403" unicode="&#x403;" horiz-adv-x="1050" 
d="M140 0v1440h890v-112h-775v-1328h-115zM383 1615l108 290h107l-108 -290h-107z" />
    <glyph glyph-name="uni0490" unicode="&#x490;" horiz-adv-x="1070" 
d="M140 0v1440h795v173h115v-285h-795v-1328h-115z" />
    <glyph glyph-name="uni0414" unicode="&#x414;" horiz-adv-x="1466" 
d="M77 112c235 0 255 268 282 510c30 272 37 496 54 818h871v-1328h102v-352h-116v240h-1078v-240h-115v352zM326 112h843v1216h-646c-13 -255 -23 -488 -50 -750c-23 -235 -52 -388 -147 -466z" />
    <glyph glyph-name="uni0415" unicode="&#x415;" horiz-adv-x="1130" 
d="M140 0v1440h890v-112h-775v-547h655v-112h-655v-557h775v-112h-890z" />
    <glyph glyph-name="uni0400" unicode="&#x400;" horiz-adv-x="1130" 
d="M140 0v1440h890v-112h-775v-547h655v-112h-655v-557h775v-112h-890zM458 1905h107l108 -290h-107z" />
    <glyph glyph-name="uni0401" unicode="&#x401;" horiz-adv-x="1130" 
d="M140 0v1440h890v-112h-775v-547h655v-112h-655v-557h775v-112h-890zM304 1665v140h140v-140h-140zM675 1665v140h140v-140h-140z" />
    <glyph glyph-name="uni0416" unicode="&#x416;" horiz-adv-x="1765" 
d="M20 0l670 748l-610 692h150l595 -681v681h115v-681l595 681h150l-610 -692l670 -748h-153l-652 733v-733h-115v733l-653 -733h-152z" />
    <glyph glyph-name="uni0417" unicode="&#x417;" horiz-adv-x="1157" 
d="M584 -30c-291 0 -458 142 -521 310l110 56c48 -145 188 -253 415 -253c241 0 383 122 383 319c0 210 -160 267 -367 274c-146 6 -147 6 -165 6v112c13 0 119 0 161 2c203 10 323 117 323 281c0 178 -137 281 -330 281c-184 0 -301 -95 -380 -250l-105 62
c89 177 256 300 488 300c240 0 450 -133 450 -391c0 -164 -85 -287 -198 -341c151 -42 246 -156 246 -339c0 -260 -194 -429 -510 -429z" />
    <glyph glyph-name="uni0418" unicode="&#x418;" horiz-adv-x="1346" 
d="M1206 0h-116v1237l-834 -1237h-116v1440h116v-1235l834 1235h116v-1440z" />
    <glyph glyph-name="uni0419" unicode="&#x419;" horiz-adv-x="1346" 
d="M140 0v1440h116v-1235l834 1235h116v-1440h-116v1237l-834 -1237h-116zM446 1813h100c0 -78 65 -143 143 -143c80 0 143 65 143 143h100c0 -134 -109 -243 -243 -243s-243 109 -243 243z" />
    <glyph glyph-name="uni040D" unicode="&#x40d;" horiz-adv-x="1346" 
d="M140 0v1440h116v-1235l834 1235h116v-1440h-116v1237l-834 -1237h-116zM536 1905h107l108 -290h-107z" />
    <glyph glyph-name="uni041A" unicode="&#x41a;" horiz-adv-x="1152" 
d="M140 0v1440h115v-684l685 684h152l-689 -692l749 -748h-154l-743 736v-736h-115z" />
    <glyph glyph-name="uni040C" unicode="&#x40c;" horiz-adv-x="1152" 
d="M140 0v1440h115v-684l685 684h152l-689 -692l749 -748h-154l-743 736v-736h-115zM551 1615l108 290h107l-108 -290h-107z" />
    <glyph glyph-name="uni041B" unicode="&#x41b;" horiz-adv-x="1383" 
d="M40 108c154 -17 181 28 227 342c48 308 68 579 86 990h890v-1440h-115v1328h-660c-20 -309 -32 -589 -84 -940c-38 -249 -85 -458 -344 -388v108z" />
    <glyph glyph-name="uni041C" unicode="&#x41c;" horiz-adv-x="1672" 
d="M140 0v1440h107l590 -1274l584 1274h111v-1438h-113v1173l-536 -1175h-94l-537 1175v-1175h-112z" />
    <glyph glyph-name="uni041D" unicode="&#x41d;" horiz-adv-x="1345" 
d="M140 0v1440h115v-664h834v664h116v-1440h-116v664h-834v-664h-115z" />
    <glyph glyph-name="uni041E" unicode="&#x41e;" horiz-adv-x="1429" 
d="M715 -30c-431 0 -655 309 -655 750s224 750 655 750c430 0 654 -309 654 -750s-224 -750 -654 -750zM183 720c-3 -375 178 -637 532 -637c354 -1 531 262 531 637s-177 637 -531 637c-354 1 -529 -262 -532 -637z" />
    <glyph glyph-name="uni041F" unicode="&#x41f;" horiz-adv-x="1361" 
d="M140 0v1440h1081v-1440h-115v1328h-851v-1328h-115z" />
    <glyph glyph-name="uni0420" unicode="&#x420;" horiz-adv-x="1185" 
d="M140 0v1440h543c28 0 60 -2 97 -8c216 -33 345 -211 345 -431c0 -221 -129 -398 -345 -432c-37 -6 -69 -8 -97 -8h-428v-561h-115zM255 674h426c23 0 57 2 89 8c156 32 234 171 234 319s-78 287 -234 318c-32 7 -66 9 -89 9h-426v-654z" />
    <glyph glyph-name="uni0421" unicode="&#x421;" horiz-adv-x="1415" 
d="M715 -30c-431 0 -655 309 -655 750s224 750 655 750c335 0 545 -188 620 -478l-119 -29c-62 241 -230 394 -501 394c-354 0 -529 -262 -532 -637c-4 -375 178 -637 532 -637c271 0 439 153 501 394l119 -29c-75 -290 -285 -478 -620 -478z" />
    <glyph glyph-name="uni0422" unicode="&#x422;" horiz-adv-x="1187" 
d="M536 0v1328h-516v112h1147v-112h-516v-1328h-115z" />
    <glyph glyph-name="uni0423" unicode="&#x423;" horiz-adv-x="1237" 
d="M400 0l154 326l-517 1114h126l451 -988l458 988h123l-666 -1440h-129z" />
    <glyph glyph-name="uni040E" unicode="&#x40e;" horiz-adv-x="1237" 
d="M400 0l154 326l-517 1114h126l451 -988l458 988h123l-666 -1440h-129zM361 1813h100c0 -78 65 -143 143 -143c80 0 143 65 143 143h100c0 -134 -109 -243 -243 -243s-243 109 -243 243z" />
    <glyph glyph-name="uni0424" unicode="&#x424;" horiz-adv-x="1403" 
d="M644 187c-296 -50 -584 161 -584 578s288 630 584 580v95h115v-95c296 50 584 -163 584 -580s-288 -628 -584 -578v-187h-115v187zM181 765c0 -310 201 -501 463 -465v934c-262 36 -463 -159 -463 -469zM759 300c261 -36 463 155 463 464c0 308 -202 506 -463 470v-934z
" />
    <glyph glyph-name="uni0425" unicode="&#x425;" horiz-adv-x="1179" 
d="M20 0l502 730l-490 710h139l418 -615l419 615h139l-490 -710l502 -730h-139l-431 633l-430 -633h-139z" />
    <glyph glyph-name="uni0427" unicode="&#x427;" horiz-adv-x="1274" 
d="M1018 0v598c-91 -52 -211 -86 -360 -86c-378 0 -518 224 -518 532v396h116v-352c0 -292 115 -460 404 -460c159 0 284 49 358 103v709h116v-1440h-116z" />
    <glyph glyph-name="uni0426" unicode="&#x426;" horiz-adv-x="1410" 
d="M1275 -173v173h-1135v1440h115v-1330h870v1330h115v-1330h150v-283h-115z" />
    <glyph glyph-name="uni0428" unicode="&#x428;" horiz-adv-x="1787" 
d="M140 0v1440h115v-1328h581v1328h115v-1328h580v1328h116v-1440h-1507z" />
    <glyph glyph-name="uni0429" unicode="&#x429;" horiz-adv-x="1817" 
d="M1682 -173v173h-1542v1440h115v-1328h581v1328h115v-1328h580v1328h116v-1330h150v-283h-115z" />
    <glyph glyph-name="uni040F" unicode="&#x40f;" horiz-adv-x="1443" 
d="M664 -240v240h-524v1440h115v-1328h933v1328h115v-1440h-524v-240h-115z" />
    <glyph glyph-name="uni042C" unicode="&#x42c;" horiz-adv-x="1205" 
d="M140 0v1440h115v-561h428c27 0 60 -2 96 -8c216 -34 346 -211 346 -432c0 -220 -129 -398 -346 -431c-36 -6 -68 -8 -96 -8h-543zM255 112h426c23 0 57 2 88 9c157 31 235 170 235 318s-78 287 -235 319c-31 6 -65 8 -88 8h-426v-654z" />
    <glyph glyph-name="uni042B" unicode="&#x42b;" horiz-adv-x="1521" 
d="M140 0v1440h115v-561h428c27 0 60 -2 96 -8c216 -34 346 -211 346 -432c0 -220 -129 -398 -346 -431c-36 -6 -68 -8 -96 -8h-543zM255 112h426c23 0 57 2 88 9c157 31 235 170 235 318s-78 287 -235 319c-31 6 -65 8 -88 8h-426v-654zM1265 0v1440h115v-1440h-115z" />
    <glyph glyph-name="uni042A" unicode="&#x42a;" horiz-adv-x="1209" 
d="M167 0v1335h-184v105h299v-561h428c27 0 60 -2 96 -8c216 -34 346 -211 346 -432c0 -220 -129 -398 -346 -431c-36 -6 -68 -8 -96 -8h-543zM282 112h426c23 0 57 2 88 9c157 31 235 170 235 318s-78 287 -235 319c-31 6 -65 8 -88 8h-426v-654z" />
    <glyph glyph-name="uni0409" unicode="&#x409;" horiz-adv-x="2173" 
d="M1108 0v1328h-660c-20 -309 -32 -589 -84 -940c-38 -249 -85 -458 -344 -388v108c154 -17 181 28 227 342c48 308 68 579 86 990h890v-561h428c27 0 60 -2 96 -8c216 -34 346 -211 346 -432c0 -220 -129 -398 -346 -431c-36 -6 -68 -8 -96 -8h-543zM1223 112h426
c23 0 57 2 88 9c157 31 235 170 235 318s-78 287 -235 319c-31 6 -65 8 -88 8h-426v-654z" />
    <glyph glyph-name="uni040A" unicode="&#x40a;" horiz-adv-x="2087" 
d="M140 0v1440h115v-562h768v562h115v-561h428c27 0 60 -2 96 -8c216 -34 346 -211 346 -432c0 -220 -129 -398 -346 -431c-36 -6 -68 -8 -96 -8h-543v766h-768v-766h-115zM1138 112h426c23 0 57 2 88 9c157 31 235 170 235 318s-78 287 -235 319c-31 6 -65 8 -88 8h-426
v-654z" />
    <glyph glyph-name="uni0405" unicode="&#x405;" horiz-adv-x="1205" 
d="M629 -30c-297 0 -515 155 -566 402l118 20c50 -193 223 -310 451 -310c232 0 394 118 394 299c0 172 -145 227 -242 256l-362 108c-192 57 -303 166 -303 338c0 232 201 387 482 387c284 -1 492 -164 534 -421l-119 -21c-29 198 -198 329 -416 329
c-210 1 -358 -116 -358 -270c0 -159 155 -212 272 -246l290 -86c110 -32 338 -102 338 -370c0 -259 -211 -415 -513 -415z" />
    <glyph glyph-name="uni0404" unicode="&#x404;" horiz-adv-x="1428" 
d="M745 -30c-428 0 -660 330 -652 750c8 449 232 750 652 750c319 0 551 -182 623 -497l-119 -18c-54 247 -238 397 -501 401c-333 4 -513 -238 -531 -580h534v-112h-534c6 -140 32 -272 125 -396c95 -127 242 -183 406 -185c242 -4 429 140 496 379l114 -31
c-72 -290 -304 -461 -613 -461z" />
    <glyph glyph-name="uni042D" unicode="&#x42d;" horiz-adv-x="1395" 
d="M683 -30c-309 0 -541 171 -613 461l114 31c67 -239 254 -383 496 -379c164 2 311 58 406 185c93 124 119 256 125 396h-534v112h534c-18 342 -198 584 -531 580c-263 -4 -447 -154 -501 -401l-119 18c72 315 304 497 623 497c420 0 644 -301 652 -750
c8 -420 -224 -750 -652 -750z" />
    <glyph glyph-name="uni0406" unicode="&#x406;" horiz-adv-x="435" 
d="M160 0v1440h115v-1440h-115z" />
    <glyph glyph-name="uni0407" unicode="&#x407;" horiz-adv-x="435" 
d="M160 0v1440h115v-1440h-115zM-38 1665v140h140v-140h-140zM333 1665v140h140v-140h-140z" />
    <glyph glyph-name="uni0408" unicode="&#x408;" horiz-adv-x="903" 
d="M372 -28c-183 0 -328 112 -372 286l116 27c27 -114 128 -201 257 -201c80 0 172 34 219 123c33 61 33 127 33 226v1007h116v-1007c0 -114 5 -197 -46 -286c-67 -117 -187 -175 -323 -175z" />
    <glyph glyph-name="uni040B" unicode="&#x40b;" horiz-adv-x="1274" 
d="M0 1330v110h570v-110h-314v-488c91 52 211 86 360 86c378 0 518 -224 518 -532v-396h-116v352c0 292 -115 460 -404 460c-159 0 -284 -49 -358 -103v-709h-116v1330h-140z" />
    <glyph glyph-name="uni042E" unicode="&#x42e;" horiz-adv-x="1815" 
d="M140 0v1440h115v-662h366c18 371 202 690 567 690c383 0 567 -353 567 -748c0 -411 -184 -750 -567 -750c-365 0 -549 321 -567 692h-366v-662h-115zM743 720c-3 -341 149 -637 445 -637c295 0 441 296 444 637c4 341 -149 636 -444 636c-296 0 -442 -295 -445 -636z" />
    <glyph glyph-name="uni042F" unicode="&#x42f;" horiz-adv-x="1242" 
d="M1102 0h-115v561h-500l-272 -561h-135l290 595c-161 63 -253 219 -253 406c0 220 129 398 345 431c37 6 69 8 97 8h543v-1440zM238 1001c0 -148 78 -287 234 -319c32 -6 66 -8 89 -8h426v654h-426c-23 0 -57 -2 -89 -9c-156 -31 -234 -170 -234 -318z" />
    <glyph glyph-name="uni0402" unicode="&#x402;" horiz-adv-x="1272" 
d="M143 0v1330h-143v110h570v-110h-322v-417c84 135 238 197 431 197c327 0 513 -179 513 -544c0 -337 -159 -566 -496 -566v116c245 0 380 170 380 462c0 293 -141 418 -404 418c-204 0 -338 -76 -388 -249c-24 -84 -25 -180 -25 -264v-483h-116z" />
    <glyph glyph-name="uni04AE" unicode="&#x4ae;" horiz-adv-x="1075" 
d="M480 0v608l-480 832h133l405 -700l404 700h133l-479 -832v-608h-116z" />
    <glyph glyph-name="uni04BA" unicode="&#x4ba;" horiz-adv-x="1274" 
d="M256 1440v-598c91 52 211 86 360 86c378 0 518 -224 518 -532v-396h-116v352c0 292 -115 460 -404 460c-159 0 -284 -49 -358 -103v-709h-116v1440h116z" />
    <glyph glyph-name="uni04E8" unicode="&#x4e8;" horiz-adv-x="1469" 
d="M715 -30c-431 0 -655 309 -655 750s224 750 655 750c430 0 654 -309 654 -750s-224 -750 -654 -750zM184 662c15 -344 196 -579 531 -579c335 -1 512 235 530 579h-1061zM185 778h1060c-18 344 -195 579 -530 579c-335 1 -510 -235 -530 -579z" />
    <glyph glyph-name="uni0414.loclBGR" horiz-adv-x="1436" 
d="M63 -163v275h113l470 1328h143l470 -1328h110v-275h-113v163h-1080v-163h-113zM298 112h839l-421 1184z" />
    <glyph glyph-name="uni0416.loclBGR" horiz-adv-x="1765" 
d="M20 0l670 748l-610 692h150l595 -681v681h115v-681l595 681h150l-610 -692l670 -748h-153l-652 733v-733h-115v733l-653 -733h-152z" />
    <glyph glyph-name="uni041A.loclBGR" horiz-adv-x="1152" 
d="M140 0v1440h115v-684l685 684h152l-689 -692l749 -748h-154l-743 736v-736h-115z" />
    <glyph glyph-name="uni041B.loclBGR" horiz-adv-x="1183" 
d="M520 1440h143l510 -1440h-122l-461 1296l-458 -1296h-122z" />
    <glyph glyph-name="uni0430" unicode="&#x430;" horiz-adv-x="1098" 
d="M452 -30c-249 0 -372 148 -372 318c0 183 127 274 284 311c158 35 372 58 499 74c0 219 -84 326 -310 326c-165 0 -272 -73 -314 -227l-118 33c49 196 202 305 436 305c198 0 339 -82 392 -221c22 -58 29 -139 29 -216v-673h-105v188c-83 -141 -234 -218 -421 -218z
M198 287c0 -99 66 -211 260 -211c220 0 365 126 393 319c10 54 12 124 12 172c-132 -14 -326 -32 -460 -66c-95 -25 -205 -82 -205 -214z" />
    <glyph glyph-name="uni0431" unicode="&#x431;" horiz-adv-x="1156" 
d="M568 -30c-301 0 -482 189 -487 594c-3 170 26 406 60 511c32 100 99 193 187 249c161 108 442 110 621 146l14 -107c-144 -26 -434 -42 -578 -134c-112 -68 -170 -214 -185 -401c82 132 231 205 402 205c292 0 474 -215 474 -532c0 -323 -192 -532 -508 -531zM204 501
c0 -258 131 -419 374 -419c246 0 376 166 376 419c0 259 -139 419 -378 419s-372 -160 -372 -419z" />
    <glyph glyph-name="uni0432" unicode="&#x432;" horiz-adv-x="1056" 
d="M140 0v1080h429c37 0 112 -3 172 -19c126 -33 202 -143 202 -277c0 -72 -22 -133 -62 -180c-19 -23 -45 -41 -67 -52c19 -4 44 -16 68 -31c77 -48 114 -129 114 -231c0 -149 -79 -242 -192 -273c-55 -16 -121 -17 -171 -17h-493zM256 104h374c28 0 80 5 115 13
c90 21 129 95 129 175c0 104 -68 176 -175 190c-31 5 -68 5 -96 5h-347v-383zM256 592h336c32 0 82 4 116 16c77 26 114 98 114 173c0 83 -42 150 -117 176c-54 18 -123 18 -138 18h-311v-383z" />
    <glyph glyph-name="uni0433" unicode="&#x433;" horiz-adv-x="920" 
d="M140 0v1080h730v-112h-615v-968h-115z" />
    <glyph glyph-name="uni0453" unicode="&#x453;" horiz-adv-x="920" 
d="M140 0v1080h730v-112h-615v-968h-115zM376 1255l108 290h107l-108 -290h-107z" />
    <glyph glyph-name="uni0491" unicode="&#x491;" horiz-adv-x="920" 
d="M140 0v1080h615v173h115v-285h-615v-968h-115z" />
    <glyph glyph-name="uni0434" unicode="&#x434;" horiz-adv-x="1173" 
d="M60 105c124 0 167 76 202 244s49 358 66 731h684v-975h101v-345h-112v240h-828v-240h-113v345zM285 105h611v870h-457c-12 -218 -29 -516 -69 -672c-22 -89 -41 -157 -85 -198z" />
    <glyph glyph-name="uni0435" unicode="&#x435;" horiz-adv-x="1158" 
d="M585 -30c-310 0 -505 220 -505 568c0 354 193 572 503 572c315 0 499 -224 494 -603h-873c10 -270 146 -425 379 -425c166 0 294 80 367 226l104 -46c-87 -186 -259 -292 -469 -292zM206 611h747c-23 254 -150 390 -368 390c-224 0 -358 -141 -379 -390z" />
    <glyph glyph-name="uni0450" unicode="&#x450;" horiz-adv-x="1158" 
d="M585 -30c-310 0 -505 220 -505 568c0 354 193 572 503 572c315 0 499 -224 494 -603h-873c10 -270 146 -425 379 -425c166 0 294 80 367 226l104 -46c-87 -186 -259 -292 -469 -292zM206 611h747c-23 254 -150 390 -368 390c-224 0 -358 -141 -379 -390zM439 1545h107
l108 -290h-107z" />
    <glyph glyph-name="uni0451" unicode="&#x451;" horiz-adv-x="1158" 
d="M585 -30c-310 0 -505 220 -505 568c0 354 193 572 503 572c315 0 499 -224 494 -603h-873c10 -270 146 -425 379 -425c166 0 294 80 367 226l104 -46c-87 -186 -259 -292 -469 -292zM206 611h747c-23 254 -150 390 -368 390c-224 0 -358 -141 -379 -390zM327 1305v140
h140v-140h-140zM698 1305v140h140v-140h-140z" />
    <glyph glyph-name="uni0436" unicode="&#x436;" horiz-adv-x="1353" 
d="M20 0l476 540l-458 540h132l451 -537v537h110v-537l451 537h133l-458 -540l476 -540h-136l-466 537v-537h-110v537l-465 -537h-136z" />
    <glyph glyph-name="uni0437" unicode="&#x437;" horiz-adv-x="1003" 
d="M530 -30c-222 0 -382 103 -473 279l94 57c79 -146 205 -224 369 -224c171 0 285 85 285 227c0 137 -83 198 -285 198h-144v103h143c158 0 260 63 260 186c0 136 -116 202 -256 202c-136 0 -260 -61 -336 -151l-80 78c103 122 247 185 426 185c208 0 364 -116 364 -308
c0 -107 -47 -186 -126 -239c106 -45 152 -161 152 -266c0 -198 -168 -327 -393 -327z" />
    <glyph glyph-name="uni0438" unicode="&#x438;" horiz-adv-x="1112" 
d="M972 1080v-1080h-113v887l-618 -887h-101v1080h113v-883l618 883h101z" />
    <glyph glyph-name="uni0439" unicode="&#x439;" horiz-adv-x="1112" 
d="M972 1080v-1080h-113v887l-618 -887h-101v1080h113v-883l618 883h101zM328 1453h100c0 -78 65 -143 143 -143c80 0 143 65 143 143h100c0 -134 -109 -243 -243 -243s-243 109 -243 243z" />
    <glyph glyph-name="uni045D" unicode="&#x45d;" horiz-adv-x="1112" 
d="M972 1080v-1080h-113v887l-618 -887h-101v1080h113v-883l618 883h101zM468 1545h107l108 -290h-107z" />
    <glyph glyph-name="uni043A" unicode="&#x43a;" horiz-adv-x="964" 
d="M140 0v1080h116v-520l511 520h161l-535 -540l611 -540h-179l-569 520v-520h-116z" />
    <glyph glyph-name="uni045C" unicode="&#x45c;" horiz-adv-x="964" 
d="M140 0v1080h116v-520l511 520h161l-535 -540l611 -540h-179l-569 520v-520h-116zM404 1255l108 290h107l-108 -290h-107z" />
    <glyph glyph-name="uni043B" unicode="&#x43b;" horiz-adv-x="1132" 
d="M40 104c121 -22 142 48 161 163c34 200 54 447 76 813h715v-1080h-116v968h-487c-22 -319 -51 -615 -84 -777c-31 -159 -75 -226 -265 -191v104z" />
    <glyph glyph-name="uni043C" unicode="&#x43c;" horiz-adv-x="1362" 
d="M140 0v1080h108l433 -930l432 930h109v-1080h-114v823l-381 -823h-93l-381 823v-823h-113z" />
    <glyph glyph-name="uni043D" unicode="&#x43d;" horiz-adv-x="1161" 
d="M140 0v1080h115v-484h651v484h115v-1080h-115v484h-651v-484h-115z" />
    <glyph glyph-name="uni043E" unicode="&#x43e;" horiz-adv-x="1166" 
d="M583 -30c-321 0 -503 236 -503 572c0 339 188 568 503 568c322 0 503 -234 503 -568c0 -341 -184 -572 -503 -572zM203 542c0 -278 130 -460 380 -460c255 0 380 187 380 460c0 277 -127 456 -380 456c-258 0 -380 -188 -380 -456z" />
    <glyph glyph-name="uni043F" unicode="&#x43f;" horiz-adv-x="1112" 
d="M140 0v1080h832v-1080h-115v968h-602v-968h-115z" />
    <glyph glyph-name="uni0440" unicode="&#x440;" horiz-adv-x="1168" 
d="M613 -30c-160 0 -281 75 -358 196v-646h-115v1560h105v-180c77 130 205 210 379 210c294 0 464 -248 464 -568c0 -324 -170 -572 -475 -572zM245 542c0 -265 119 -462 361 -462c238 0 359 200 359 462c0 260 -115 458 -361 458c-238 0 -359 -191 -359 -458z" />
    <glyph glyph-name="uni0441" unicode="&#x441;" horiz-adv-x="1093" 
d="M581 -30c-324 0 -496 234 -501 570c5 343 180 570 502 570c209 0 379 -108 442 -283l-112 -41c-55 134 -179 212 -331 212c-255 0 -375 -188 -378 -458c3 -276 129 -458 378 -458c152 0 268 72 329 207l114 -39c-85 -184 -238 -280 -443 -280z" />
    <glyph glyph-name="uni0442" unicode="&#x442;" horiz-adv-x="997" 
d="M441 0v970h-391v110h897v-110h-391v-970h-115z" />
    <glyph glyph-name="uni0443" unicode="&#x443;" horiz-adv-x="1033" 
d="M298 -480l178 480l-439 1080h123l372 -927l339 927h121l-574 -1560h-120z" />
    <glyph glyph-name="uni045E" unicode="&#x45e;" horiz-adv-x="1033" 
d="M298 -480l178 480l-439 1080h123l372 -927l339 927h121l-574 -1560h-120zM321 1453h100c0 -78 65 -143 143 -143c80 0 143 65 143 143h100c0 -134 -109 -243 -243 -243s-243 109 -243 243z" />
    <glyph glyph-name="uni0444" unicode="&#x444;" horiz-adv-x="1418" 
d="M654 -21c-316 -50 -574 164 -574 559s258 613 574 563v334h110v-334c316 50 574 -168 574 -563s-258 -609 -574 -559v-429h-110v429zM201 538c0 -359 239 -485 453 -449v902c-216 36 -453 -93 -453 -453zM764 89c214 -36 453 89 453 449c0 361 -237 489 -453 453v-902z
" />
    <glyph glyph-name="uni0445" unicode="&#x445;" horiz-adv-x="1036" 
d="M20 0l431 546l-421 534h140l349 -447l347 447h140l-421 -534l431 -546h-142l-355 459l-357 -459h-142z" />
    <glyph glyph-name="uni0447" unicode="&#x447;" horiz-adv-x="1067" 
d="M811 415c-71 -36 -185 -70 -311 -70c-217 0 -359 99 -401 281c-19 84 -19 194 -19 224v230h116v-230c0 -49 2 -108 11 -159c27 -159 128 -244 314 -244c110 0 219 30 290 79v554h116v-1080h-116v415z" />
    <glyph glyph-name="uni0446" unicode="&#x446;" horiz-adv-x="1211" 
d="M1076 -173v173h-936v1080h115v-968h602v968h115v-970h219v-283h-115z" />
    <glyph glyph-name="uni0448" unicode="&#x448;" horiz-adv-x="1495" 
d="M140 0v1080h113v-970h439v970h113v-970h437v970h113v-1080h-1215z" />
    <glyph glyph-name="uni0449" unicode="&#x449;" horiz-adv-x="1530" 
d="M1395 -173v173h-1255v1080h113v-970h439v970h113v-970h437v970h113v-970h155v-283h-115z" />
    <glyph glyph-name="uni045F" unicode="&#x45f;" horiz-adv-x="1112" 
d="M523 -240v240h-383v1080h115v-968h602v968h115v-1080h-334v-240h-115z" />
    <glyph glyph-name="uni044C" unicode="&#x44c;" horiz-adv-x="1047" 
d="M141 0l-1 1080h117v-422h272c63 0 119 -2 166 -11c151 -27 272 -114 272 -318c0 -183 -109 -286 -244 -315c-55 -12 -116 -14 -177 -14h-405zM257 105h274c49 0 119 0 165 13c75 21 150 75 150 211c0 133 -64 191 -165 212c-47 10 -102 12 -150 12h-274v-448z" />
    <glyph glyph-name="uni044B" unicode="&#x44b;" horiz-adv-x="1294" 
d="M141 0l-1 1080h117v-422h209c64 0 119 -2 166 -11c152 -28 272 -114 272 -318c0 -183 -109 -286 -243 -315c-56 -12 -116 -14 -178 -14h-342zM257 105h211c49 0 119 0 166 13c74 21 149 75 149 211c0 133 -64 191 -165 212c-46 10 -101 12 -150 12h-211v-448zM1039 0
v1080h115v-1080h-115z" />
    <glyph glyph-name="uni044A" unicode="&#x44a;" horiz-adv-x="1090" 
d="M185 0l-2 975h-143v105h260v-422h273c63 0 118 -2 165 -11c152 -27 272 -114 272 -318c0 -183 -108 -286 -243 -315c-55 -12 -116 -14 -178 -14h-404zM300 105h274c49 0 119 0 166 13c74 21 149 75 149 211c0 133 -63 191 -165 212c-46 10 -101 12 -150 12h-274v-448z
" />
    <glyph glyph-name="uni0459" unicode="&#x459;" horiz-adv-x="1662" 
d="M40 104c121 -22 141 46 161 163c36 200 54 447 76 813h658v-422h210c45 0 107 0 165 -11c141 -24 272 -110 272 -315c0 -192 -112 -289 -243 -318c-64 -14 -141 -14 -178 -14h-341l-2 968h-429c-22 -319 -51 -615 -84 -777c-31 -159 -75 -226 -265 -191v104zM935 105h211
c56 0 116 0 166 13c71 20 149 71 149 215c0 129 -64 187 -165 208c-54 11 -121 12 -150 12h-211v-448z" />
    <glyph glyph-name="uni045A" unicode="&#x45a;" horiz-adv-x="1588" 
d="M140 0v1080h115v-422h489v422h117v-422h210c45 0 107 0 165 -11c141 -24 272 -110 272 -315c0 -192 -112 -289 -243 -318c-64 -14 -141 -14 -178 -14h-341l-2 553h-489v-553h-115zM861 105h211c56 0 116 0 166 13c71 20 149 71 149 215c0 129 -64 187 -165 208
c-54 11 -121 12 -150 12h-211v-448z" />
    <glyph glyph-name="uni0455" unicode="&#x455;" horiz-adv-x="1039" 
d="M539 -28c-249 0 -421 111 -459 299l118 20c34 -129 166 -210 346 -210c179 0 292 81 292 213c0 109 -51 143 -335 220c-301 81 -388 148 -388 296c0 178 164 300 405 300c240 0 420 -127 439 -313l-118 -22c-23 138 -148 225 -325 226c-167 3 -283 -73 -283 -185
c0 -95 68 -139 323 -203c311 -79 403 -154 403 -320c0 -201 -158 -321 -418 -321z" />
    <glyph glyph-name="uni0454" unicode="&#x454;" horiz-adv-x="1093" 
d="M579 -30c-314 0 -499 224 -499 570c0 343 182 570 495 570c217 0 386 -108 449 -283l-112 -41c-55 135 -179 212 -332 212c-237 0 -358 -164 -374 -405h525v-105h-525c18 -247 141 -406 375 -406c152 0 268 72 329 207l114 -39c-85 -184 -238 -280 -445 -280z" />
    <glyph glyph-name="uni044D" unicode="&#x44d;" horiz-adv-x="1093" 
d="M514 -30c-207 0 -360 96 -445 280l114 39c61 -135 177 -207 329 -207c234 0 357 159 375 406h-525v105h525c-16 241 -137 405 -374 405c-153 0 -277 -77 -332 -212l-112 41c63 175 232 283 449 283c313 0 495 -227 495 -570c0 -346 -185 -570 -499 -570z" />
    <glyph glyph-name="uni0456" unicode="&#x456;" horiz-adv-x="435" 
d="M160 1298v147h115v-147h-115zM160 0v1080h115v-1080h-115z" />
    <glyph glyph-name="uni0457" unicode="&#x457;" horiz-adv-x="435" 
d="M160 0v1080h115v-1080h-115zM-38 1305v140h140v-140h-140zM333 1305v140h140v-140h-140z" />
    <glyph glyph-name="uni0458" unicode="&#x458;" horiz-adv-x="475" 
d="M-20 -480v114h65c90 0 158 43 158 164v1282h116v-1296c0 -182 -78 -264 -253 -264h-86zM203 1298v147h116v-147h-116z" />
    <glyph glyph-name="uni045B" unicode="&#x45b;" 
d="M931 562c0 273 -108 432 -334 432c-235 0 -341 -173 -341 -411v-583h-116v1193h-134v105h134v142h105v-142h252v-105h-252v-275c80 127 213 187 367 187c298 0 435 -232 435 -514v-591h-116v562z" />
    <glyph glyph-name="uni044E" unicode="&#x44e;" horiz-adv-x="1542" 
d="M959 -30c-296 0 -473 206 -492 512h-212v-482h-115v1080h115v-482h210c20 312 201 512 493 512c324 0 504 -235 504 -568c0 -340 -183 -572 -503 -572zM579 542c0 -278 130 -460 376 -460c260 0 384 184 384 460c0 279 -128 456 -382 456c-241 0 -378 -170 -378 -456z
" />
    <glyph glyph-name="uni044F" unicode="&#x44f;" horiz-adv-x="1085" 
d="M828 0v422h-273c-19 0 -37 1 -55 2l-289 -424h-131l297 440c-143 29 -259 127 -259 307c0 176 112 283 243 317c62 16 129 16 178 16h404l2 -1080h-117zM239 749c0 -116 69 -184 166 -208c53 -13 110 -14 149 -14h274v448h-274c-36 0 -109 0 -164 -17
c-70 -21 -151 -84 -151 -209z" />
    <glyph glyph-name="uni0452" unicode="&#x452;" 
d="M924 -375c-46 -8 -111 -2 -149 9v100c119 -18 156 7 156 152v676c0 273 -108 432 -334 432c-235 0 -341 -173 -341 -411v-583h-116v1193h-134v105h134v142h105v-142h252v-105h-252v-277c80 130 214 189 367 189c298 0 435 -232 435 -514v-779c0 -118 -47 -173 -123 -187z
" />
    <glyph glyph-name="uni04AF" unicode="&#x4af;" horiz-adv-x="986" 
d="M432 -360v360l-392 1080h120l333 -923l334 923h119l-392 -1080v-360h-122z" />
    <glyph glyph-name="uni04BB" unicode="&#x4bb;" horiz-adv-x="1100" 
d="M289 665c71 36 185 70 311 70c217 0 359 -99 401 -281c19 -84 19 -194 19 -224v-230h-116v230c0 49 -2 108 -11 159c-27 159 -128 244 -314 244c-110 0 -219 -30 -290 -79v-554h-116v1080h116v-415z" />
    <glyph glyph-name="uni04E9" unicode="&#x4e9;" horiz-adv-x="1166" 
d="M583 -30c-321 0 -503 236 -503 572c0 339 188 568 503 568c322 0 503 -234 503 -568c0 -341 -184 -572 -503 -572zM205 593h756c-14 248 -141 405 -378 405c-241 0 -364 -164 -378 -405zM205 488c16 -247 145 -406 378 -406c238 0 363 163 378 406h-756z" />
    <glyph glyph-name="uni0432.loclBGR" horiz-adv-x="1112" 
d="M593 -30c-237 0 -393 116 -437 287c-11 47 -16 103 -16 161v645c0 67 8 131 27 182c50 138 177 225 364 225c235 0 394 -138 394 -375c0 -148 -63 -267 -188 -309c139 -21 317 -143 317 -394c0 -243 -166 -422 -461 -422zM262 415c0 -52 5 -103 16 -139
c35 -117 171 -192 320 -192c197 0 335 127 335 314c0 197 -154 309 -400 316v109c147 18 271 97 271 273c0 162 -105 262 -270 262c-112 0 -214 -48 -251 -159c-18 -52 -21 -114 -21 -166v-618z" />
    <glyph glyph-name="uni0433.loclBGR" horiz-adv-x="1039" 
d="M500 -28c-260 0 -418 120 -418 321c0 166 92 241 403 320c255 64 323 108 323 203c0 112 -116 188 -283 185c-177 -1 -302 -88 -325 -226l-118 22c19 186 199 313 439 313c241 0 405 -122 405 -300c0 -148 -87 -215 -388 -296c-284 -77 -335 -111 -335 -220
c0 -132 113 -213 292 -213c180 0 312 81 346 210l118 -20c-38 -188 -210 -299 -459 -299z" />
    <glyph glyph-name="uni0434.loclBGR" horiz-adv-x="1168" 
d="M560 -510c-160 0 -329 64 -425 239l104 62c66 -134 197 -186 322 -186c262 0 351 147 350 433v125c-77 -119 -197 -193 -356 -193c-305 0 -475 248 -475 572c0 320 170 568 464 568c174 0 302 -80 379 -210v180h105v-1042c0 -64 -2 -122 -11 -180
c-35 -251 -185 -368 -457 -368zM203 542c0 -262 121 -462 359 -462c242 0 361 197 361 462c0 267 -121 458 -359 458c-246 0 -361 -198 -361 -458z" />
    <glyph glyph-name="uni0436.loclBGR" horiz-adv-x="1358" 
d="M22 0l476 540l-459 540h133l449 -535v895h110v-895l450 535h132l-458 -540l476 -540h-136l-464 535v-535h-110v535l-464 -535h-135z" />
    <glyph glyph-name="uni0437.loclBGR" horiz-adv-x="1191" 
d="M601 -390c-291 0 -458 142 -521 310l110 56c48 -145 188 -253 415 -253c241 0 383 122 383 319c0 210 -160 267 -367 274c-146 6 -147 6 -165 6v112c13 0 119 0 161 2c203 10 323 117 323 281c0 178 -137 281 -330 281c-184 0 -301 -95 -380 -250l-105 62
c89 177 256 300 488 300c240 0 450 -133 450 -391c0 -164 -85 -287 -198 -341c151 -42 246 -156 246 -339c0 -260 -194 -429 -510 -429z" />
    <glyph glyph-name="uni0438.loclBGR" 
d="M555 -25c-298 0 -435 232 -435 514v591h116v-562c0 -273 108 -432 334 -432c235 0 341 173 341 411v583h116v-1080h-105v162c-80 -127 -213 -187 -367 -187z" />
    <glyph glyph-name="uni0439.loclBGR" 
d="M555 -25c-298 0 -435 232 -435 514v591h116v-562c0 -273 108 -432 334 -432c235 0 341 173 341 411v583h116v-1080h-105v162c-80 -127 -213 -187 -367 -187zM330 1453h100c0 -78 65 -143 143 -143c80 0 143 65 143 143h100c0 -134 -109 -243 -243 -243s-243 109 -243 243
z" />
    <glyph glyph-name="uni045D.loclBGR" horiz-adv-x="1117" 
d="M581 1255l-108 290h107l108 -290h-107zM120 489v591h116v-562c0 -273 108 -432 334 -432c235 0 341 173 341 411v583h116v-1080h-105v162c-80 -127 -213 -187 -367 -187c-298 0 -435 232 -435 514z" />
    <glyph glyph-name="uni043A.loclBGR" horiz-adv-x="964" 
d="M140 0v1440h116v-880l511 520h161l-535 -540l611 -540h-179l-569 520v-520h-116z" />
    <glyph glyph-name="uni043B.loclBGR" horiz-adv-x="986" 
d="M432 1080h122l392 -1080h-120l-333 923l-334 -923h-119z" />
    <glyph glyph-name="uni043D.loclBGR" horiz-adv-x="1161" 
d="M140 0v1080h115v-484h651v484h115v-1080h-115v484h-651v-484h-115z" />
    <glyph glyph-name="uni043F.loclBGR" 
d="M931 562c0 273 -108 432 -334 432c-235 0 -341 -173 -341 -411v-583h-116v1080h105v-162c80 127 213 187 367 187c298 0 435 -232 435 -514v-591h-116v562z" />
    <glyph glyph-name="uni0442.loclBGR" horiz-adv-x="1662" 
d="M1427 726c0 174 -112 280 -260 280c-126 0 -268 -78 -268 -299l-2 -707h-114l2 715c0 178 -107 291 -263 291c-159 0 -267 -118 -267 -299v-707h-115v1080h105v-113c66 88 172 142 301 142c137 0 257 -61 315 -185c61 116 180 185 325 185c211 0 356 -140 356 -366
l-2 -743h-115z" />
    <glyph glyph-name="uni0447.loclBGR" horiz-adv-x="1067" 
d="M811 415c-71 -36 -185 -70 -311 -70c-217 0 -359 99 -401 281c-19 84 -19 194 -19 224v230h116v-230c0 -49 2 -108 11 -159c27 -159 128 -244 314 -244c110 0 219 30 290 79v554h116v-1080h-116v415z" />
    <glyph glyph-name="uni0446.loclBGR" horiz-adv-x="1197" 
d="M922 0v162c-80 -127 -213 -187 -367 -187c-298 0 -435 232 -435 514v591h116v-562c0 -273 108 -432 334 -432c235 0 341 173 341 411v583h116v-970h150v-273h-115v163h-140z" />
    <glyph glyph-name="uni0448.loclBGR" horiz-adv-x="1662" 
d="M235 354c0 -174 112 -280 260 -280c126 0 268 78 268 299l2 707h114l-2 -715c0 -178 107 -291 263 -291c159 0 267 118 267 299v707h115v-1080h-105v113c-66 -88 -172 -142 -301 -142c-137 0 -257 61 -315 185c-61 -116 -180 -185 -325 -185c-211 0 -356 140 -356 366
l2 743h115z" />
    <glyph glyph-name="uni0449.loclBGR" horiz-adv-x="1692" 
d="M1417 0v113c-66 -88 -172 -142 -301 -142c-137 0 -257 61 -315 185c-61 -116 -180 -185 -325 -185c-211 0 -356 140 -356 366l2 743h115l-2 -726c0 -174 112 -280 260 -280c126 0 268 78 268 299l2 707h114l-2 -715c0 -178 107 -291 263 -291c159 0 267 118 267 299v707
h115v-970h150v-283h-115v173h-140z" />
    <glyph glyph-name="uni044C.loclBGR" horiz-adv-x="1047" 
d="M141 0l-1 1080h117v-422h272c63 0 119 -2 166 -11c151 -27 272 -114 272 -318c0 -183 -109 -286 -244 -315c-55 -12 -116 -14 -177 -14h-405zM257 105h274c49 0 119 0 165 13c75 21 150 75 150 211c0 133 -64 191 -165 212c-47 10 -102 12 -150 12h-274v-448z" />
    <glyph glyph-name="uni044E.loclBGR" horiz-adv-x="1541" 
d="M140 0v1440h115v-842h210c20 312 201 512 493 512c324 0 504 -235 504 -568c0 -340 -183 -572 -503 -572c-296 0 -473 206 -492 512h-212v-482h-115zM579 542c0 -278 130 -460 376 -460c260 0 384 184 384 460c0 279 -128 456 -382 456c-241 0 -378 -170 -378 -456z" />
    <glyph glyph-name="uni0431.loclSRB" horiz-adv-x="1156" 
d="M568 -30c-301 0 -482 189 -487 594c-3 170 26 406 60 511c32 100 99 193 187 249c161 108 442 110 621 146l14 -107c-144 -26 -434 -42 -578 -134c-112 -68 -170 -214 -185 -401c82 132 231 205 402 205c292 0 474 -215 474 -532c0 -323 -192 -532 -508 -531zM204 501
c0 -258 131 -419 374 -419c246 0 376 166 376 419c0 259 -139 419 -378 419s-372 -160 -372 -419z" />
    <glyph glyph-name="Alpha" unicode="&#x391;" horiz-adv-x="1243" 
d="M40 0l510 1440h143l510 -1440h-122l-129 362h-662l-128 -362h-122zM328 471h586l-294 827z" />
    <glyph glyph-name="Beta" unicode="&#x392;" horiz-adv-x="1214" 
d="M140 0v1440h551c225 0 394 -156 394 -362c0 -132 -69 -251 -177 -312c153 -67 248 -195 248 -370c0 -248 -179 -396 -423 -396h-593zM256 113h439c192 0 338 102 338 278c0 174 -134 311 -305 311h-472v-589zM256 813h434c151 0 274 114 274 269c0 148 -118 247 -274 247
h-434v-516z" />
    <glyph glyph-name="Gamma" unicode="&#x393;" horiz-adv-x="1050" 
d="M140 0v1440h890v-112h-775v-1328h-115z" />
    <glyph glyph-name="uni0394" unicode="&#x394;" horiz-adv-x="1243" 
d="M40 0l510 1440h143l510 -1440h-1163zM202 112h839l-421 1184z" />
    <glyph glyph-name="Epsilon" unicode="&#x395;" horiz-adv-x="1130" 
d="M140 0v1440h890v-112h-775v-547h655v-112h-655v-557h775v-112h-890z" />
    <glyph glyph-name="Zeta" unicode="&#x396;" horiz-adv-x="1195" 
d="M100 0v31l812 1297h-802v112h985v-34l-808 -1295h805v-111h-992z" />
    <glyph glyph-name="Eta" unicode="&#x397;" horiz-adv-x="1345" 
d="M140 0v1440h115v-664h834v664h116v-1440h-116v664h-834v-664h-115z" />
    <glyph glyph-name="Theta" unicode="&#x398;" horiz-adv-x="1429" 
d="M715 -30c-431 0 -655 309 -655 750s224 750 655 750c430 0 654 -309 654 -750s-224 -750 -654 -750zM183 720c-3 -375 178 -637 532 -637c354 -1 531 262 531 637s-177 637 -531 637c-354 1 -529 -262 -532 -637zM469 668v105h491v-105h-491z" />
    <glyph glyph-name="Iota" unicode="&#x399;" horiz-adv-x="435" 
d="M160 0v1440h115v-1440h-115z" />
    <glyph glyph-name="Kappa" unicode="&#x39a;" horiz-adv-x="1152" 
d="M140 0v1440h115v-684l685 684h152l-689 -692l749 -748h-154l-743 736v-736h-115z" />
    <glyph glyph-name="Lambda" unicode="&#x39b;" horiz-adv-x="1183" 
d="M520 1440h143l510 -1440h-122l-461 1296l-458 -1296h-122z" />
    <glyph glyph-name="Mu" unicode="&#x39c;" horiz-adv-x="1672" 
d="M140 0v1440h107l590 -1274l584 1274h111v-1438h-113v1173l-536 -1175h-94l-537 1175v-1175h-112z" />
    <glyph glyph-name="Nu" unicode="&#x39d;" horiz-adv-x="1346" 
d="M140 0v1440h116l834 -1235v1235h116v-1440h-116l-834 1237v-1237h-116z" />
    <glyph glyph-name="Xi" unicode="&#x39e;" horiz-adv-x="1361" 
d="M140 1328v112h1081v-112h-1081zM140 0v112h1081v-112h-1081zM240 664v112h881v-112h-881z" />
    <glyph glyph-name="Omicron" unicode="&#x39f;" horiz-adv-x="1429" 
d="M715 -30c-431 0 -655 309 -655 750s224 750 655 750c430 0 654 -309 654 -750s-224 -750 -654 -750zM183 720c-3 -375 178 -637 532 -637c354 -1 531 262 531 637s-177 637 -531 637c-354 1 -529 -262 -532 -637z" />
    <glyph glyph-name="Pi" unicode="&#x3a0;" horiz-adv-x="1361" 
d="M140 0v1440h1081v-1440h-115v1328h-851v-1328h-115z" />
    <glyph glyph-name="Rho" unicode="&#x3a1;" horiz-adv-x="1185" 
d="M140 0v1440h543c28 0 60 -2 97 -8c216 -33 345 -211 345 -431c0 -221 -129 -398 -345 -432c-37 -6 -69 -8 -97 -8h-428v-561h-115zM255 674h426c23 0 57 2 89 8c156 32 234 171 234 319s-78 287 -234 318c-32 7 -66 9 -89 9h-426v-654z" />
    <glyph glyph-name="Sigma" unicode="&#x3a3;" horiz-adv-x="1310" 
d="M140 0v107l603 613l-603 609v111h1030v-112h-856l585 -592v-32l-585 -592h824v-112h-998z" />
    <glyph glyph-name="Tau" unicode="&#x3a4;" horiz-adv-x="1187" 
d="M536 0v1328h-516v112h1147v-112h-516v-1328h-115z" />
    <glyph glyph-name="Upsilon" unicode="&#x3a5;" horiz-adv-x="1075" 
d="M480 0v608l-480 832h133l405 -700l404 700h133l-479 -832v-608h-116z" />
    <glyph glyph-name="Phi" unicode="&#x3a6;" horiz-adv-x="1403" 
d="M644 187c-296 -50 -584 161 -584 578s288 630 584 580v95h115v-95c296 50 584 -163 584 -580s-288 -628 -584 -578v-187h-115v187zM181 765c0 -310 201 -501 463 -465v934c-262 36 -463 -159 -463 -469zM759 300c261 -36 463 155 463 464c0 308 -202 506 -463 470v-934z
" />
    <glyph glyph-name="Chi" unicode="&#x3a7;" horiz-adv-x="1179" 
d="M20 0l502 730l-490 710h139l418 -615l419 615h139l-490 -710l502 -730h-139l-431 633l-430 -633h-139z" />
    <glyph glyph-name="Psi" unicode="&#x3a8;" horiz-adv-x="1405" 
d="M645 362c-239 7 -402 136 -471 327c-33 88 -34 161 -34 201v550h112v-459c0 -45 0 -127 19 -204c44 -182 180 -304 374 -306v969h115v-969c195 0 332 127 375 308c18 77 18 158 18 202v459h112v-550c0 -41 0 -112 -34 -200c-69 -193 -235 -323 -471 -328v-362h-115v362z
" />
    <glyph glyph-name="uni03A9" unicode="&#x3a9;" horiz-adv-x="1429" 
d="M63 0v112h293c-180 140 -296 359 -296 640c0 405 243 716 655 716c411 0 654 -311 654 -716c0 -281 -116 -500 -296 -640h291v-112h-462l2 112c150 79 334 291 342 609c9 340 -194 635 -531 635c-334 0 -532 -291 -532 -626c0 -332 195 -541 344 -618v-112h-464z" />
    <glyph glyph-name="Alphatonos" unicode="&#x386;" horiz-adv-x="1248" 
d="M46 0l510 1440h143l510 -1440h-122l-129 362h-663l-127 -362h-122zM122 1150l108 290h107l-108 -290h-107zM334 471h585l-293 827z" />
    <glyph glyph-name="Epsilontonos" unicode="&#x388;" horiz-adv-x="1388" 
d="M398 0v1440h890v-112h-775v-547h655v-112h-655v-557h775v-112h-890zM39 1150l108 290h107l-108 -290h-107z" />
    <glyph glyph-name="Etatonos" unicode="&#x389;" horiz-adv-x="1600" 
d="M395 0v1440h115v-664h834v664h116v-1440h-116v664h-834v-664h-115zM35 1150l108 290h107l-108 -290h-107z" />
    <glyph glyph-name="Iotatonos" unicode="&#x38a;" horiz-adv-x="648" 
d="M392 0v1440h115v-1440h-115zM35 1150l108 290h107l-108 -290h-107z" />
    <glyph glyph-name="Omicrontonos" unicode="&#x38c;" horiz-adv-x="1616" 
d="M901 -30c-431 0 -655 309 -655 750s224 750 655 750c430 0 654 -309 654 -750s-224 -750 -654 -750zM59 1150l108 290h107l-108 -290h-107zM369 720c-3 -375 178 -637 532 -637c354 -1 531 262 531 637s-177 637 -531 637c-354 1 -529 -262 -532 -637z" />
    <glyph glyph-name="Upsilontonos" unicode="&#x38e;" horiz-adv-x="1428" 
d="M833 0v608l-480 832h133l405 -700l404 700h133l-479 -832v-608h-116zM72 1150l108 290h107l-108 -290h-107z" />
    <glyph glyph-name="Omegatonos" unicode="&#x38f;" horiz-adv-x="1646" 
d="M246 0v112h293c-180 140 -296 359 -296 640c0 405 243 716 655 716c411 0 654 -311 654 -716c0 -281 -116 -500 -296 -640h291v-112h-462l2 112c150 79 334 291 342 609c9 340 -194 635 -531 635c-334 0 -532 -291 -532 -626c0 -332 195 -541 344 -618v-112h-464z
M62 1150l108 290h107l-108 -290h-107z" />
    <glyph glyph-name="Iotadieresis" unicode="&#x3aa;" horiz-adv-x="435" 
d="M160 0v1440h115v-1440h-115zM-38 1665v140h140v-140h-140zM333 1665v140h140v-140h-140z" />
    <glyph glyph-name="Upsilondieresis" unicode="&#x3ab;" horiz-adv-x="1075" 
d="M480 0v608l-480 832h133l405 -700l404 700h133l-479 -832v-608h-116zM283 1665v140h140v-140h-140zM654 1665v140h140v-140h-140z" />
    <glyph glyph-name="alpha" unicode="&#x3b1;" horiz-adv-x="1205" 
d="M556 -30c-306 0 -476 248 -476 570s169 570 479 570c194 0 339 -102 401 -273v243h105v-1080h-105v245c-63 -173 -210 -275 -404 -275zM203 541c0 -261 121 -461 360 -461c241 0 360 197 360 462c0 267 -121 458 -359 458c-243 0 -361 -194 -361 -459z" />
    <glyph glyph-name="beta" unicode="&#x3b2;" horiz-adv-x="1110" 
d="M140 1080c0 62 9 119 26 165c49 138 176 225 364 225c235 0 393 -138 393 -375c0 -149 -64 -269 -191 -309c139 -19 320 -141 320 -394c0 -243 -166 -422 -461 -422c-150 0 -264 50 -337 129v-579h-114v1560zM260 415c0 -52 5 -103 16 -139c35 -117 171 -192 321 -192
c196 0 335 127 335 314c0 197 -154 309 -401 316v109c147 18 271 97 271 273c0 162 -105 262 -270 262c-112 0 -213 -48 -251 -159c-17 -52 -21 -114 -21 -166v-618z" />
    <glyph glyph-name="gamma" unicode="&#x3b3;" horiz-adv-x="986" 
d="M432 -360v360l-392 1080h120l333 -923l334 923h119l-392 -1080v-360h-122z" />
    <glyph glyph-name="delta" unicode="&#x3b4;" horiz-adv-x="1166" 
d="M582 -28c-320 0 -502 211 -502 522c0 269 137 469 374 506c-120 46 -221 116 -221 248c0 100 57 185 182 211c45 11 90 11 117 11h385v-100h-360c-38 0 -72 -3 -100 -10c-65 -15 -110 -52 -110 -114c0 -115 168 -160 425 -243c203 -69 314 -256 314 -500
c0 -316 -184 -531 -504 -531zM207 503c0 -257 129 -419 376 -419c251 0 376 167 376 422c0 254 -126 414 -376 414c-254 0 -376 -168 -376 -417z" />
    <glyph glyph-name="epsilon" unicode="&#x3b5;" horiz-adv-x="1003" 
d="M473 -30c-225 0 -393 129 -393 327c0 105 46 221 152 266c-79 53 -126 132 -126 239c0 192 156 308 364 308c179 0 323 -63 426 -185l-80 -78c-76 90 -200 151 -336 151c-140 0 -256 -66 -256 -202c0 -123 102 -186 260 -186h143v-103h-144c-202 0 -285 -61 -285 -198
c0 -142 114 -227 285 -227c164 0 290 78 369 224l94 -57c-91 -176 -251 -279 -473 -279z" />
    <glyph glyph-name="zeta" unicode="&#x3b6;" horiz-adv-x="994" 
d="M851 -240c15 224 -73 240 -312 240c-226 0 -459 29 -459 356c0 140 43 279 294 547c64 66 231 240 417 427h-651v110h821v-103c-131 -134 -333 -341 -469 -476c-234 -241 -291 -364 -291 -496c0 -203 135 -256 389 -256c24 0 113 -1 174 -13c129 -26 224 -118 194 -336
h-107z" />
    <glyph glyph-name="eta" unicode="&#x3b7;" 
d="M931 562c0 273 -108 432 -334 432c-235 0 -341 -173 -341 -411v-583h-116v1080h105v-162c80 127 213 187 367 187c298 0 435 -232 435 -514v-591h-116v562z" />
    <glyph glyph-name="theta" unicode="&#x3b8;" horiz-adv-x="1295" 
d="M648 -30c-384 0 -568 355 -568 750s184 748 568 748c383 0 567 -353 567 -748c0 -411 -184 -750 -567 -750zM204 668c12 -319 163 -585 444 -585c280 0 426 266 442 585h-886zM205 772h886c-11 318 -163 584 -443 584c-281 0 -427 -266 -443 -584z" />
    <glyph glyph-name="iota" unicode="&#x3b9;" horiz-adv-x="678" 
d="M400 -10c-91 13 -165 52 -207 136c-36 74 -33 146 -33 249v705h116v-703c0 -93 -6 -142 22 -195c29 -56 73 -78 134 -86c58 -5 124 -3 179 8v-104c-67 -16 -149 -19 -211 -10z" />
    <glyph glyph-name="kappa" unicode="&#x3ba;" horiz-adv-x="964" 
d="M140 0v1080h116v-520l511 520h161l-535 -540l611 -540h-179l-569 520v-520h-116z" />
    <glyph glyph-name="lambda" unicode="&#x3bb;" horiz-adv-x="1026" 
d="M472 1080c-73 190 -95 287 -257 287h-51v103h63c27 0 72 -2 105 -9c148 -32 198 -204 262 -381l392 -1080h-120l-333 923l-334 -923h-119z" />
    <glyph glyph-name="uni03BC" unicode="&#x3bc;" horiz-adv-x="1187" 
d="M140 -480v1560h116v-562c0 -273 108 -432 333 -432c236 0 342 173 342 411v583h116v-1080h-105v164c-80 -130 -214 -189 -367 -189c-147 0 -260 58 -330 165v-620h-105z" />
    <glyph glyph-name="nu" unicode="&#x3bd;" horiz-adv-x="986" 
d="M432 0l-392 1080h119l334 -923l333 923h120l-392 -1080h-122z" />
    <glyph glyph-name="xi" unicode="&#x3be;" horiz-adv-x="1087" 
d="M971 -240c18 228 -70 240 -328 240c-415 0 -563 173 -563 417c0 191 92 309 246 352c-118 60 -198 175 -198 331c0 253 210 370 446 370c241 0 400 -122 492 -300l-105 -62c-82 156 -191 250 -387 250c-186 0 -323 -85 -323 -261c0 -165 121 -260 323 -270
c44 -2 148 -2 161 -2v-112c-18 0 -19 0 -165 -6c-215 -9 -367 -63 -367 -278c0 -228 172 -319 485 -320c28 0 129 -1 194 -13c125 -25 232 -114 197 -336h-108z" />
    <glyph glyph-name="omicron" unicode="&#x3bf;" horiz-adv-x="1166" 
d="M583 -30c-321 0 -503 236 -503 572c0 339 188 568 503 568c322 0 503 -234 503 -568c0 -341 -184 -572 -503 -572zM203 542c0 -278 130 -460 380 -460c255 0 380 187 380 460c0 277 -127 456 -380 456c-258 0 -380 -188 -380 -456z" />
    <glyph glyph-name="pi" unicode="&#x3c0;" horiz-adv-x="1294" 
d="M273 0v970h-226v110h1200v-110h-226v-970h-116v970h-516v-970h-116z" />
    <glyph glyph-name="rho" unicode="&#x3c1;" horiz-adv-x="1169" 
d="M140 478c0 72 1 126 5 164c23 271 187 468 467 468c313 0 477 -248 477 -568c0 -325 -171 -572 -470 -572c-169 0 -298 80 -364 196v-646h-115v958zM255 543c0 -267 112 -463 353 -463c238 0 361 198 361 462c0 263 -117 458 -361 458c-241 0 -353 -189 -353 -457z" />
    <glyph glyph-name="uni03C2" unicode="&#x3c2;" horiz-adv-x="1093" 
d="M857 -240c17 231 -80 231 -314 240c-405 16 -463 324 -463 513c0 382 182 597 495 597c216 0 383 -103 449 -283l-112 -41c-55 134 -178 212 -336 212c-248 0 -368 -196 -370 -459c-1 -160 44 -429 355 -430c48 0 145 0 209 -13c132 -27 225 -121 195 -336h-108z" />
    <glyph glyph-name="sigma" unicode="&#x3c3;" horiz-adv-x="1189" 
d="M583 -30c-308 0 -503 233 -503 556c0 294 156 506 411 546c53 8 122 8 185 8h470v-110h-243c113 -92 183 -252 183 -444c0 -324 -196 -556 -503 -556zM203 526c0 -268 138 -444 380 -444c249 0 380 181 380 444c0 260 -132 440 -380 442c-253 1 -380 -190 -380 -442z" />
    <glyph glyph-name="tau" unicode="&#x3c4;" horiz-adv-x="1013" 
d="M680 -10c-91 13 -164 52 -206 136c-37 74 -33 146 -33 249v595h-391v110h897v-110h-391v-593c0 -93 -6 -142 22 -195c29 -56 74 -78 134 -86c59 -5 125 -3 179 8v-104c-67 -16 -149 -19 -211 -10z" />
    <glyph glyph-name="upsilon" unicode="&#x3c5;" horiz-adv-x="1139" 
d="M120 492v588h116v-562c0 -273 108 -432 334 -432c225 0 333 159 333 432v562h116v-588c0 -296 -137 -517 -449 -517s-450 221 -450 517z" />
    <glyph glyph-name="phi" unicode="&#x3c6;" horiz-adv-x="1451" 
d="M654 -21c-316 -50 -574 164 -574 559s258 613 574 563v334h110v-334c316 50 574 -168 574 -563s-258 -609 -574 -559v-429h-110v429zM201 538c0 -359 239 -485 453 -449v902c-216 36 -453 -93 -453 -453zM764 89c214 -36 453 89 453 449c0 361 -237 489 -453 453v-902z
" />
    <glyph glyph-name="chi" unicode="&#x3c7;" horiz-adv-x="1036" 
d="M20 0l431 546l-421 534h140l349 -447l347 447h140l-421 -534l431 -546h-142l-355 459l-357 -459h-142z" />
    <glyph glyph-name="psi" unicode="&#x3c8;" horiz-adv-x="1365" 
d="M626 -35c-232 7 -403 138 -472 328c-33 87 -34 162 -34 200v587h112v-496c0 -41 0 -128 19 -204c44 -182 197 -304 375 -306v1006h113v-1006c179 2 333 127 376 309c18 75 18 161 18 201v496h112v-587c0 -39 0 -112 -34 -200c-66 -182 -234 -321 -472 -328v-415h-113v415
z" />
    <glyph glyph-name="omega" unicode="&#x3c9;" horiz-adv-x="1538" 
d="M477 -32c-268 0 -397 212 -397 510c0 289 113 497 368 632l68 -101c-224 -122 -313 -283 -313 -523c0 -230 91 -405 282 -405c195 0 228 166 228 355v251h112v-251c0 -185 32 -355 228 -355c195 0 282 181 282 405c0 245 -93 404 -312 523l68 101
c259 -137 367 -347 367 -632c0 -302 -132 -510 -395 -510c-133 0 -247 59 -294 191c-47 -132 -160 -191 -292 -191z" />
    <glyph glyph-name="iotatonos" unicode="&#x3af;" horiz-adv-x="678" 
d="M400 -10c-91 13 -165 52 -207 136c-36 74 -33 146 -33 249v705h116v-703c0 -93 -6 -142 22 -195c29 -56 73 -78 134 -86c58 -5 124 -3 179 8v-104c-67 -16 -149 -19 -211 -10zM168 1255l108 290h107l-108 -290h-107z" />
    <glyph glyph-name="iotadieresis" unicode="&#x3ca;" horiz-adv-x="644" 
d="M400 -10c-91 13 -165 52 -207 136c-36 74 -33 146 -33 249v705h116v-703c0 -93 -6 -142 22 -195c29 -56 73 -78 134 -86c58 -5 124 -3 179 8v-104c-67 -16 -149 -19 -211 -10zM-38 1305v140h140v-140h-140zM333 1305v140h140v-140h-140z" />
    <glyph glyph-name="iotadieresistonos" unicode="&#x390;" horiz-adv-x="710" 
d="M433 -10c-91 13 -165 52 -207 136c-36 74 -33 146 -33 249v705h116v-703c0 -93 -6 -142 22 -195c29 -56 73 -78 134 -86c58 -5 124 -3 179 8v-104c-67 -16 -149 -19 -211 -10zM-23 1305v140h135v-140h-135zM186 1255l108 290h107l-108 -290h-107zM454 1305v140h135v-140
h-135z" />
    <glyph glyph-name="upsilontonos" unicode="&#x3cd;" horiz-adv-x="1139" 
d="M120 492v588h116v-562c0 -273 108 -432 334 -432c225 0 333 159 333 432v562h116v-588c0 -296 -137 -517 -449 -517s-450 221 -450 517zM490 1255l108 290h107l-108 -290h-107z" />
    <glyph glyph-name="upsilondieresis" unicode="&#x3cb;" horiz-adv-x="1139" 
d="M120 492v588h116v-562c0 -273 108 -432 334 -432c225 0 333 159 333 432v562h116v-588c0 -296 -137 -517 -449 -517s-450 221 -450 517zM314 1305v140h140v-140h-140zM685 1305v140h140v-140h-140z" />
    <glyph glyph-name="upsilondieresistonos" unicode="&#x3b0;" horiz-adv-x="1139" 
d="M120 492v588h116v-562c0 -273 108 -432 334 -432c225 0 333 159 333 432v562h116v-588c0 -296 -137 -517 -449 -517s-450 221 -450 517zM264 1305v140h135v-140h-135zM472 1255l108 290h107l-108 -290h-107zM741 1305v140h135v-140h-135z" />
    <glyph glyph-name="omicrontonos" unicode="&#x3cc;" horiz-adv-x="1166" 
d="M583 -30c-321 0 -503 236 -503 572c0 339 188 568 503 568c322 0 503 -234 503 -568c0 -341 -184 -572 -503 -572zM203 542c0 -278 130 -460 380 -460c255 0 380 187 380 460c0 277 -127 456 -380 456c-258 0 -380 -188 -380 -456zM527 1255l108 290h107l-108 -290h-107z
" />
    <glyph glyph-name="omegatonos" unicode="&#x3ce;" horiz-adv-x="1538" 
d="M477 -32c-268 0 -397 212 -397 510c0 289 113 497 368 632l68 -101c-224 -122 -313 -283 -313 -523c0 -230 91 -405 282 -405c195 0 228 166 228 355v251h112v-251c0 -185 32 -355 228 -355c195 0 282 181 282 405c0 245 -93 404 -312 523l68 101
c259 -137 367 -347 367 -632c0 -302 -132 -510 -395 -510c-133 0 -247 59 -294 191c-47 -132 -160 -191 -292 -191zM696 1255l108 290h107l-108 -290h-107z" />
    <glyph glyph-name="alphatonos" unicode="&#x3ac;" horiz-adv-x="1205" 
d="M556 -30c-306 0 -476 248 -476 570s169 570 479 570c194 0 339 -102 401 -273v243h105v-1080h-105v245c-63 -173 -210 -275 -404 -275zM203 541c0 -261 121 -461 360 -461c241 0 360 197 360 462c0 267 -121 458 -359 458c-243 0 -361 -194 -361 -459zM529 1255l108 290
h107l-108 -290h-107z" />
    <glyph glyph-name="epsilontonos" unicode="&#x3ad;" horiz-adv-x="1003" 
d="M473 -30c-225 0 -393 129 -393 327c0 105 46 221 152 266c-79 53 -126 132 -126 239c0 192 156 308 364 308c179 0 323 -63 426 -185l-80 -78c-76 90 -200 151 -336 151c-140 0 -256 -66 -256 -202c0 -123 102 -186 260 -186h143v-103h-144c-202 0 -285 -61 -285 -198
c0 -142 114 -227 285 -227c164 0 290 78 369 224l94 -57c-91 -176 -251 -279 -473 -279zM419 1255l108 290h107l-108 -290h-107z" />
    <glyph glyph-name="etatonos" unicode="&#x3ae;" 
d="M931 562c0 273 -108 432 -334 432c-235 0 -341 -173 -341 -411v-583h-116v1080h105v-162c80 127 213 187 367 187c298 0 435 -232 435 -514v-591h-116v562zM558 1255l108 290h107l-108 -290h-107z" />
    <glyph glyph-name="zero" unicode="0" horiz-adv-x="1188" 
d="M594 -30c-253 0 -454 201 -454 454v592c0 253 201 454 454 454s454 -201 454 -454v-592c0 -253 -201 -454 -454 -454zM256 421c0 -186 152 -338 338 -338s338 152 338 338v599c0 185 -152 337 -338 337s-338 -152 -338 -337v-599z" />
    <glyph glyph-name="one" unicode="1" horiz-adv-x="748" 
d="M392 0v1309l-272 -163v132l272 162h116v-1440h-116z" />
    <glyph glyph-name="two" unicode="2" horiz-adv-x="1123" 
d="M100 0l2 110l662 601c117 105 142 196 142 307c0 188 -149 339 -338 339c-194 0 -340 -157 -340 -339h-116c0 254 201 452 457 452c257 0 454 -205 454 -453c0 -172 -57 -279 -189 -397l-559 -507h748v-113h-923z" />
    <glyph glyph-name="three" unicode="3" horiz-adv-x="1087" 
d="M518 -29c-212 0 -378 114 -438 305l109 35c53 -153 178 -231 328 -228c209 5 329 142 329 353c0 214 -132 351 -333 351c-55 0 -121 -17 -173 -42l-62 92l518 490h-658v113h815v-114l-454 -434c275 18 468 -171 468 -456c0 -279 -185 -465 -449 -465z" />
    <glyph glyph-name="four" unicode="4" 
d="M786 0v292h-686v113l489 1035h129l-489 -1035h557v435h116v-435h165v-113h-165v-292h-116z" />
    <glyph glyph-name="five" unicode="5" horiz-adv-x="1150" 
d="M565 -30c-227 0 -408 151 -465 359l110 30c43 -168 196 -274 356 -274c209 0 368 168 368 367c0 208 -170 368 -368 368c-143 0 -252 -73 -317 -178l-110 54l44 744h764v-112h-657l-32 -522c82 77 194 124 315 124c264 0 477 -212 477 -478c0 -262 -220 -482 -485 -482z
" />
    <glyph glyph-name="six" unicode="6" horiz-adv-x="1241" 
d="M624 -30c-268 0 -484 216 -484 488v520c0 277 213 492 489 492c170 0 321 -87 407 -223l-92 -67c-65 106 -182 177 -315 177c-214 0 -373 -174 -373 -372v-248c87 116 222 192 375 192c265 0 476 -213 476 -478c0 -266 -218 -481 -483 -481zM256 451
c0 -204 164 -368 368 -368s367 164 367 368s-163 367 -367 367s-368 -163 -368 -367z" />
    <glyph glyph-name="seven" unicode="7" horiz-adv-x="983" 
d="M219 0l540 1326h-679v114h803v-114l-540 -1326h-124z" />
    <glyph glyph-name="eight" unicode="8" horiz-adv-x="1139" 
d="M569 -30c-266 0 -449 166 -449 427c0 163 68 296 214 374c-120 61 -181 185 -181 318c0 239 174 381 416 381s415 -142 415 -381c0 -135 -60 -259 -183 -319c146 -76 218 -210 218 -373c0 -261 -185 -427 -450 -427zM241 397c0 -203 133 -314 328 -314
c194 0 327 111 327 314c0 206 -129 315 -327 315s-328 -109 -328 -315zM276 1089c0 -174 119 -264 293 -264s292 90 292 264c0 175 -118 264 -292 264s-293 -89 -293 -264z" />
    <glyph glyph-name="nine" unicode="9" horiz-adv-x="1241" 
d="M617 1470c268 0 484 -216 484 -488v-520c0 -277 -213 -492 -489 -492c-170 0 -321 87 -407 223l92 67c65 -106 182 -177 315 -177c214 0 373 174 373 372v248c-87 -116 -222 -192 -375 -192c-265 0 -476 213 -476 478c0 266 218 481 483 481zM250 989
c0 -204 163 -367 367 -367s368 163 368 367s-164 368 -368 368s-367 -164 -367 -368z" />
    <glyph glyph-name="zero.tf" horiz-adv-x="1240" 
d="M623 -30c-253 0 -454 201 -454 454v592c0 253 201 454 454 454s454 -201 454 -454v-592c0 -253 -201 -454 -454 -454zM285 421c0 -186 152 -338 338 -338s338 152 338 338v599c0 185 -152 337 -338 337s-338 -152 -338 -337v-599z" />
    <glyph glyph-name="one.tf" horiz-adv-x="1240" 
d="M625 0v1309l-272 -163v132l272 162h116v-1440h-116z" />
    <glyph glyph-name="two.tf" horiz-adv-x="1240" 
d="M157 0l2 110l662 601c117 105 142 196 142 307c0 188 -149 339 -338 339c-194 0 -340 -157 -340 -339h-116c0 254 201 452 457 452c257 0 454 -205 454 -453c0 -172 -57 -279 -189 -397l-559 -507h748v-113h-923z" />
    <glyph glyph-name="three.tf" horiz-adv-x="1240" 
d="M595 -29c-212 0 -378 114 -438 305l109 35c53 -153 178 -231 328 -228c209 5 329 142 329 353c0 214 -132 351 -333 351c-55 0 -121 -17 -173 -42l-62 92l518 490h-658v113h815v-114l-454 -434c275 18 468 -171 468 -456c0 -279 -185 -465 -449 -465z" />
    <glyph glyph-name="four.tf" horiz-adv-x="1240" 
d="M839 0v292h-686v113l489 1035h129l-489 -1035h557v435h116v-435h165v-113h-165v-292h-116z" />
    <glyph glyph-name="five.tf" horiz-adv-x="1240" 
d="M610 -30c-227 0 -408 151 -465 359l110 30c43 -168 196 -274 356 -274c209 0 368 168 368 367c0 208 -170 368 -368 368c-143 0 -252 -73 -317 -178l-110 54l44 744h764v-112h-657l-32 -522c82 77 194 124 315 124c264 0 477 -212 477 -478c0 -262 -220 -482 -485 -482z
" />
    <glyph glyph-name="six.tf" horiz-adv-x="1240" 
d="M620 -30c-268 0 -484 216 -484 488v520c0 277 213 492 489 492c170 0 321 -87 407 -223l-92 -67c-65 106 -182 177 -315 177c-214 0 -373 -174 -373 -372v-248c87 116 222 192 375 192c265 0 476 -213 476 -478c0 -266 -218 -481 -483 -481zM252 451
c0 -204 164 -368 368 -368s367 164 367 368s-163 367 -367 367s-368 -163 -368 -367z" />
    <glyph glyph-name="seven.tf" horiz-adv-x="1240" 
d="M365 0l540 1326h-679v114h803v-114l-540 -1326h-124z" />
    <glyph glyph-name="eight.tf" horiz-adv-x="1241" 
d="M621 -30c-266 0 -449 166 -449 427c0 163 68 296 214 374c-120 61 -181 185 -181 318c0 239 174 381 416 381s415 -142 415 -381c0 -135 -60 -259 -183 -319c146 -76 218 -210 218 -373c0 -261 -185 -427 -450 -427zM293 397c0 -203 133 -314 328 -314
c194 0 327 111 327 314c0 206 -129 315 -327 315s-328 -109 -328 -315zM328 1089c0 -174 119 -264 293 -264s292 90 292 264c0 175 -118 264 -292 264s-293 -89 -293 -264z" />
    <glyph glyph-name="nine.tf" horiz-adv-x="1240" 
d="M620 1470c268 0 484 -216 484 -488v-520c0 -277 -213 -492 -489 -492c-170 0 -321 87 -407 223l92 67c65 -106 182 -177 315 -177c214 0 373 174 373 372v248c-87 -116 -222 -192 -375 -192c-265 0 -476 213 -476 478c0 266 218 481 483 481zM253 989
c0 -204 163 -367 367 -367s368 163 368 367s-164 368 -368 368s-367 -164 -367 -368z" />
    <glyph glyph-name="uni2080" unicode="&#x2080;" horiz-adv-x="875" 
d="M438 -24c-171 0 -298 127 -298 302v339c0 173 127 301 298 301c170 0 297 -127 297 -301v-339c0 -174 -125 -302 -297 -302zM238 276c0 -115 86 -206 200 -206c112 0 200 90 200 206v344c0 115 -87 205 -200 205c-112 0 -200 -89 -200 -205v-344z" />
    <glyph glyph-name="uni2081" unicode="&#x2081;" horiz-adv-x="627" 
d="M290 0v793l-170 -103v108l170 102h97v-900h-97z" />
    <glyph glyph-name="uni2082" unicode="&#x2082;" horiz-adv-x="792" 
d="M100 0l2 88l404 368c70 61 87 115 87 175c0 111 -84 197 -193 197c-113 0 -198 -92 -196 -195h-99c0 166 127 287 296 287c166 0 291 -127 291 -289c0 -114 -43 -176 -131 -255l-312 -283h443v-93h-592z" />
    <glyph glyph-name="uni2083" unicode="&#x2083;" horiz-adv-x="770" 
d="M360 -20c-132 0 -242 76 -280 200l93 27c29 -89 102 -135 187 -134c118 2 191 82 191 200c0 120 -77 201 -192 201c-33 0 -69 -10 -100 -24l-48 76l305 282h-400v92h524v-94l-261 -248c164 -1 271 -119 271 -285c0 -173 -121 -293 -290 -293z" />
    <glyph glyph-name="uni2084" unicode="&#x2084;" horiz-adv-x="814" 
d="M520 0v172h-420v93l301 635h109l-301 -635h311v261h97v-261h97v-93h-97v-172h-97z" />
    <glyph glyph-name="uni2085" unicode="&#x2085;" horiz-adv-x="799" 
d="M392 -20c-141 0 -256 93 -292 225l92 24c25 -94 111 -154 201 -154c118 0 209 94 209 207c0 116 -96 209 -209 209c-82 0 -144 -42 -179 -97l-87 38l26 468h482v-91h-398l-15 -295c49 42 113 65 182 65c165 0 295 -130 295 -297c0 -165 -140 -302 -307 -302z" />
    <glyph glyph-name="uni2086" unicode="&#x2086;" horiz-adv-x="889" 
d="M448 -26c-172 0 -308 136 -308 314v310c0 186 134 320 315 320c103 0 194 -47 252 -126l-75 -64c-39 59 -104 97 -177 97c-125 0 -216 -102 -216 -217v-138c53 66 132 106 218 106c169 0 299 -131 299 -298c0 -169 -139 -304 -308 -304zM239 278c0 -116 92 -210 209 -210
c116 0 209 93 209 210c0 115 -93 207 -209 207s-209 -92 -209 -207z" />
    <glyph glyph-name="uni2087" unicode="&#x2087;" horiz-adv-x="700" 
d="M165 0l331 807h-416v93h520v-93l-329 -807h-106z" />
    <glyph glyph-name="uni2088" unicode="&#x2088;" horiz-adv-x="822" 
d="M411 -26c-171 0 -291 109 -291 273c0 100 41 182 124 231c-68 43 -102 115 -102 195c0 153 112 245 269 245s269 -92 269 -245c0 -80 -34 -153 -105 -194c85 -51 127 -132 127 -232c0 -164 -120 -273 -291 -273zM222 247c0 -115 77 -179 189 -179s188 64 188 179
c0 120 -75 182 -188 182s-189 -62 -189 -182zM246 673c0 -100 67 -150 165 -150c99 0 167 50 167 150s-68 150 -167 150c-98 0 -165 -50 -165 -150z" />
    <glyph glyph-name="uni2089" unicode="&#x2089;" horiz-adv-x="889" 
d="M441 918c172 0 308 -136 308 -314v-310c0 -186 -134 -320 -315 -320c-103 0 -194 47 -252 126l75 64c39 -59 104 -97 177 -97c125 0 216 102 216 217v138c-53 -66 -132 -106 -218 -106c-169 0 -299 131 -299 298c0 169 139 304 308 304zM232 614c0 -115 93 -207 209 -207
s209 92 209 207c0 116 -92 210 -209 210c-116 0 -209 -93 -209 -210z" />
    <glyph glyph-name="uni2070" unicode="&#x2070;" horiz-adv-x="875" 
d="M438 516c-171 0 -298 127 -298 302v339c0 173 127 301 298 301c170 0 297 -127 297 -301v-339c0 -174 -125 -302 -297 -302zM238 816c0 -115 86 -206 200 -206c112 0 200 90 200 206v344c0 115 -87 205 -200 205c-112 0 -200 -89 -200 -205v-344z" />
    <glyph glyph-name="uni00B9" unicode="&#xb9;" horiz-adv-x="627" 
d="M290 540v793l-170 -103v108l170 102h97v-900h-97z" />
    <glyph glyph-name="uni00B2" unicode="&#xb2;" horiz-adv-x="792" 
d="M100 540l2 88l404 368c70 61 87 115 87 175c0 111 -84 197 -193 197c-113 0 -198 -92 -196 -195h-99c0 166 127 287 296 287c166 0 291 -127 291 -289c0 -114 -43 -176 -131 -255l-312 -283h443v-93h-592z" />
    <glyph glyph-name="uni00B3" unicode="&#xb3;" horiz-adv-x="770" 
d="M360 520c-132 0 -242 76 -280 200l93 27c29 -89 102 -135 187 -134c118 2 191 82 191 200c0 120 -77 201 -192 201c-33 0 -69 -10 -100 -24l-48 76l305 282h-400v92h524v-94l-261 -248c164 -1 271 -119 271 -285c0 -173 -121 -293 -290 -293z" />
    <glyph glyph-name="uni2074" unicode="&#x2074;" horiz-adv-x="814" 
d="M520 540v172h-420v93l301 635h109l-301 -635h311v261h97v-261h97v-93h-97v-172h-97z" />
    <glyph glyph-name="uni2075" unicode="&#x2075;" horiz-adv-x="799" 
d="M392 520c-141 0 -256 93 -292 225l92 24c25 -94 111 -154 201 -154c118 0 209 94 209 207c0 116 -96 209 -209 209c-82 0 -144 -42 -179 -97l-87 38l26 468h482v-91h-398l-15 -295c49 42 113 65 182 65c165 0 295 -130 295 -297c0 -165 -140 -302 -307 -302z" />
    <glyph glyph-name="uni2076" unicode="&#x2076;" horiz-adv-x="889" 
d="M448 514c-172 0 -308 136 -308 314v310c0 186 134 320 315 320c103 0 194 -47 252 -126l-75 -64c-39 59 -104 97 -177 97c-125 0 -216 -102 -216 -217v-138c53 66 132 106 218 106c169 0 299 -131 299 -298c0 -169 -139 -304 -308 -304zM239 818c0 -116 92 -210 209 -210
c116 0 209 93 209 210c0 115 -93 207 -209 207s-209 -92 -209 -207z" />
    <glyph glyph-name="uni2077" unicode="&#x2077;" horiz-adv-x="700" 
d="M165 540l331 807h-416v93h520v-93l-329 -807h-106z" />
    <glyph glyph-name="uni2078" unicode="&#x2078;" horiz-adv-x="822" 
d="M411 514c-171 0 -291 109 -291 273c0 100 41 182 124 231c-68 43 -102 115 -102 195c0 153 112 245 269 245s269 -92 269 -245c0 -80 -34 -153 -105 -194c85 -51 127 -132 127 -232c0 -164 -120 -273 -291 -273zM222 787c0 -115 77 -179 189 -179s188 64 188 179
c0 120 -75 182 -188 182s-189 -62 -189 -182zM246 1213c0 -100 67 -150 165 -150c99 0 167 50 167 150s-68 150 -167 150c-98 0 -165 -50 -165 -150z" />
    <glyph glyph-name="uni2079" unicode="&#x2079;" horiz-adv-x="889" 
d="M441 1458c172 0 308 -136 308 -314v-310c0 -186 -134 -320 -315 -320c-103 0 -194 47 -252 126l75 64c39 -59 104 -97 177 -97c125 0 216 102 216 217v138c-53 -66 -132 -106 -218 -106c-169 0 -299 131 -299 298c0 169 139 304 308 304zM232 1154
c0 -115 93 -207 209 -207s209 92 209 207c0 116 -92 210 -209 210c-116 0 -209 -93 -209 -210z" />
    <glyph glyph-name="fraction" unicode="&#x2044;" horiz-adv-x="396" 
d="M-294 0l-87 69l1072 1373l86 -67z" />
    <glyph glyph-name="onehalf" unicode="&#xbd;" horiz-adv-x="1815" 
d="M290 540v793l-170 -103v108l170 102h97v-900h-97zM246 69l1072 1373l86 -67l-1071 -1375zM1123 0l2 88l404 368c70 61 87 115 87 175c0 111 -84 197 -193 197c-113 0 -198 -92 -196 -195h-99c0 166 127 287 296 287c166 0 291 -127 291 -289c0 -114 -43 -176 -131 -255
l-312 -283h443v-93h-592z" />
    <glyph glyph-name="onequarter" unicode="&#xbc;" horiz-adv-x="1905" 
d="M290 540v793l-170 -103v108l170 102h97v-900h-97zM246 69l1072 1373l86 -67l-1071 -1375zM1051 172v93l301 635h109l-301 -635h311v261h97v-261h97v-93h-97v-172h-97v172h-420z" />
    <glyph glyph-name="threequarters" unicode="&#xbe;" horiz-adv-x="1926" 
d="M360 520c-132 0 -242 76 -280 200l93 27c29 -89 102 -135 187 -134c118 2 191 82 191 200c0 120 -77 201 -192 201c-33 0 -69 -10 -100 -24l-48 76l305 282h-400v92h524v-94l-261 -248c164 -1 271 -119 271 -285c0 -173 -121 -293 -290 -293zM389 69l1072 1373l86 -67
l-1071 -1375zM1192 172v93l301 635h109l-301 -635h311v261h97v-261h97v-93h-97v-172h-97v172h-420z" />
    <glyph glyph-name="uni2060" unicode="&#x2060;" horiz-adv-x="0" 
 />
    <glyph glyph-name="uni00A0" unicode="&#xa0;" horiz-adv-x="400" 
 />
    <glyph glyph-name="anoteleia" unicode="&#x387;" horiz-adv-x="1200" 
d="M216 537c-54 0 -96 39 -96 93s42 93 96 93c49 0 91 -39 91 -93s-42 -93 -91 -93z" />
    <glyph glyph-name="uni037E" unicode="&#x37e;" horiz-adv-x="585" 
d="M228 -131c74 -5 73 62 70 131h-78v195h145v-245c0 -105 -61 -162 -145 -143zM220 935v145h145v-145h-145z" />
    <glyph glyph-name="period" unicode="." horiz-adv-x="473" 
d="M164 0v145h145v-145h-145z" />
    <glyph glyph-name="comma" unicode="," horiz-adv-x="505" 
d="M128 -131c74 -5 73 62 70 131h-78v195h145v-245c0 -105 -61 -162 -145 -143z" />
    <glyph glyph-name="colon" unicode=":" horiz-adv-x="569" 
d="M220 170v145h145v-145h-145zM220 765v145h145v-145h-145z" />
    <glyph glyph-name="semicolon" unicode=";" horiz-adv-x="585" 
d="M228 -131c74 -5 73 62 70 131h-78v195h145v-245c0 -105 -61 -162 -145 -143zM220 935v145h145v-145h-145z" />
    <glyph glyph-name="ellipsis" unicode="&#x2026;" horiz-adv-x="1212" 
d="M160 0v145h145v-145h-145zM533 0v145h145v-145h-145zM907 0v145h145v-145h-145z" />
    <glyph glyph-name="exclam" unicode="!" horiz-adv-x="595" 
d="M240 0v147h115v-147h-115zM240 360v1080h115v-1080h-115z" />
    <glyph glyph-name="exclamdown" unicode="&#xa1;" horiz-adv-x="595" 
d="M240 1080h115v-147h-115v147zM240 -360v1080h115v-1080h-115z" />
    <glyph glyph-name="question" unicode="?" horiz-adv-x="1028" 
d="M429 393c0 108 0 177 44 259c61 117 186 163 267 250c51 58 65 120 65 189c0 74 -20 133 -58 176c-59 69 -148 90 -236 90c-93 0 -176 -27 -226 -81c-48 -46 -67 -113 -67 -184h-118c3 97 36 200 108 268c79 77 194 110 304 110c125 0 244 -36 322 -122
c65 -70 94 -158 94 -258c0 -101 -38 -197 -105 -265c-71 -76 -196 -134 -243 -222c-34 -63 -28 -119 -28 -210h-123zM429 0v173h123v-173h-123z" />
    <glyph glyph-name="questiondown" unicode="&#xbf;" horiz-adv-x="1028" 
d="M599 687c0 -108 0 -177 -44 -259c-61 -117 -186 -163 -267 -250c-51 -58 -65 -120 -65 -189c0 -74 20 -133 58 -176c59 -69 148 -90 236 -90c93 0 176 27 226 81c48 46 67 113 67 184h118c-3 -97 -36 -200 -108 -268c-79 -77 -194 -110 -304 -110
c-125 0 -244 36 -322 122c-65 70 -94 158 -94 258c0 101 38 197 105 265c71 76 196 134 243 222c34 63 28 119 28 210h123zM476 907v173h123v-173h-123z" />
    <glyph glyph-name="periodcentered" unicode="&#xb7;" horiz-adv-x="427" 
d="M216 537c-54 0 -96 39 -96 93s42 93 96 93c49 0 91 -39 91 -93s-42 -93 -91 -93z" />
    <glyph glyph-name="bullet" unicode="&#x2022;" horiz-adv-x="1273" 
d="M641 413c-123 0 -221 94 -221 217c0 124 98 217 221 217c115 0 212 -93 212 -217c0 -123 -97 -217 -212 -217z" />
    <glyph glyph-name="asterisk" unicode="*" horiz-adv-x="855" 
d="M243 797l-89 65l159 213l-253 79l34 105l251 -85l-3 266h110l-3 -266l252 85l34 -105l-254 -79l158 -213l-89 -65l-153 216z" />
    <glyph glyph-name="numbersign" unicode="#" horiz-adv-x="1833" 
d="M423 0l118 448h-421l30 113h423l92 349h-421l30 112h422l111 418h117l-112 -418h364l111 418h117l-112 -418h421l-29 -112h-422l-94 -349h421l-29 -113h-422l-120 -448h-115l118 448h-363l-120 -448h-115zM688 561h364l93 349h-363z" />
    <glyph glyph-name="slash" unicode="/" horiz-adv-x="744" 
d="M504 1440h120l-384 -1440h-120z" />
    <glyph glyph-name="backslash" unicode="\" horiz-adv-x="744" 
d="M240 1440l384 -1440h-120l-384 1440h120z" />
    <glyph glyph-name="colon.case" horiz-adv-x="569" 
d="M220 290v145h145v-145h-145zM220 1005v145h145v-145h-145z" />
    <glyph glyph-name="exclamdown.case" horiz-adv-x="595" 
d="M240 1440h115v-147h-115v147zM240 0v1080h115v-1080h-115z" />
    <glyph glyph-name="questiondown.case" horiz-adv-x="1028" 
d="M599 1047c0 -108 0 -177 -44 -259c-61 -117 -186 -163 -267 -250c-51 -58 -65 -120 -65 -189c0 -74 20 -133 58 -176c59 -69 148 -90 236 -90c93 0 176 27 226 81c48 46 67 113 67 184h118c-3 -97 -36 -200 -108 -268c-79 -77 -194 -110 -304 -110
c-125 0 -244 36 -322 122c-65 70 -94 158 -94 258c0 101 38 197 105 265c71 76 196 134 243 222c34 63 28 119 28 210h123zM476 1267v173h123v-173h-123z" />
    <glyph glyph-name="periodcentered.case" horiz-adv-x="427" 
d="M216 627c-54 0 -96 39 -96 93s42 93 96 93c49 0 91 -39 91 -93s-42 -93 -91 -93z" />
    <glyph glyph-name="hyphen" unicode="-" horiz-adv-x="840" 
d="M120 578v105h600v-105h-600z" />
    <glyph glyph-name="uni00AD" unicode="&#xad;" horiz-adv-x="840" 
d="M120 578v105h600v-105h-600z" />
    <glyph glyph-name="endash" unicode="&#x2013;" horiz-adv-x="1080" 
d="M120 578v105h840v-105h-840z" />
    <glyph glyph-name="emdash" unicode="&#x2014;" horiz-adv-x="1560" 
d="M120 578v105h1320v-105h-1320z" />
    <glyph glyph-name="uni2011" unicode="&#x2011;" horiz-adv-x="840" 
d="M120 578v105h600v-105h-600z" />
    <glyph glyph-name="underscore" unicode="_" horiz-adv-x="1320" 
d="M0 -202v105h1320v-105h-1320z" />
    <glyph glyph-name="hyphen.case" horiz-adv-x="840" 
d="M120 668v105h600v-105h-600z" />
    <glyph glyph-name="endash.case" horiz-adv-x="1080" 
d="M120 668v105h840v-105h-840z" />
    <glyph glyph-name="emdash.case" horiz-adv-x="1560" 
d="M120 668v105h1320v-105h-1320z" />
    <glyph glyph-name="parenleft" unicode="(" horiz-adv-x="834" 
d="M660 -351c-235 268 -381 642 -380 1011c-1 369 145 743 380 1011l86 -68c-231 -272 -358 -605 -358 -943c0 -333 130 -679 358 -942z" />
    <glyph glyph-name="parenright" unicode=")" horiz-adv-x="834" 
d="M88 -282c228 263 358 609 358 942c0 338 -127 671 -358 943l86 68c235 -268 381 -642 380 -1011c1 -369 -145 -743 -380 -1011z" />
    <glyph glyph-name="braceleft" unicode="{" horiz-adv-x="819" 
d="M617 -440c-127 0 -224 97 -224 222v669c0 24 -7 46 -20 66l-83 116c-14 19 -14 45 0 64l83 116c13 20 20 42 20 66v667c0 127 97 224 224 224h114v-113h-111c-63 0 -114 -51 -114 -114v-664c0 -48 -14 -91 -42 -130l-59 -84l59 -84c28 -39 42 -84 42 -130v-665
c0 -63 51 -114 114 -114h111v-112h-114z" />
    <glyph glyph-name="braceright" unicode="}" horiz-adv-x="819" 
d="M202 -440h-114v112h111c63 0 114 51 114 114v665c0 46 14 91 42 130l59 84l-59 84c-28 39 -42 82 -42 130v664c0 63 -51 114 -114 114h-111v113h114c127 0 224 -97 224 -224v-667c0 -24 7 -46 20 -66l83 -116c14 -19 14 -45 0 -64l-83 -116c-13 -20 -20 -42 -20 -66v-669
c0 -125 -97 -222 -224 -222z" />
    <glyph glyph-name="bracketleft" unicode="[" horiz-adv-x="803" 
d="M280 -440v2210h353v-110h-243v-1990h243v-110h-353z" />
    <glyph glyph-name="bracketright" unicode="]" horiz-adv-x="803" 
d="M523 -440h-353v110h243v1990h-243v110h353v-2210z" />
    <glyph glyph-name="parenleft.case" horiz-adv-x="834" 
d="M660 -291c-235 268 -381 642 -380 1011c-1 369 145 743 380 1011l86 -68c-231 -272 -358 -605 -358 -943c0 -333 130 -679 358 -942z" />
    <glyph glyph-name="parenright.case" horiz-adv-x="834" 
d="M88 -222c228 263 358 609 358 942c0 338 -127 671 -358 943l86 68c235 -268 381 -642 380 -1011c1 -369 -145 -743 -380 -1011z" />
    <glyph glyph-name="braceleft.case" horiz-adv-x="819" 
d="M617 -385c-127 0 -224 97 -224 222v669c0 24 -7 46 -20 66l-83 116c-14 19 -14 45 0 64l83 116c13 20 20 42 20 66v667c0 127 97 224 224 224h114v-113h-111c-63 0 -114 -51 -114 -114v-664c0 -48 -14 -91 -42 -130l-59 -84l59 -84c28 -39 42 -84 42 -130v-665
c0 -63 51 -114 114 -114h111v-112h-114z" />
    <glyph glyph-name="braceright.case" horiz-adv-x="819" 
d="M202 -385h-114v112h111c63 0 114 51 114 114v665c0 46 14 91 42 130l59 84l-59 84c-28 39 -42 82 -42 130v664c0 63 -51 114 -114 114h-111v113h114c127 0 224 -97 224 -224v-667c0 -24 7 -46 20 -66l83 -116c14 -19 14 -45 0 -64l-83 -116c-13 -20 -20 -42 -20 -66v-669
c0 -125 -97 -222 -224 -222z" />
    <glyph glyph-name="bracketleft.case" horiz-adv-x="803" 
d="M280 -385v2210h353v-110h-243v-1990h243v-110h-353z" />
    <glyph glyph-name="bracketright.case" horiz-adv-x="803" 
d="M523 -385h-353v110h243v1990h-243v110h353v-2210z" />
    <glyph glyph-name="quotesinglbase" unicode="&#x201a;" horiz-adv-x="505" 
d="M128 -131c74 -5 73 62 70 131h-78v195h145v-245c0 -105 -61 -162 -145 -143z" />
    <glyph glyph-name="quotedblbase" unicode="&#x201e;" horiz-adv-x="692" 
d="M168 -131c74 -5 73 62 70 131h-78v195h145v-245c0 -105 -61 -162 -145 -143zM387 -193l8 62c74 -5 73 62 70 131h-78v195h145v-245c0 -105 -61 -162 -145 -143z" />
    <glyph glyph-name="quotedblleft" unicode="&#x201c;" horiz-adv-x="692" 
d="M524 1391c-74 5 -73 -62 -70 -131h78v-195h-145v245c0 105 61 162 145 143zM160 1065v245c0 105 61 162 145 143l-8 -62c-74 5 -73 -62 -70 -131h78v-195h-145z" />
    <glyph glyph-name="quotedblright" unicode="&#x201d;" horiz-adv-x="692" 
d="M168 1130c74 -5 73 62 70 131h-78v195h145v-245c0 -105 -61 -162 -145 -143zM387 1068l8 62c74 -5 73 62 70 131h-78v195h145v-245c0 -105 -61 -162 -145 -143z" />
    <glyph glyph-name="quoteleft" unicode="&#x2018;" horiz-adv-x="402" 
d="M272 1052c-84 -19 -145 38 -145 143v245h145v-195h-78c-3 -69 -4 -136 70 -131z" />
    <glyph glyph-name="quoteright" unicode="&#x2019;" horiz-adv-x="402" 
d="M138 1114c74 -5 73 62 70 131h-78v195h145v-245c0 -105 -61 -162 -145 -143z" />
    <glyph glyph-name="uni201F" unicode="&#x201f;" horiz-adv-x="692" 
d="M532 1068c-84 -19 -145 38 -145 143v245h145v-195h-78c-3 -69 -4 -136 70 -131zM160 1211v245h145v-195h-78c-3 -69 -4 -136 70 -131l8 -62c-84 -19 -145 38 -145 143z" />
    <glyph glyph-name="guillemotleft" unicode="&#xab;" horiz-adv-x="1038" 
d="M826 109l-344 433l344 431l75 -59l-298 -372l298 -374zM160 542l344 431l75 -59l-297 -372l297 -374l-75 -59z" />
    <glyph glyph-name="guillemotright" unicode="&#xbb;" horiz-adv-x="1038" 
d="M212 109l-75 59l298 374l-298 372l75 59l344 -431zM459 168l297 374l-297 372l75 59l344 -431l-344 -433z" />
    <glyph glyph-name="guilsinglleft" unicode="&#x2039;" horiz-adv-x="1213" 
d="M746 164l-466 466l466 466l74 -73l-394 -393l394 -393z" />
    <glyph glyph-name="guilsinglright" unicode="&#x203a;" horiz-adv-x="1213" 
d="M467 164l-74 73l394 393l-394 393l74 73l466 -466z" />
    <glyph glyph-name="quotedbl" unicode="&#x22;" horiz-adv-x="734" 
d="M120 1080v360h115v-360h-115zM419 1080v360h115v-360h-115z" />
    <glyph glyph-name="quotesingle" unicode="'" horiz-adv-x="395" 
d="M120 1080v360h115v-360h-115z" />
    <glyph glyph-name="guillemotleft.case" horiz-adv-x="1038" 
d="M826 289l-344 433l344 431l75 -59l-298 -372l298 -374zM160 722l344 431l75 -59l-297 -372l297 -374l-75 -59z" />
    <glyph glyph-name="guillemotright.case" horiz-adv-x="1038" 
d="M212 289l-75 59l298 374l-298 372l75 59l344 -431zM459 348l297 374l-297 372l75 59l344 -431l-344 -433z" />
    <glyph glyph-name="guilsinglleft.case" horiz-adv-x="1213" 
d="M746 254l-466 466l466 466l74 -73l-394 -393l394 -393z" />
    <glyph glyph-name="guilsinglright.case" horiz-adv-x="1213" 
d="M467 254l-74 73l394 393l-394 393l74 73l466 -466z" />
    <glyph glyph-name="florin" unicode="&#x192;" horiz-adv-x="1442" 
d="M312 -30c-118 0 -232 51 -249 59l49 101c10 -3 103 -47 198 -47c100 0 238 56 279 305l45 280h-374v105h391l54 330c47 288 277 367 421 367c129 0 242 -49 253 -61l-56 -97c-1 1 -87 45 -197 45c-88 0 -265 -29 -303 -255l-54 -329h467v-105h-484l-49 -298
c-56 -339 -265 -400 -391 -400z" />
    <glyph glyph-name="uni0374" unicode="&#x374;" horiz-adv-x="495" 
d="M227 1150h-107l108 290h107z" />
    <glyph glyph-name="uni0375" unicode="&#x375;" horiz-adv-x="495" 
d="M227 -397h-107l108 290h107z" />
    <glyph glyph-name="at" unicode="@" horiz-adv-x="1801" 
d="M905 -210c-419 0 -745 319 -745 744c0 429 300 756 755 756c503 0 749 -363 724 -726c-17 -249 -131 -370 -307 -370c-108 0 -192 43 -232 122c-51 -64 -137 -92 -219 -92c-172 0 -287 119 -287 291c0 180 122 293 289 293c67 0 146 -20 201 -71v43h92l-1 -307
c0 -99 45 -174 165 -174c109 0 180 96 188 252c20 400 -247 634 -610 634c-412 0 -648 -310 -646 -651c2 -361 283 -639 640 -639c124 0 256 35 352 96l41 -90c-123 -75 -261 -111 -400 -111zM702 517c0 -123 71 -186 185 -186c107 0 181 63 181 186c0 124 -73 187 -180 187
c-120 0 -186 -68 -186 -187z" />
    <glyph glyph-name="ampersand" unicode="&#x26;" horiz-adv-x="1291" 
d="M599 -30c-162 0 -301 44 -392 142c-69 74 -103 171 -107 275c-2 97 27 202 92 279c42 53 100 86 157 110c-107 108 -164 184 -164 318c0 143 73 271 199 330c68 33 141 45 212 45c102 0 208 -26 281 -83c48 -36 87 -87 110 -141l-110 -39c-16 39 -42 70 -77 95
c-55 40 -127 56 -198 56c-60 0 -119 -13 -169 -37c-85 -43 -128 -122 -128 -223c0 -87 27 -134 84 -201c30 -34 68 -66 106 -100l486 -453c7 40 9 76 9 114l-2 222h114v-207c0 -117 -10 -178 -23 -220l187 -174l-77 -83l-165 156c-38 -56 -106 -105 -167 -133
c-78 -38 -169 -48 -258 -48zM221 391c1 -76 25 -146 72 -197c68 -77 189 -111 304 -111c87 0 155 7 218 43c77 45 105 82 124 109l-497 454c-63 -19 -120 -52 -159 -98c-44 -54 -64 -125 -62 -200z" />
    <glyph glyph-name="paragraph" unicode="&#xb6;" horiz-adv-x="1216" 
d="M693 -282v843h-88c-24 0 -57 2 -96 8c-216 35 -346 211 -346 432c0 219 129 397 346 431c39 6 71 8 96 8h203v-1722h-115zM937 -282v1722h115v-1722h-115z" />
    <glyph glyph-name="section" unicode="&#xa7;" horiz-adv-x="1039" 
d="M545 -318c-189 0 -383 85 -428 299l118 20c40 -153 194 -210 315 -210c140 0 266 73 266 213c0 132 -114 160 -335 220c-229 62 -388 116 -388 293c0 143 104 232 233 260c-122 48 -197 112 -197 236c0 201 196 300 379 300c209 0 384 -126 406 -313l-118 -22
c-31 171 -180 227 -297 227c-135 0 -251 -73 -251 -185c0 -124 142 -158 323 -204c234 -61 403 -113 403 -318c0 -137 -75 -231 -183 -261c91 -48 146 -116 146 -234c0 -210 -174 -321 -392 -321zM211 527c0 -124 141 -158 323 -204c49 -13 94 -25 136 -38
c96 23 183 96 183 212c0 132 -114 160 -335 220c-29 8 -57 15 -83 23c-130 -40 -224 -112 -224 -213z" />
    <glyph glyph-name="copyright" unicode="&#xa9;" horiz-adv-x="1551" 
d="M776 -32c-396 0 -716 321 -716 716s320 716 716 716c395 0 715 -321 715 -716s-320 -716 -715 -716zM174 686c0 -334 268 -602 602 -602c330 0 598 268 598 602c0 330 -268 598 -598 598c-334 0 -602 -268 -602 -598zM408 687c2 103 22 207 88 291c71 88 168 129 291 129
c71 0 134 -14 195 -51s112 -96 134 -169l-102 -32c-18 42 -51 84 -92 112c-40 28 -89 40 -139 40c-81 0 -152 -34 -200 -95c-47 -61 -62 -146 -62 -223c0 -87 20 -172 62 -230c46 -62 117 -94 199 -94c53 0 102 13 143 39c39 26 66 63 87 109l104 -32
c-32 -76 -81 -128 -125 -158c-60 -40 -126 -59 -209 -59c-118 0 -215 40 -286 129c-70 88 -88 194 -88 294z" />
    <glyph glyph-name="registered" unicode="&#xae;" horiz-adv-x="1230" 
d="M616 584c-263 0 -476 213 -476 476c0 262 213 474 476 474c261 0 474 -212 474 -474c0 -263 -213 -476 -474 -476zM239 1060c0 -208 168 -376 377 -376c207 0 375 168 375 376s-168 375 -375 375c-209 0 -377 -167 -377 -375zM453 832v463h203c82 0 152 -67 153 -150
c0 -53 -33 -109 -87 -135l88 -178h-86l-79 164h-117v-164h-75zM528 1067h127c40 0 77 35 77 78c0 48 -41 79 -77 79h-127v-157z" />
    <glyph glyph-name="trademark" unicode="&#x2122;" horiz-adv-x="1771" 
d="M896 690v750h87l290 -510l290 510h87l1 -750h-96v547l-245 -434h-74l-243 434v-547h-97zM120 1342v98h632v-98h-265v-652h-101v652h-266z" />
    <glyph glyph-name="degree" unicode="&#xb0;" horiz-adv-x="900" 
d="M420 750c-198 0 -360 160 -360 360c0 196 168 360 360 360c198 0 360 -160 360 -360s-162 -360 -360 -360zM168 1110c0 -137 115 -252 252 -252s252 115 252 252s-115 252 -252 252s-252 -115 -252 -252z" />
    <glyph glyph-name="second" unicode="&#x2033;" horiz-adv-x="692" 
d="M168 1130c74 -5 73 62 70 131h-78v195h145v-245c0 -105 -61 -162 -145 -143zM387 1068l8 62c74 -5 73 62 70 131h-78v195h145v-245c0 -105 -61 -162 -145 -143z" />
    <glyph glyph-name="bar" unicode="|" horiz-adv-x="475" 
d="M180 0v1440h115v-1440h-115z" />
    <glyph glyph-name="brokenbar" unicode="&#xa6;" horiz-adv-x="475" 
d="M180 727v713h115v-713h-115zM180 -280v713h115v-713h-115z" />
    <glyph glyph-name="dagger" unicode="&#x2020;" horiz-adv-x="1080" 
d="M482 0v975h-362v105h362v360h115v-360h363v-105h-363v-975h-115z" />
    <glyph glyph-name="daggerdbl" unicode="&#x2021;" horiz-adv-x="783" 
d="M334 0v481h-214v105h214v307h-214v105h214v442h115v-442h214v-105h-214v-307h214v-105h-214v-481h-115z" />
    <glyph glyph-name="uni2116" unicode="&#x2116;" horiz-adv-x="2197" 
d="M140 0v1440h116l834 -1235v1235h116v-1440h-116l-834 1237v-1237h-116zM1377 1110c0 196 168 360 360 360c198 0 360 -160 360 -360s-162 -360 -360 -360s-360 160 -360 360zM1437 565v105h600v-105h-600zM1485 1110c0 -137 115 -252 252 -252s252 115 252 252
s-115 252 -252 252s-252 -115 -252 -252z" />
    <glyph glyph-name="at.case" horiz-adv-x="1801" 
d="M905 -30c-419 0 -745 319 -745 744c0 429 300 756 755 756c503 0 749 -363 724 -726c-17 -249 -131 -370 -307 -370c-108 0 -192 43 -232 122c-51 -64 -137 -92 -219 -92c-172 0 -287 119 -287 291c0 180 122 293 289 293c67 0 146 -20 201 -71v43h92l-1 -307
c0 -99 45 -174 165 -174c109 0 180 96 188 252c20 400 -247 634 -610 634c-412 0 -648 -310 -646 -651c2 -361 283 -639 640 -639c124 0 256 35 352 96l41 -90c-123 -75 -261 -111 -400 -111zM702 697c0 -123 71 -186 185 -186c107 0 181 63 181 186c0 124 -73 187 -180 187
c-120 0 -186 -68 -186 -187z" />
    <glyph glyph-name="copyright.case" horiz-adv-x="1551" 
d="M776 150c-396 0 -716 321 -716 716s320 716 716 716c395 0 715 -321 715 -716s-320 -716 -715 -716zM174 868c0 -334 268 -602 602 -602c330 0 598 268 598 602c0 330 -268 598 -598 598c-334 0 -602 -268 -602 -598zM408 869c2 103 22 207 88 291c71 88 168 129 291 129
c71 0 134 -14 195 -51s112 -96 134 -169l-102 -32c-18 42 -51 84 -92 112c-40 28 -89 40 -139 40c-81 0 -152 -34 -200 -95c-47 -61 -62 -146 -62 -223c0 -87 20 -172 62 -230c46 -62 117 -94 199 -94c53 0 102 13 143 39c39 26 66 63 87 109l104 -32
c-32 -76 -81 -128 -125 -158c-60 -40 -126 -59 -209 -59c-118 0 -215 40 -286 129c-70 88 -88 194 -88 294z" />
    <glyph glyph-name="uni20BF" unicode="&#x20bf;" horiz-adv-x="1214" 
d="M343 -197v197h-203v1440h203v200h107v-200h183v200h107v-203c200 -20 345 -168 345 -359c0 -132 -69 -251 -177 -312c153 -67 248 -195 248 -370c0 -246 -176 -393 -416 -396v-197h-107v197h-183v-197h-107zM256 113h439c192 0 338 102 338 278c0 174 -134 311 -305 311
h-472v-589zM256 813h434c151 0 274 114 274 269c0 148 -118 247 -274 247h-434v-516z" />
    <glyph glyph-name="cent" unicode="&#xa2;" horiz-adv-x="1093" 
d="M532 123c-293 22 -447 248 -452 567c5 326 162 545 452 567v183h105v-183c183 -18 329 -121 387 -280l-112 -41c-55 134 -179 212 -331 212c-255 0 -375 -188 -378 -458c3 -276 129 -458 378 -458c152 0 268 72 329 207l114 -39c-78 -166 -210 -261 -387 -277v-183h-105
v183z" />
    <glyph glyph-name="currency" unicode="&#xa4;" horiz-adv-x="1263" 
d="M632 196c-124 0 -238 44 -328 117l-164 -163l-80 80l163 163c-72 91 -115 205 -115 329c0 123 43 237 115 326l-163 163l80 79l162 -162c90 74 205 118 330 118s240 -44 330 -117l161 161l80 -79l-161 -161c72 -90 116 -204 116 -328c0 -125 -44 -240 -117 -330l162 -162
l-80 -80l-162 162c-90 -73 -205 -116 -329 -116zM216 720c0 -225 185 -416 416 -416c230 0 417 191 417 416c0 231 -192 418 -417 418c-231 0 -416 -187 -416 -418z" />
    <glyph glyph-name="dollar" unicode="$" horiz-adv-x="1152" 
d="M521 -197v171c-241 27 -414 175 -458 398l112 20c46 -191 210 -310 428 -310c225 0 374 120 374 301c0 135 -72 207 -262 266l-311 96c-187 59 -287 175 -287 336c0 216 162 368 404 387v172h115v-173c240 -25 409 -182 446 -418l-113 -21c-28 196 -186 329 -396 329
c-197 1 -339 -113 -339 -272c0 -116 78 -193 254 -247l281 -85c225 -69 320 -177 320 -370c0 -240 -177 -400 -453 -412v-168h-115z" />
    <glyph glyph-name="dong" unicode="&#x20ab;" horiz-adv-x="1168" 
d="M555 222c-282 0 -475 162 -475 445c0 282 193 443 464 443c174 0 295 -50 369 -140v285h-231v105h231v117h115v-117h145v-105h-145v-1005h-105v128c-72 -99 -193 -156 -368 -156zM147 0v104h924v-104h-924zM203 667c0 -216 142 -337 357 -337c232 0 363 129 363 337
c0 211 -132 333 -363 333c-221 0 -357 -116 -357 -333z" />
    <glyph glyph-name="Euro" unicode="&#x20ac;" horiz-adv-x="1275" 
d="M867 -30c-350 0 -573 220 -636 536h-171v105h156c-3 35 -5 72 -4 109c1 36 3 71 6 105h-158v105h174c67 331 282 540 633 540c117 0 231 -26 326 -80l-62 -99c-80 42 -171 63 -264 65c-284 2 -453 -167 -509 -426h594v-105h-611c-3 -34 -5 -69 -5 -105
c0 -38 2 -74 5 -109h611v-105h-594c57 -260 225 -421 509 -423c93 -2 186 20 266 64l62 -97c-96 -54 -210 -80 -328 -80z" />
    <glyph glyph-name="franc" unicode="&#x20a3;" horiz-adv-x="1068" 
d="M60 280v105h155v1055h813v-115h-698v-547h578v-116h-578v-277h298v-105h-298v-280h-115v280h-155z" />
    <glyph glyph-name="uni20B4" unicode="&#x20b4;" horiz-adv-x="1145" 
d="M565 -30c-116 0 -230 37 -305 100c-85 67 -133 169 -133 285c0 66 18 123 49 172h-113v105h1019v-105h-750c-55 -46 -87 -99 -87 -179c0 -76 30 -137 77 -180c68 -62 167 -85 246 -85c105 0 188 41 249 111c40 43 70 99 81 161h116c-10 -86 -48 -166 -102 -229
c-82 -99 -202 -156 -347 -156zM63 910h736l9 10c44 47 64 99 64 162c0 85 -35 154 -85 198c-47 43 -122 77 -209 77c-86 0 -158 -34 -210 -85c-51 -47 -84 -113 -91 -187h-118c6 104 55 200 125 266c74 74 177 119 294 119c111 0 217 -39 290 -106c75 -69 122 -168 122 -284
c0 -65 -15 -119 -45 -170h137v-105h-1018z" />
    <glyph glyph-name="uni20BA" unicode="&#x20ba;" horiz-adv-x="1186" 
d="M295 0v658l-215 -99v125l215 98v227l-215 -99v124l215 98v308h115v-255l328 150v-123l-328 -151v-227l328 150v-123l-328 -151v-608c53 -22 160 -17 229 5c263 77 308 336 308 635h119c0 -398 -80 -650 -399 -746c-105 -32 -256 -33 -372 4z" />
    <glyph glyph-name="uni20B1" unicode="&#x20b1;" horiz-adv-x="1152" 
d="M50 1072v94h120v274h416c25 0 61 -2 100 -8c157 -25 266 -126 314 -266h121v-94h-99c3 -26 5 -53 5 -81s-2 -55 -6 -81h100v-94h-122c-47 -137 -153 -236 -313 -262c-39 -7 -75 -8 -100 -8h-301v-546h-115v816h-120v94h120v162h-120zM285 654h299c24 0 61 2 92 9
c92 19 156 77 193 153h-584v-162zM285 910h615c5 26 8 54 8 81s-3 55 -8 81h-615v-162zM285 1166h584c-37 75 -101 134 -193 153c-31 7 -69 9 -92 9h-299v-162z" />
    <glyph glyph-name="uni20BD" unicode="&#x20bd;" horiz-adv-x="1332" 
d="M140 566v108h157v766h533c25 0 57 -2 96 -8c217 -36 346 -207 346 -431c0 -219 -124 -390 -346 -427c-39 -7 -71 -8 -96 -8h-418v-201h475v-105h-475v-260h-115v260h-157v105h157v201h-157zM412 674h416c23 0 57 2 88 9c155 31 235 165 235 317c0 149 -78 288 -235 319
c-31 7 -66 9 -88 9h-416v-654z" />
    <glyph glyph-name="uni20B9" unicode="&#x20b9;" horiz-adv-x="1190" 
d="M1088 1440v-104h-267c78 -69 126 -168 137 -283h132v-104h-132c-17 -175 -117 -313 -288 -368c-45 -14 -95 -20 -157 -20h-199l636 -561h-172l-638 561v113h376c23 0 57 2 88 8c138 27 215 139 232 267h-695v104h695c-17 127 -94 239 -232 266c-31 7 -65 9 -88 9h-376
v112h948z" />
    <glyph glyph-name="uni20AA" unicode="&#x20aa;" horiz-adv-x="1555" 
d="M120 0v1440h476c28 0 61 -2 97 -8c216 -36 345 -211 345 -431v-608h-120v608c0 148 -78 288 -235 318c-31 7 -66 9 -89 9h-359v-1328h-115zM516 439v608h121v-608c0 -148 78 -287 235 -318c31 -7 65 -9 88 -9h359v1328h116v-1440h-477c-28 0 -60 2 -96 8
c-217 36 -346 211 -346 431z" />
    <glyph glyph-name="sterling" unicode="&#xa3;" horiz-adv-x="1142" 
d="M63 0v112h127c77 0 140 64 140 141v424h-267v113h267v307c0 220 158 373 368 373c181 0 303 -122 381 -351l-108 -35c-60 186 -145 273 -274 273c-151 0 -250 -103 -250 -262v-305h383v-113h-383l-1 -565h593v-112h-976z" />
    <glyph glyph-name="uni20AE" unicode="&#x20ae;" horiz-adv-x="1187" 
d="M264 268v126l272 124v226l-272 -125v126l272 124v459h-516v112h1147v-112h-516v-407l272 124v-124l-272 -125v-226l272 124v-124l-272 -125v-445h-115v393z" />
    <glyph glyph-name="uni20A9" unicode="&#x20a9;" horiz-adv-x="1891" 
d="M60 668v105h191l-191 667h119l190 -667h325l190 667h121l190 -667h325l190 667h121l-192 -667h192v-105h-222l-192 -668h-118l-192 668h-324l-192 -668h-118l-192 668h-221zM399 668l133 -466l132 466h-265zM813 773h264l-132 461zM1225 668l133 -466l132 466h-265z" />
    <glyph glyph-name="yen" unicode="&#xa5;" horiz-adv-x="1075" 
d="M168 514v105h306l-474 821h133l405 -700l404 700h133l-473 -821h306v-105h-312v-174h312v-105h-312v-235h-116v235h-312v105h312v174h-312z" />
    <glyph glyph-name="uni2215" unicode="&#x2215;" horiz-adv-x="744" 
d="M504 1440h120l-384 -1440h-120z" />
    <glyph glyph-name="plus" unicode="+" horiz-adv-x="1157" 
d="M526 262v406h-406v105h406v405h105v-405h406v-105h-406v-406h-105z" />
    <glyph glyph-name="minus" unicode="&#x2212;" horiz-adv-x="1080" 
d="M120 668v105h840v-105h-840z" />
    <glyph glyph-name="multiply" unicode="&#xd7;" horiz-adv-x="963" 
d="M768 359l-287 287l-287 -287l-74 74l287 287l-287 286l75 74l286 -286l287 287l74 -74l-287 -287l287 -287z" />
    <glyph glyph-name="divide" unicode="&#xf7;" horiz-adv-x="1080" 
d="M120 668v105h840v-105h-840zM470 393v143h143v-143h-143zM470 906v143h143v-143h-143z" />
    <glyph glyph-name="equal" unicode="=" horiz-adv-x="1500" 
d="M240 832v105h1020v-105h-1020zM240 503v105h1020v-105h-1020z" />
    <glyph glyph-name="notequal" unicode="&#x2260;" horiz-adv-x="1500" 
d="M459 330l-79 70l96 103h-236v105h335l209 224h-544v105h642l162 173l78 -68l-98 -105h236v-105h-334l-208 -224h542v-105h-640z" />
    <glyph glyph-name="greater" unicode="&#x3e;" horiz-adv-x="1213" 
d="M467 164l-74 73l394 393l-394 393l74 73l466 -466z" />
    <glyph glyph-name="less" unicode="&#x3c;" horiz-adv-x="1213" 
d="M746 164l-466 466l466 466l74 -73l-394 -393l394 -393z" />
    <glyph glyph-name="greaterequal" unicode="&#x2265;" horiz-adv-x="1500" 
d="M240 334v112l836 276l-836 276v112l1020 -341v-94zM240 0v105h1020v-105h-1020z" />
    <glyph glyph-name="lessequal" unicode="&#x2264;" horiz-adv-x="1500" 
d="M1260 334l-1020 341v94l1020 341v-112l-836 -276l836 -276v-112zM240 0v105h1020v-105h-1020z" />
    <glyph glyph-name="plusminus" unicode="&#xb1;" horiz-adv-x="1200" 
d="M548 440v268h-428v105h428v267h105v-267h427v-105h-427v-268h-105zM120 167v105h960v-105h-960z" />
    <glyph glyph-name="approxequal" unicode="&#x2248;" horiz-adv-x="1288" 
d="M842 761c-163 0 -289 177 -397 177c-80 0 -92 -96 -71 -155h-118c-35 142 57 261 188 261c159 0 297 -177 398 -177c64 0 97 76 72 155h117c35 -137 -53 -261 -189 -261zM256 406c-35 142 57 261 188 261c159 0 294 -177 398 -177c72 0 94 85 72 155h117
c35 -137 -53 -261 -189 -261c-161 0 -289 177 -397 177c-80 0 -92 -96 -71 -155h-118z" />
    <glyph glyph-name="asciitilde" unicode="~" horiz-adv-x="1288" 
d="M848 485c-153 0 -294 148 -406 148c-78 0 -93 -71 -74 -130h-124c-38 149 47 269 193 269c155 0 296 -148 409 -148c68 0 96 64 74 134h124c38 -146 -44 -273 -196 -273z" />
    <glyph glyph-name="logicalnot" unicode="&#xac;" horiz-adv-x="1200" 
d="M975 396v252h-855v105h960v-357h-105z" />
    <glyph glyph-name="asciicircum" unicode="^" horiz-adv-x="1331" 
d="M210 1006l466 466l466 -465l-73 -75l-393 394l-393 -394z" />
    <glyph glyph-name="infinity" unicode="&#x221e;" horiz-adv-x="1354" 
d="M382 216c-216 0 -313 179 -312 363c1 195 112 361 315 361c142 0 226 -80 292 -230c67 150 152 230 293 230c200 0 314 -157 314 -359c0 -201 -111 -365 -314 -365c-141 0 -226 78 -293 229c-68 -151 -154 -229 -295 -229zM187 578c0 -123 54 -247 202 -247
c101 0 183 60 252 247c-69 186 -151 246 -252 246c-148 0 -202 -124 -202 -246zM713 578c69 -187 151 -247 252 -247c148 0 202 124 202 247c0 122 -54 246 -202 246c-101 0 -183 -60 -252 -246z" />
    <glyph glyph-name="emptyset" unicode="&#x2205;" horiz-adv-x="1200" 
d="M150 34l-67 67l147 147c-67 82 -107 187 -107 301c0 261 212 474 475 474c114 0 219 -40 301 -108l146 146l67 -69l-145 -145c66 -81 106 -185 106 -298c0 -263 -213 -476 -475 -476c-114 0 -219 40 -301 107zM222 549c0 -87 29 -167 78 -231l528 527
c-63 49 -143 79 -230 79c-209 0 -376 -168 -376 -375zM368 251c63 -50 143 -79 230 -79c207 0 375 169 375 377c0 86 -29 165 -77 228z" />
    <glyph glyph-name="integral" unicode="&#x222b;" horiz-adv-x="1200" 
d="M141 -340l10 100h129c116 0 182 50 196 185l131 1236c5 41 13 145 87 216c79 75 186 73 226 73h139l-10 -100h-129c-116 0 -182 -50 -196 -185l-131 -1236c-5 -43 -15 -146 -87 -216c-79 -75 -186 -73 -226 -73h-139z" />
    <glyph glyph-name="product" unicode="&#x220f;" horiz-adv-x="927" 
d="M120 0v1440h687v-1440h-115v1335h-457v-1335h-115z" />
    <glyph glyph-name="summation" unicode="&#x2211;" horiz-adv-x="1048" 
d="M120 -135v109l705 589l-705 585l1 110h806l-1 -102h-659l659 -546v-95l-659 -546h661v-102z" />
    <glyph glyph-name="radical" unicode="&#x221a;" horiz-adv-x="1129" 
d="M465 0l-191 605h-250v95h328l173 -549l545 1515h109l-597 -1666h-117z" />
    <glyph glyph-name="uni00B5" unicode="&#xb5;" horiz-adv-x="1187" 
d="M140 -480v1560h116v-562c0 -273 108 -432 333 -432c236 0 342 173 342 411v583h116v-1080h-105v164c-80 -130 -214 -189 -367 -189c-147 0 -260 58 -330 165v-620h-105z" />
    </font>
</defs>
</svg>
